<?xml version="1.0" encoding="UTF-8" standalone="no"?>
<svg width="60px" height="61px" viewBox="0 0 60 61" version="1.1" xmlns="http://www.w3.org/2000/svg" xmlns:xlink="http://www.w3.org/1999/xlink" xmlns:sketch="http://www.bohemiancoding.com/sketch/ns">
    <!-- Generator: Sketch 3.2.2 (9983) - http://www.bohemiancoding.com/sketch -->
    <title>icon-invoicing-2</title>
    <desc>Created with Sketch.</desc>
    <defs></defs>
    <g id="Page-1" stroke="none" stroke-width="1" fill="none" fill-rule="evenodd" sketch:type="MSPage">
        <g id="Symboler-Features-sketch-2" sketch:type="MSArtboardGroup" transform="translate(-146.000000, -135.000000)">
            <g id="icon-invoicing-2" sketch:type="MSLayerGroup" transform="translate(146.000000, 135.500000)">
                <path d="M59.6485714,30.1092857 C59.6485714,13.6744286 46.3255714,0.351428571 29.8907143,0.351428571 C13.4558571,0.351428571 0.132857143,13.6744286 0.132857143,30.1092857 C0.132857143,46.5437143 13.4558571,59.8667143 29.8907143,59.8667143 C46.3255714,59.8667143 59.6485714,46.5437143 59.6485714,30.1092857" id="Fill-1" fill="#FFBB2F" sketch:type="MSShapeGroup"></path>
                <path d="M29.8907143,43.8235714 C22.3285714,43.8235714 16.1764286,37.671 16.1764286,30.1092857 C16.1764286,22.5471429 22.3285714,16.395 29.8907143,16.395 C37.4528571,16.395 43.605,22.5471429 43.605,30.1092857 C43.605,37.671 37.4528571,43.8235714 29.8907143,43.8235714 L29.8907143,43.8235714 Z M29.8907143,18.1092857 C23.274,18.1092857 17.8907143,23.4921429 17.8907143,30.1092857 C17.8907143,36.726 23.274,42.1092857 29.8907143,42.1092857 C36.5078571,42.1092857 41.8907143,36.726 41.8907143,30.1092857 C41.8907143,23.4921429 36.5078571,18.1092857 29.8907143,18.1092857 L29.8907143,18.1092857 Z" id="Fill-2" fill="#6C4B00" sketch:type="MSShapeGroup"></path>
                <path d="M26.9982857,25.7198571 C27.2237143,25.4507143 27.4902857,25.2141429 27.798,25.0105714 C28.1061429,24.8074286 28.4494286,24.645 28.8291429,24.5245714 C29.2084286,24.4037143 29.6177143,24.3428571 30.0578571,24.3428571 C30.5961429,24.3428571 31.089,24.423 31.5338571,24.582 C31.9791429,24.7414286 32.361,24.9642857 32.6802857,25.2501429 C32.9991429,25.536 33.246,25.8767143 33.4225714,26.2722857 C33.5982857,26.6682857 33.6865714,27.1028571 33.6865714,27.5755714 C33.6865714,28.2021429 33.546,28.7271429 33.2657143,29.1505714 C32.9854286,29.5735714 32.6524286,29.8902857 32.2675714,30.099 C32.6742857,30.3192857 33.0124286,30.6432857 33.2824286,31.0722857 C33.5511429,31.5008571 33.6865714,32.0288571 33.6865714,32.6554286 C33.6865714,33.1504286 33.5982857,33.5982857 33.4225714,33.9994286 C33.246,34.401 33.0017143,34.7417143 32.6884286,35.0224286 C32.3751429,35.3022857 31.9958571,35.517 31.5505714,35.6652857 C31.1052857,35.8135714 30.6184286,35.8881429 30.0904286,35.8881429 C29.6395714,35.8881429 29.2221429,35.8302857 28.8372857,35.715 C28.4524286,35.5992857 28.1031429,35.4372857 27.7902857,35.2281429 C27.4765714,35.0194286 27.207,34.7747143 26.982,34.4944286 C26.7565714,34.2137143 26.5774286,33.9085714 26.4458571,33.579 L27.8811429,32.2431429 C28.0675714,32.793 28.356,33.2241429 28.7464286,33.5378571 C29.1368571,33.8511429 29.5902857,34.008 30.1071429,34.008 C30.6021429,34.008 31.0088571,33.8751429 31.3277143,33.6098571 C31.6465714,33.3445714 31.806,32.9738571 31.806,32.4985714 C31.806,32.034 31.6521429,31.6774286 31.3444286,31.4288571 C31.0362857,31.1798571 30.6458571,31.0555714 30.1735714,31.0555714 L29.3978571,31.0555714 L29.3978571,29.1587143 L30.1735714,29.1587143 C30.6458571,29.1587143 31.0362857,29.0288571 31.3444286,28.7695714 C31.6521429,28.5094286 31.806,28.158 31.806,27.7157143 C31.806,27.2515714 31.6435714,26.8868571 31.3195714,26.6215714 C30.9951429,26.3554286 30.591,26.223 30.1071429,26.223 C29.6125714,26.223 29.1672857,26.3798571 28.7712857,26.6931429 C28.3757143,27.0064286 28.0787143,27.4217143 27.8811429,27.9385714 L26.4621429,26.586 C26.5941429,26.2782857 26.7728571,25.9898571 26.9982857,25.7198571" id="Fill-3" fill="#6C4B00" sketch:type="MSShapeGroup"></path>
            </g>
        </g>
    </g>
</svg>