<?xml version="1.0" encoding="UTF-8" standalone="no"?>
<svg width="60px" height="61px" viewBox="0 0 60 61" version="1.1" xmlns="http://www.w3.org/2000/svg" xmlns:xlink="http://www.w3.org/1999/xlink" xmlns:sketch="http://www.bohemiancoding.com/sketch/ns">
    <!-- Generator: Sketch 3.2.2 (9983) - http://www.bohemiancoding.com/sketch -->
    <title>icon-invoicing-3</title>
    <desc>Created with Sketch.</desc>
    <defs></defs>
    <g id="Page-1" stroke="none" stroke-width="1" fill="none" fill-rule="evenodd" sketch:type="MSPage">
        <g id="Symboler-Features-sketch-2" sketch:type="MSArtboardGroup" transform="translate(-226.000000, -135.000000)">
            <g id="icon-invoicing-3" sketch:type="MSLayerGroup" transform="translate(226.000000, 135.500000)">
                <path d="M59.7488571,30.1761429 C59.7488571,13.7412857 46.4258571,0.418285714 29.991,0.418285714 C13.5561429,0.418285714 0.233142857,13.7412857 0.233142857,30.1761429 C0.233142857,46.611 13.5561429,59.934 29.991,59.934 C46.4258571,59.934 59.7488571,46.611 59.7488571,30.1761429" id="Fill-1" fill="#FFBB2F" sketch:type="MSShapeGroup"></path>
                <path d="M42.4808571,25.488 L40.008,25.488 L40.008,23.2092857 C40.008,23.0048571 39.927,22.809 39.7825714,22.6645714 L33.618,16.5 C33.4735714,16.3555714 33.2777143,16.2745714 33.0732857,16.2745714 L20.7445714,16.2745714 C20.319,16.2745714 19.974,16.6195714 19.974,17.0451429 L19.974,25.488 L17.5011429,25.488 C17.1265714,25.488 16.8231429,25.7914286 16.8231429,26.166 L16.8231429,43.3997143 C16.8231429,43.7742857 17.1265714,44.0781429 17.5011429,44.0781429 L42.4808571,44.0781429 C42.8554286,44.0781429 43.1588571,43.7742857 43.1588571,43.3997143 L43.1588571,26.166 C43.1588571,25.7914286 42.8554286,25.488 42.4808571,25.488 L42.4808571,25.488 Z M40.0607143,27.1851429 L40.008,27.2348571 L40.008,27.1851429 L40.0607143,27.1851429 L40.0607143,27.1851429 Z M33.8438571,18.9051429 L37.377,22.4387143 L33.8438571,22.4387143 L33.8438571,18.9051429 L33.8438571,18.9051429 Z M21.5147143,17.8157143 L32.3027143,17.8157143 L32.3027143,23.2092857 C32.3027143,23.6348571 32.6477143,23.9798571 33.0732857,23.9798571 L38.4668571,23.9798571 L38.4668571,28.698 L33.5931429,33.3257143 L30.495,30.3831429 C30.2181429,30.12 29.7844286,30.1195714 29.5067143,30.3818571 L26.394,33.3257143 L21.5147143,28.6967143 L21.5147143,17.8157143 L21.5147143,17.8157143 Z M19.974,27.1851429 L19.974,27.2348571 L19.9212857,27.1851429 L19.974,27.1851429 L19.974,27.1851429 Z M18.3724286,28.0397143 L25.1344286,34.482 L18.3724286,40.9234286 L18.3724286,28.0397143 L18.3724286,28.0397143 Z M19.4442857,42.1414286 L29.991,32.094 L40.5377143,42.1414286 L19.4442857,42.1414286 L19.4442857,42.1414286 Z M41.6095714,40.9238571 L34.8475714,34.482 L41.6095714,28.0397143 L41.6095714,40.9238571 L41.6095714,40.9238571 Z" id="Fill-2" fill="#6C4B00" sketch:type="MSShapeGroup"></path>
            </g>
        </g>
    </g>
</svg>