<?xml version="1.0" encoding="UTF-8" standalone="no"?>
<svg width="60px" height="61px" viewBox="0 0 60 61" version="1.1" xmlns="http://www.w3.org/2000/svg" xmlns:xlink="http://www.w3.org/1999/xlink" xmlns:sketch="http://www.bohemiancoding.com/sketch/ns">
    <!-- Generator: Sketch 3.2.2 (9983) - http://www.bohemiancoding.com/sketch -->
    <title>icon-bookkeeping-3</title>
    <desc>Created with Sketch.</desc>
    <defs></defs>
    <g id="Page-1" stroke="none" stroke-width="1" fill="none" fill-rule="evenodd" sketch:type="MSPage">
        <g id="Symboler-Features-sketch-2" sketch:type="MSArtboardGroup" transform="translate(-226.000000, -52.000000)">
            <g id="icon-bookkeeping-3" sketch:type="MSLayerGroup" transform="translate(226.000000, 52.500000)">
                <path d="M59.7488571,30.0082014 C59.7488571,13.4555396 46.4258571,0.0366906475 29.991,0.0366906475 C13.5561429,0.0366906475 0.233142857,13.4555396 0.233142857,30.0082014 C0.233142857,46.561295 13.5561429,59.9801439 29.991,59.9801439 C46.4258571,59.9801439 59.7488571,46.561295 59.7488571,30.0082014" id="Fill-1" fill="#FFBB2F" sketch:type="MSShapeGroup"></path>
                <path d="M40.5072857,17.7867626 L37.1301429,17.7867626 C36.7958571,16.8388489 35.8988571,16.1572662 34.8445714,16.1572662 L33.4088571,16.1572662 C32.9532857,15.6457554 32.2992857,15.3423022 31.6092857,15.3423022 L28.3735714,15.3423022 C27.6835714,15.3423022 27.0291429,15.6457554 26.5731429,16.1572662 L25.1374286,16.1572662 C24.0831429,16.1572662 23.1861429,16.8388489 22.8518571,17.7867626 L19.4747143,17.7867626 C19.0277143,17.7867626 18.6655714,18.1515108 18.6655714,18.601295 L18.6655714,43.8595683 C18.6655714,44.3097842 19.0277143,44.6741007 19.4747143,44.6741007 L40.5072857,44.6741007 C40.9542857,44.6741007 41.3164286,44.3097842 41.3164286,43.8595683 L41.3164286,18.601295 C41.3164286,18.1515108 40.9542857,17.7867626 40.5072857,17.7867626 L40.5072857,17.7867626 Z M25.1374286,17.7867626 L26.9798571,17.7867626 C27.2678571,17.7867626 27.534,17.6322302 27.6788571,17.3818705 C27.8271429,17.125036 28.0868571,16.9717986 28.3735714,16.9717986 L31.6092857,16.9717986 C31.896,16.9717986 32.1552857,17.125036 32.3035714,17.3818705 C32.4484286,17.6326619 32.715,17.7867626 33.003,17.7867626 L34.8445714,17.7867626 C35.2911429,17.7867626 35.6537143,18.1519424 35.6537143,18.601295 C35.6537143,19.0510791 35.2911429,19.416259 34.8445714,19.416259 L25.1374286,19.416259 C24.6912857,19.416259 24.3282857,19.0506475 24.3282857,18.601295 C24.3282857,18.1519424 24.6912857,17.7867626 25.1374286,17.7867626 L25.1374286,17.7867626 Z M39.6985714,43.0446043 L20.2834286,43.0446043 L20.2834286,19.416259 L22.8522857,19.416259 C23.1865714,20.3641727 24.0835714,21.0457554 25.1374286,21.0457554 L34.8445714,21.0457554 C35.8988571,21.0457554 36.7954286,20.3641727 37.1301429,19.416259 L39.6985714,19.416259 L39.6985714,43.0446043 L39.6985714,43.0446043 Z" id="Fill-2" fill="#6C4B00" sketch:type="MSShapeGroup"></path>
                <path d="M21.9012857,24.3047482 C21.9012857,24.754964 22.2634286,25.1197122 22.7104286,25.1197122 L37.2715714,25.1197122 C37.7185714,25.1197122 38.0807143,24.754964 38.0807143,24.3047482 C38.0807143,23.854964 37.7185714,23.4902158 37.2715714,23.4902158 L22.7104286,23.4902158 C22.2634286,23.4902158 21.9012857,23.854964 21.9012857,24.3047482" id="Fill-3" fill="#6C4B00" sketch:type="MSShapeGroup"></path>
                <path d="M37.2715714,26.7492086 L22.7104286,26.7492086 C22.2634286,26.7492086 21.9012857,27.1139568 21.9012857,27.5641727 C21.9012857,28.0139568 22.2634286,28.378705 22.7104286,28.378705 L37.2715714,28.378705 C37.7185714,28.378705 38.0807143,28.0139568 38.0807143,27.5641727 C38.0807143,27.1139568 37.7185714,26.7492086 37.2715714,26.7492086" id="Fill-4" fill="#6C4B00" sketch:type="MSShapeGroup"></path>
                <path d="M37.2715714,30.0082014 L22.7104286,30.0082014 C22.2634286,30.0082014 21.9012857,30.3729496 21.9012857,30.8231655 C21.9012857,31.2733813 22.2634286,31.6376978 22.7104286,31.6376978 L37.2715714,31.6376978 C37.7185714,31.6376978 38.0807143,31.2733813 38.0807143,30.8231655 C38.0807143,30.3729496 37.7185714,30.0082014 37.2715714,30.0082014" id="Fill-5" fill="#6C4B00" sketch:type="MSShapeGroup"></path>
                <path d="M34.0358571,34.0821583 C34.0358571,33.6323741 33.6737143,33.2676259 33.2267143,33.2676259 L22.7104286,33.2676259 C22.2634286,33.2676259 21.9012857,33.6323741 21.9012857,34.0821583 C21.9012857,34.5323741 22.2634286,34.8971223 22.7104286,34.8971223 L33.2267143,34.8971223 C33.6737143,34.8971223 34.0358571,34.5323741 34.0358571,34.0821583" id="Fill-6" fill="#6C4B00" sketch:type="MSShapeGroup"></path>
                <path d="M36.6994286,36.7653237 L34.8445714,38.6335252 L33.7988571,37.5802878 C33.483,37.2617266 32.9708571,37.2617266 32.655,37.5802878 C32.3391429,37.8984173 32.3387143,38.4142446 32.655,38.7323741 L34.2728571,40.3618705 C34.431,40.5211511 34.6375714,40.6005755 34.8445714,40.6005755 C35.052,40.6005755 35.2585714,40.5211511 35.4167143,40.3618705 L37.8437143,37.9174101 C38.16,37.5992806 38.16,37.0834532 37.8437143,36.7653237 C37.5274286,36.4471942 37.0157143,36.4471942 36.6994286,36.7653237" id="Fill-7" fill="#6C4B00" sketch:type="MSShapeGroup"></path>
            </g>
        </g>
    </g>
</svg>