<?xml version="1.0" encoding="UTF-8" standalone="no"?>
<svg width="60px" height="61px" viewBox="0 0 60 61" version="1.1" xmlns="http://www.w3.org/2000/svg" xmlns:xlink="http://www.w3.org/1999/xlink" xmlns:sketch="http://www.bohemiancoding.com/sketch/ns">
    <!-- Generator: Sketch 3.2.2 (9983) - http://www.bohemiancoding.com/sketch -->
    <title>icon-sorting-4</title>
    <desc>Created with Sketch.</desc>
    <defs></defs>
    <g id="Page-1" stroke="none" stroke-width="1" fill="none" fill-rule="evenodd" sketch:type="MSPage">
        <g id="Symboler-Features-sketch-2" sketch:type="MSArtboardGroup" transform="translate(-306.000000, -213.000000)">
            <g id="icon-sorting-4" sketch:type="MSLayerGroup" transform="translate(306.000000, 213.500000)">
                <path d="M59.9460432,29.856 C59.9460432,13.4211429 46.5271942,0.0981428571 29.9741007,0.0981428571 C13.4210072,0.0981428571 0.00215827338,13.4211429 0.00215827338,29.856 C0.00215827338,46.2908571 13.4210072,59.6138571 29.9741007,59.6138571 C46.5271942,59.6138571 59.9460432,46.2908571 59.9460432,29.856" id="Fill-1" fill="#FFBB2F" sketch:type="MSShapeGroup"></path>
                <path d="M33.4864748,29.1587143 C33.5054676,29.097 33.5184173,29.0331429 33.5184173,28.9658571 C33.5184173,28.8981429 33.5054676,28.8338571 33.4864748,28.7725714 C33.4830216,28.7618571 33.4804317,28.752 33.4769784,28.7417143 C33.4536691,28.6782857 33.4217266,28.6191429 33.3811511,28.566 C33.3798561,28.5642857 33.3794245,28.5617143 33.3776978,28.5595714 L31.1680576,25.7117143 C30.9483453,25.428 30.5123741,25.3718571 30.2257554,25.5904286 C30.083741,25.698 29.9926619,25.8548571 29.9697842,26.031 C29.9460432,26.2088571 29.9930935,26.385 30.1031655,26.5268571 L31.4792806,28.2985714 L26.6835971,28.2985714 C26.3132374,28.2985714 26.0119424,28.5977143 26.0119424,28.9658571 C26.0119424,29.3335714 26.3132374,29.6331429 26.6835971,29.6331429 L31.4805755,29.6331429 L30.1031655,31.4057143 C29.9939568,31.5471429 29.9464748,31.722 29.9693525,31.8985714 C29.9922302,32.0755714 30.0828777,32.2332857 30.2257554,32.3417143 C30.3440288,32.4321429 30.4864748,32.4801429 30.6366906,32.4801429 C30.8434532,32.4801429 31.0420144,32.3832857 31.1680576,32.2208571 L33.3772662,29.3742857 C33.3802878,29.3704286 33.3811511,29.3661429 33.383741,29.3622857 C33.4225899,29.3108571 33.4532374,29.2534286 33.4761151,29.1921429 C33.48,29.181 33.4830216,29.1698571 33.4864748,29.1587143" id="Fill-2" fill="#6C4B00" sketch:type="MSShapeGroup"></path>
                <path d="M18.5184173,24.5892857 L14.062446,34.1185714 L15.7761151,34.1185714 L16.5164029,32.526 L22.0420144,32.526 L22.7823022,34.1185714 L24.4964029,34.1185714 L20.04,24.5892857 L18.5184173,24.5892857 L18.5184173,24.5892857 Z M17.2428777,30.9741429 L19.272518,26.6177143 L21.3155396,30.9741429 L17.2428777,30.9741429 L17.2428777,30.9741429 Z" id="Fill-3" fill="#6C4B00" sketch:type="MSShapeGroup"></path>
                <path d="M42.4717986,24.5815714 C42.754964,24.5815714 42.9902158,24.4864286 43.1779856,24.2957143 C43.3653237,24.105 43.4589928,23.8692857 43.4589928,23.5877143 C43.4589928,23.3065714 43.3653237,23.0704286 43.1779856,22.8801429 C42.9902158,22.689 42.754964,22.5938571 42.4717986,22.5938571 C42.1886331,22.5938571 41.9507914,22.689 41.758705,22.8801429 C41.5670504,23.0704286 41.4707914,23.3065714 41.4707914,23.5877143 C41.4707914,23.8692857 41.5670504,24.105 41.758705,24.2957143 C41.9507914,24.4864286 42.1886331,24.5815714 42.4717986,24.5815714" id="Fill-4" fill="#6C4B00" sketch:type="MSShapeGroup"></path>
                <path d="M39.6746763,24.5815714 C39.9578417,24.5815714 40.1956835,24.4864286 40.3873381,24.2957143 C40.5794245,24.105 40.6752518,23.8692857 40.6752518,23.5877143 C40.6752518,23.3065714 40.5794245,23.0704286 40.3873381,22.8801429 C40.1956835,22.689 39.9578417,22.5938571 39.6746763,22.5938571 C39.3910791,22.5938571 39.1536691,22.689 38.9615827,22.8801429 C38.7694964,23.0704286 38.6736691,23.3065714 38.6736691,23.5877143 C38.6736691,23.8692857 38.7694964,24.105 38.9615827,24.2957143 C39.1536691,24.4864286 39.3910791,24.5815714 39.6746763,24.5815714" id="Fill-5" fill="#6C4B00" sketch:type="MSShapeGroup"></path>
                <path d="M45.5223022,27.8897143 C45.2801439,27.309 44.9469065,26.805 44.5217266,26.3785714 C44.0965468,25.9521429 43.5893525,25.6187143 42.9997122,25.3778571 C42.4100719,25.1374286 41.772518,25.017 41.0866187,25.017 C40.4011511,25.017 39.7661871,25.1374286 39.1808633,25.3778571 C38.5959712,25.6187143 38.088777,25.9521429 37.6588489,26.3785714 C37.2293525,26.805 36.8935252,27.309 36.6513669,27.8897143 C36.408777,28.4704286 36.2879137,29.1008571 36.2879137,29.7818571 C36.2879137,30.4624286 36.408777,31.0932857 36.6513669,31.674 C36.8935252,32.2547143 37.2293525,32.7587143 37.6588489,33.1851429 C38.088777,33.6115714 38.5959712,33.945 39.1808633,34.1854286 C39.7661871,34.4262857 40.4011511,34.5462857 41.0866187,34.5462857 C41.772518,34.5462857 42.4100719,34.4262857 42.9997122,34.1854286 C43.5893525,33.945 44.0965468,33.6115714 44.5217266,33.1851429 C44.9469065,32.7587143 45.2801439,32.2547143 45.5223022,31.674 C45.7644604,31.0932857 45.8857554,30.4624286 45.8857554,29.7818571 C45.8857554,29.1008571 45.7644604,28.4704286 45.5223022,27.8897143 L45.5223022,27.8897143 Z M44.0827338,31.068 C43.9225899,31.4627143 43.6989928,31.8034286 43.4110791,32.0892857 C43.1231655,32.3751429 42.78,32.5975714 42.382446,32.7561429 C41.9848921,32.9151429 41.5532374,32.9944286 41.0866187,32.9944286 C40.6208633,32.9944286 40.188777,32.9151429 39.791223,32.7561429 C39.3936691,32.5975714 39.0509353,32.3751429 38.7630216,32.0892857 C38.4751079,31.8034286 38.2506475,31.4627143 38.0913669,31.068 C37.9307914,30.6732857 37.8513669,30.2447143 37.8513669,29.7818571 C37.8513669,29.319 37.9307914,28.89 38.0913669,28.4952857 C38.2506475,28.1005714 38.4751079,27.7598571 38.7630216,27.4744286 C39.0509353,27.1885714 39.3936691,26.9661429 39.791223,26.8071429 C40.188777,26.6485714 40.6208633,26.5692857 41.0866187,26.5692857 C41.5532374,26.5692857 41.9848921,26.6485714 42.382446,26.8071429 C42.78,26.9661429 43.1231655,27.1885714 43.4110791,27.4744286 C43.6989928,27.7598571 43.9225899,28.1005714 44.0827338,28.4952857 C44.242446,28.89 44.3227338,29.319 44.3227338,29.7818571 C44.3227338,30.2447143 44.242446,30.6732857 44.0827338,31.068 L44.0827338,31.068 Z" id="Fill-6" fill="#6C4B00" sketch:type="MSShapeGroup"></path>
            </g>
        </g>
    </g>
</svg>