<?xml version="1.0" encoding="UTF-8" standalone="no"?>
<svg width="60px" height="61px" viewBox="0 0 60 61" version="1.1" xmlns="http://www.w3.org/2000/svg" xmlns:xlink="http://www.w3.org/1999/xlink" xmlns:sketch="http://www.bohemiancoding.com/sketch/ns">
    <!-- Generator: Sketch 3.2.2 (9983) - http://www.bohemiancoding.com/sketch -->
    <title>icon-sorting-1</title>
    <desc>Created with Sketch.</desc>
    <defs></defs>
    <g id="Page-1" stroke="none" stroke-width="1" fill="none" fill-rule="evenodd" sketch:type="MSPage">
        <g id="Symboler-Features-sketch-2" sketch:type="MSArtboardGroup" transform="translate(-66.000000, -213.000000)">
            <g id="icon-sorting-1" sketch:type="MSLayerGroup" transform="translate(66.000000, 213.500000)">
                <path d="M59.9827338,30.0844286 C59.9827338,13.6495714 46.5638849,0.326571429 30.0107914,0.326571429 C13.4581295,0.326571429 0.0392805755,13.6495714 0.0392805755,30.0844286 C0.0392805755,46.5188571 13.4581295,59.8418571 30.0107914,59.8418571 C46.5638849,59.8418571 59.9827338,46.5188571 59.9827338,30.0844286" id="Fill-1" fill="#FFBB2F" sketch:type="MSShapeGroup"></path>
                <path d="M42.011223,20.5551429 L18.011223,20.5551429 C16.5979856,20.5551429 15.4484892,21.7144286 15.4484892,23.1394286 L15.4484892,37.0465714 C15.4484892,38.4621429 16.5979856,39.6137143 18.011223,39.6137143 L42.011223,39.6137143 C42.6953957,39.6137143 43.3385612,39.3462857 43.8228777,38.8602857 C44.3067626,38.3751429 44.5735252,37.731 44.5735252,37.0465714 L44.5735252,23.1394286 C44.5735252,21.7144286 43.4240288,20.5551429 42.011223,20.5551429 L42.011223,20.5551429 Z M16.9743885,23.1394286 C16.9743885,22.5497143 17.4397122,22.0701429 18.011223,22.0701429 L42.011223,22.0701429 C42.5823022,22.0701429 43.0476259,22.5497143 43.0476259,23.1394286 L43.0476259,37.0465714 C43.0476259,37.6268571 42.5823022,38.0982857 42.011223,38.0982857 L18.011223,38.0982857 C17.4397122,38.0982857 16.9743885,37.6268571 16.9743885,37.0465714 L16.9743885,23.1394286 L16.9743885,23.1394286 Z" id="Fill-2" fill="#6C4B00" sketch:type="MSShapeGroup"></path>
                <path d="M37.4425899,23.1818571 L41.1789928,23.1818571 L41.1789928,24.7097143 L37.4425899,24.7097143 L37.4425899,23.1818571 Z" id="Fill-3" fill="#6C4B00" sketch:type="MSShapeGroup"></path>
                <path d="M30.0103597,36.8674286 C33.7804317,36.8674286 36.8477698,33.8232857 36.8477698,30.0814286 C36.8477698,26.3387143 33.7804317,23.2945714 30.0103597,23.2945714 C26.2411511,23.2945714 23.1751079,26.3387143 23.1751079,30.0814286 C23.1751079,33.8232857 26.2411511,36.8674286 30.0103597,36.8674286 L30.0103597,36.8674286 Z M24.7001439,30.0805714 C24.7001439,27.174 27.082446,24.8091429 30.0103597,24.8091429 C32.9391367,24.8091429 35.3218705,27.174 35.3218705,30.0805714 C35.3218705,32.9875714 32.9391367,35.3524286 30.0103597,35.3524286 C27.082446,35.3524286 24.7001439,32.9875714 24.7001439,30.0805714 L24.7001439,30.0805714 Z" id="Fill-4" fill="#6C4B00" sketch:type="MSShapeGroup"></path>
                <path d="M31.3553957,27.741 C31.9182734,27.825 32.3270504,28.2535714 32.3572662,28.7871429 C32.3486331,28.8317143 32.3421583,28.878 32.3404317,28.9067143 C32.3283453,29.109 32.3956835,29.3035714 32.531223,29.4548571 C32.6663309,29.6061429 32.8528058,29.6961429 33.0453237,29.7068571 L33.1023022,29.7094286 C33.4756835,29.7094286 33.7994245,29.4334286 33.8559712,29.0657143 L33.8853237,28.851 C33.8853237,27.5387143 32.9166906,26.4411429 31.5815827,26.2422857 C31.1564029,26.1822857 30.7769784,26.4685714 30.7139568,26.8795714 C30.6513669,27.2922857 30.9392806,27.6784286 31.3553957,27.741 L31.3553957,27.741 Z" id="Fill-5" fill="#6C4B00" sketch:type="MSShapeGroup"></path>
            </g>
        </g>
    </g>
</svg>