<?xml version="1.0" encoding="utf-8"?>
<!-- Generator: Adobe Illustrator 18.1.1, SVG Export Plug-In . SVG Version: 6.00 Build 0)  -->
<svg version="1.1" id="Layer_1" xmlns:sketch="http://www.bohemiancoding.com/sketch/ns"
     xmlns="http://www.w3.org/2000/svg" xmlns:xlink="http://www.w3.org/1999/xlink" x="0px" y="0px" viewBox="-375 287.3 91 21"
     enable-background="new -375 287.3 91 21" xml:space="preserve">
<title>237:- + mån + Line</title>
<desc>Created with Sketch.</desc>
<g id="_x32_37:--_x2B_-mån-_x2B_-Line" transform="translate(30.000000, 336.000000)">
    <path id="_x32_37:-" fill="#909090" d="M-403.7-44.5c0.2-0.5,0.6-1,0.9-1.5c0.3-0.5,0.8-0.9,1.2-1.2c0.5-0.3,1-0.6,1.5-0.8
        c0.6-0.2,1.2-0.3,1.8-0.3c0.8,0,1.5,0.1,2.2,0.4c0.7,0.3,1.2,0.6,1.7,1.1s0.9,1,1.1,1.7c0.3,0.7,0.4,1.3,0.4,2.1
        c0,1-0.2,1.8-0.6,2.6c-0.4,0.7-0.8,1.4-1.3,1.8l-6.1,6.2h8v1.6h-10.4v-1.4l7.4-7.5c0.4-0.4,0.8-0.9,1-1.5s0.4-1.1,0.4-1.7
        c0-0.6-0.1-1.1-0.3-1.5c-0.2-0.5-0.5-0.9-0.8-1.2c-0.3-0.3-0.7-0.6-1.2-0.8c-0.5-0.2-1-0.3-1.5-0.3c-1,0-1.8,0.3-2.5,0.9
        s-1.3,1.4-1.7,2.4L-403.7-44.5z M-389.8-44.5c0.2-0.5,0.4-1,0.8-1.5s0.7-0.9,1.1-1.2c0.4-0.3,0.9-0.6,1.5-0.8
        c0.6-0.2,1.2-0.3,1.8-0.3c0.7,0,1.3,0.1,1.9,0.4c0.6,0.2,1.1,0.6,1.6,1c0.4,0.4,0.8,0.9,1.1,1.5s0.4,1.2,0.4,1.9
        c0,1-0.2,1.8-0.7,2.5s-1.1,1.2-1.9,1.5c0.8,0.3,1.5,0.9,1.9,1.6c0.4,0.7,0.7,1.5,0.7,2.5c0,0.7-0.1,1.4-0.4,2
        c-0.2,0.6-0.6,1.1-1,1.5c-0.4,0.4-1,0.7-1.6,0.9c-0.6,0.2-1.2,0.3-1.9,0.3s-1.3-0.1-1.9-0.3c-0.6-0.2-1.1-0.5-1.5-0.8
        c-0.5-0.3-0.8-0.8-1.1-1.2c-0.3-0.5-0.6-1-0.8-1.6l1.4-1c0.3,1,0.8,1.8,1.4,2.4c0.7,0.6,1.5,0.9,2.5,0.9c1,0,1.7-0.3,2.4-0.9
        c0.6-0.6,0.9-1.3,0.9-2.3c0-1-0.3-1.8-0.9-2.3s-1.4-0.9-2.3-0.9h-0.8v-1.6h0.8c0.9,0,1.7-0.3,2.3-0.9s0.9-1.3,0.9-2.3
        c0-0.5-0.1-0.9-0.2-1.3c-0.2-0.4-0.4-0.7-0.7-1c-0.3-0.3-0.6-0.5-1.1-0.6c-0.4-0.2-0.8-0.2-1.3-0.2c-1,0-1.8,0.3-2.5,0.9
        c-0.7,0.6-1.1,1.4-1.4,2.3L-389.8-44.5z M-365.9-48.2v1.5l-8.1,16h-1.8l8-15.9h-9.6v-1.6H-365.9z M-363.4-43.5
        c0.4,0,0.8,0.2,1.1,0.5c0.3,0.3,0.5,0.7,0.5,1.1c0,0.5-0.2,0.8-0.5,1.1c-0.3,0.3-0.7,0.5-1.1,0.5c-0.5,0-0.8-0.1-1.1-0.5
        c-0.3-0.3-0.5-0.7-0.5-1.1c0-0.4,0.1-0.8,0.5-1.1C-364.2-43.4-363.8-43.5-363.4-43.5L-363.4-43.5z M-363.4-33.9
        c0.4,0,0.8,0.2,1.1,0.5c0.3,0.3,0.5,0.7,0.5,1.1c0,0.5-0.2,0.8-0.5,1.1c-0.3,0.3-0.7,0.5-1.1,0.5c-0.5,0-0.8-0.1-1.1-0.5
        c-0.3-0.3-0.5-0.7-0.5-1.1c0-0.4,0.1-0.8,0.5-1.1C-364.2-33.7-363.8-33.9-363.4-33.9L-363.4-33.9z M-345.7-39.5v1.6h-11.7v-1.6
        H-345.7z"/>
    <path id="mån" fill="#909090" d="M-336.1-34c0.5-1.3,1.4-1.9,2.7-1.9c0.9,0,1.6,0.3,2,0.8c0.4,0.6,0.7,1.3,0.7,2.3v4.1h-0.9v-4.2
        c0-0.7-0.2-1.2-0.5-1.6c-0.3-0.4-0.8-0.6-1.4-0.6c-0.4,0-0.8,0.1-1.1,0.2c-0.3,0.2-0.5,0.4-0.7,0.7s-0.3,0.6-0.4,1
        c-0.1,0.4-0.1,0.8-0.1,1.2v3.3h-0.9v-4.2c0-0.7-0.2-1.2-0.5-1.6c-0.3-0.4-0.8-0.6-1.5-0.6c-0.4,0-0.8,0.1-1.1,0.3
        c-0.3,0.2-0.5,0.4-0.7,0.7c-0.2,0.3-0.3,0.6-0.4,1c-0.1,0.4-0.1,0.8-0.1,1.2v3.2h-0.9v-7h0.8v1.6c0.2-0.6,0.5-1,0.9-1.3
        c0.4-0.3,0.9-0.5,1.6-0.5c0.6,0,1.2,0.2,1.6,0.5S-336.2-34.6-336.1-34L-336.1-34z M-327.1-38.3c0-0.4,0.1-0.8,0.4-1s0.6-0.4,1-0.4
        c0.4,0,0.8,0.1,1.1,0.4c0.3,0.3,0.4,0.6,0.4,1c0,0.4-0.1,0.8-0.4,1.1c-0.3,0.3-0.6,0.4-1.1,0.4c-0.4,0-0.8-0.1-1-0.4
        S-327.1-37.9-327.1-38.3L-327.1-38.3z M-324.7-38.3c0-0.3-0.1-0.5-0.2-0.7s-0.4-0.2-0.6-0.2c-0.3,0-0.5,0.1-0.6,0.2
        s-0.2,0.4-0.2,0.7s0.1,0.5,0.2,0.7s0.4,0.2,0.6,0.2c0.3,0,0.5-0.1,0.6-0.2S-324.7-38-324.7-38.3L-324.7-38.3z M-323.8-32.3
        l-2.5,0.3c-0.5,0.1-0.9,0.2-1.1,0.5c-0.2,0.2-0.3,0.5-0.3,0.9c0,0.4,0.1,0.7,0.4,1c0.3,0.2,0.7,0.4,1.2,0.4c0.4,0,0.7-0.1,1-0.2
        s0.6-0.3,0.8-0.5c0.2-0.2,0.4-0.5,0.5-0.7s0.2-0.6,0.2-0.9V-32.3z M-328.4-34.2c0.1-0.2,0.2-0.5,0.3-0.7c0.1-0.2,0.3-0.4,0.5-0.5
        c0.2-0.2,0.5-0.3,0.8-0.4c0.3-0.1,0.7-0.1,1.1-0.1c0.9,0,1.6,0.2,2.1,0.6s0.7,1.1,0.7,1.9v4.6h-0.9v-1.5c-0.2,0.5-0.5,0.9-1,1.2
        c-0.5,0.3-1,0.4-1.6,0.4c-0.4,0-0.7-0.1-1-0.2c-0.3-0.1-0.5-0.3-0.7-0.4s-0.3-0.4-0.4-0.7c-0.1-0.3-0.2-0.5-0.2-0.8
        c0-0.7,0.2-1.2,0.6-1.5c0.4-0.3,1-0.6,1.6-0.6l2.3-0.2c0.2,0,0.3-0.1,0.3-0.3v-0.3c0-0.5-0.1-0.9-0.4-1.1c-0.3-0.3-0.8-0.4-1.4-0.4
        c-1.2,0-1.9,0.4-2.1,1.3L-328.4-34.2z M-320-34.2c0.2-0.5,0.6-0.9,1-1.2c0.4-0.3,1-0.5,1.6-0.5c0.9,0,1.6,0.3,2,0.8
        c0.4,0.6,0.7,1.3,0.7,2.2v4.1h-0.9v-4.1c0-0.7-0.2-1.2-0.5-1.6s-0.8-0.6-1.4-0.6c-0.4,0-0.8,0.1-1.1,0.3c-0.3,0.2-0.5,0.4-0.7,0.7
        c-0.2,0.3-0.3,0.6-0.4,1c-0.1,0.4-0.1,0.8-0.1,1.2v3.2h-0.9v-7h0.8V-34.2z"/>
    <path id="Line" fill="none" stroke="#FB7557" stroke-width="2" stroke-linecap="square" d="M-403.6-44.7l88,13"/>
</g>
</svg>
