<?xml version="1.0" encoding="UTF-8" standalone="no"?>
<svg width="60px" height="61px" viewBox="0 0 60 61" version="1.1" xmlns="http://www.w3.org/2000/svg" xmlns:xlink="http://www.w3.org/1999/xlink" xmlns:sketch="http://www.bohemiancoding.com/sketch/ns">
    <!-- Generator: Sketch 3.2.2 (9983) - http://www.bohemiancoding.com/sketch -->
    <title>icon-sorting-2</title>
    <desc>Created with Sketch.</desc>
    <defs></defs>
    <g id="Page-1" stroke="none" stroke-width="1" fill="none" fill-rule="evenodd" sketch:type="MSPage">
        <g id="Symboler-Features-sketch-2" sketch:type="MSArtboardGroup" transform="translate(-146.000000, -213.000000)">
            <g id="icon-sorting-2" sketch:type="MSLayerGroup" transform="translate(146.000000, 213.500000)">
                <path d="M59.6485714,29.8478571 C59.6485714,13.413 46.3255714,0.0904285714 29.8907143,0.0904285714 C13.4558571,0.0904285714 0.132857143,13.413 0.132857143,29.8478571 C0.132857143,46.2827143 13.4558571,59.6057143 29.8907143,59.6057143 C46.3255714,59.6057143 59.6485714,46.2827143 59.6485714,29.8478571" id="Fill-1" fill="#FFBB2F" sketch:type="MSShapeGroup"></path>
                <path d="M33.8494286,22.9311429 L16.7057143,22.9311429 C16.2321429,22.9311429 15.8485714,23.3147143 15.8485714,23.7882857 C15.8485714,24.2614286 16.2321429,24.6454286 16.7057143,24.6454286 L33.8494286,24.6454286 C34.323,24.6454286 34.7065714,24.2614286 34.7065714,23.7882857 C34.7065714,23.3147143 34.323,22.9311429 33.8494286,22.9311429" id="Fill-2" fill="#6C4B00" sketch:type="MSShapeGroup"></path>
                <path d="M39.9188571,25.74 L43.7532857,20.7947143 C44.0434286,20.4205714 43.9748571,19.8827143 43.6007143,19.5921429 C43.227,19.3028571 42.6882857,19.3705714 42.3981429,19.7442857 L39.687,23.2418571 L38.4385714,22.1331429 C38.0841429,21.8181429 37.5424286,21.8507143 37.2287143,22.2051429 C36.9145714,22.5591429 36.9462857,23.1004286 37.3002857,23.415 L39.9188571,25.74" id="Fill-3" fill="#6C4B00" sketch:type="MSShapeGroup"></path>
                <path d="M33.8494286,29.5418571 L16.7057143,29.5418571 C16.2321429,29.5418571 15.8485714,29.9254286 15.8485714,30.399 C15.8485714,30.8721429 16.2321429,31.2561429 16.7057143,31.2561429 L33.8494286,31.2561429 C34.323,31.2561429 34.7065714,30.8721429 34.7065714,30.399 C34.7065714,29.9254286 34.323,29.5418571 33.8494286,29.5418571" id="Fill-4" fill="#6C4B00" sketch:type="MSShapeGroup"></path>
                <path d="M43.6007143,26.2024286 C43.227,25.9131429 42.6882857,25.9804286 42.3981429,26.3545714 L39.687,29.8521429 L38.4385714,28.7434286 C38.0841429,28.4284286 37.5424286,28.461 37.2287143,28.815 C36.9145714,29.1694286 36.9462857,29.7107143 37.3002857,30.0252857 L39.9188571,32.3507143 L43.7532857,27.405 C44.0434286,27.0308571 43.9748571,26.4921429 43.6007143,26.2024286" id="Fill-5" fill="#6C4B00" sketch:type="MSShapeGroup"></path>
                <path d="M33.8494286,36.1521429 L16.7057143,36.1521429 C16.2321429,36.1521429 15.8485714,36.5357143 15.8485714,37.0088571 C15.8485714,37.4824286 16.2321429,37.866 16.7057143,37.866 L33.8494286,37.866 C34.323,37.866 34.7065714,37.4824286 34.7065714,37.0088571 C34.7065714,36.5357143 34.323,36.1521429 33.8494286,36.1521429" id="Fill-6" fill="#6C4B00" sketch:type="MSShapeGroup"></path>
                <path d="M43.6007143,32.8127143 C43.227,32.5238571 42.6882857,32.5911429 42.3981429,32.9652857 L39.687,36.4624286 L38.4385714,35.3541429 C38.0841429,35.0395714 37.5424286,35.0717143 37.2287143,35.4257143 C36.9145714,35.7797143 36.9462857,36.3214286 37.3002857,36.6355714 L39.9188571,38.961 L43.7532857,34.0157143 C44.0434286,33.6415714 43.9748571,33.1032857 43.6007143,32.8127143" id="Fill-7" fill="#6C4B00" sketch:type="MSShapeGroup"></path>
            </g>
        </g>
    </g>
</svg>