<?xml version="1.0" encoding="UTF-8" standalone="no"?>
<svg width="60px" height="61px" viewBox="0 0 60 61" version="1.1" xmlns="http://www.w3.org/2000/svg" xmlns:xlink="http://www.w3.org/1999/xlink" xmlns:sketch="http://www.bohemiancoding.com/sketch/ns">
    <!-- Generator: Sketch 3.2.2 (9983) - http://www.bohemiancoding.com/sketch -->
    <title>icon-invoicing-1</title>
    <desc>Created with Sketch.</desc>
    <defs></defs>
    <g id="Page-1" stroke="none" stroke-width="1" fill="none" fill-rule="evenodd" sketch:type="MSPage">
        <g id="Symboler-Features-sketch-2" sketch:type="MSArtboardGroup" transform="translate(-66.000000, -135.000000)">
            <g id="icon-invoicing-1" sketch:type="MSLayerGroup" transform="translate(66.000000, 135.500000)">
                <path d="M59.9827338,30.1427143 C59.9827338,13.7078571 46.5638849,0.384857143 30.0107914,0.384857143 C13.4581295,0.384857143 0.0392805755,13.7078571 0.0392805755,30.1427143 C0.0392805755,46.5775714 13.4581295,59.9005714 30.0107914,59.9005714 C46.5638849,59.9005714 59.9827338,46.5775714 59.9827338,30.1427143" id="Fill-1" fill="#FFBB2F" sketch:type="MSShapeGroup"></path>
                <path d="M30.0107914,43.857 C22.3942446,43.857 16.1978417,37.7048571 16.1978417,30.1427143 C16.1978417,22.581 22.3942446,16.4284286 30.0107914,16.4284286 C37.6273381,16.4284286 43.823741,22.581 43.823741,30.1427143 C43.823741,37.7048571 37.6273381,43.857 30.0107914,43.857 L30.0107914,43.857 Z M30.0107914,18.1427143 C23.3464748,18.1427143 17.9244604,23.526 17.9244604,30.1427143 C17.9244604,36.7598571 23.3464748,42.1427143 30.0107914,42.1427143 C36.6755396,42.1427143 42.0971223,36.7598571 42.0971223,30.1427143 C42.0971223,23.526 36.6755396,18.1427143 30.0107914,18.1427143 L30.0107914,18.1427143 Z" id="Fill-2" fill="#6C4B00" sketch:type="MSShapeGroup"></path>
                <path d="M34.6519424,35.9215714 C34.4313669,35.9215714 34.2099281,35.838 34.0415827,35.6704286 L29.1284892,30.7928571 C28.9666187,30.6321429 28.8755396,30.414 28.8755396,30.1864286 L28.8755396,23.5341429 C28.8755396,23.061 29.2623022,22.677 29.7388489,22.677 C30.2158273,22.677 30.6025899,23.061 30.6025899,23.5341429 L30.6025899,29.8315714 L35.2623022,34.4584286 C35.5998561,34.7935714 35.5998561,35.3357143 35.2623022,35.6704286 C35.0939568,35.838 34.8729496,35.9215714 34.6519424,35.9215714" id="Fill-3" fill="#6C4B00" sketch:type="MSShapeGroup"></path>
            </g>
        </g>
    </g>
</svg>