<?xml version="1.0" encoding="UTF-8" standalone="no"?>
<svg width="18px" height="16px" viewBox="0 0 18 16" version="1.1" xmlns="http://www.w3.org/2000/svg" xmlns:xlink="http://www.w3.org/1999/xlink" xmlns:sketch="http://www.bohemiancoding.com/sketch/ns">
    <!-- Generator: Sketch 3.2.2 (9983) - http://www.bohemiancoding.com/sketch -->
    <title>"</title>
    <desc>Created with Sketch.</desc>
    <defs></defs>
    <g id="Page-1" stroke="none" stroke-width="1" fill="none" fill-rule="evenodd" sketch:type="MSPage">
        <g id="Main" sketch:type="MSArtboardGroup" transform="translate(-593.000000, -870.000000)" fill="currentColor">
            <g id="Social-proof" sketch:type="MSLayerGroup" transform="translate(0.000000, 800.000000)">
                <path d="M605.93,85.64 C604.889995,85.64 604.030003,85.2800036 603.35,84.56 C602.669997,83.8399964 602.33,83.0000048 602.33,82.04 C602.33,81.4799972 602.469999,80.9200028 602.75,80.36 L608.33,70.28 L610.49,71.54 L606.53,78.5 C607.410004,78.6600008 608.129997,79.0699967 608.69,79.73 C609.250003,80.3900033 609.53,81.1599956 609.53,82.04 C609.53,83.0000048 609.190003,83.8399964 608.51,84.56 C607.829997,85.2800036 606.970005,85.64 605.93,85.64 L605.93,85.64 Z M596.69,85.64 C595.649995,85.64 594.790003,85.2800036 594.11,84.56 C593.429997,83.8399964 593.09,83.0000048 593.09,82.04 C593.09,81.3599966 593.229999,80.8000022 593.51,80.36 C593.51,80.3199998 593.52,80.3 593.54,80.3 C593.56,80.3 593.57,80.2800002 593.57,80.24 L599.09,70.28 L601.25,71.54 L597.29,78.5 C598.170004,78.6600008 598.889997,79.0699967 599.45,79.73 C600.010003,80.3900033 600.29,81.1599956 600.29,82.04 C600.29,83.0000048 599.950003,83.8399964 599.27,84.56 C598.589997,85.2800036 597.730005,85.64 596.69,85.64 L596.69,85.64 Z" id="&quot;" sketch:type="MSShapeGroup"></path>
            </g>
        </g>
    </g>
</svg>