<?xml version="1.0" encoding="UTF-8" standalone="no"?>
<svg width="60px" height="61px" viewBox="0 0 60 61" version="1.1" xmlns="http://www.w3.org/2000/svg" xmlns:xlink="http://www.w3.org/1999/xlink" xmlns:sketch="http://www.bohemiancoding.com/sketch/ns">
    <!-- Generator: Sketch 3.2.2 (9983) - http://www.bohemiancoding.com/sketch -->
    <title>icon-bookkeeping-4</title>
    <desc>Created with Sketch.</desc>
    <defs></defs>
    <g id="Page-1" stroke="none" stroke-width="1" fill="none" fill-rule="evenodd" sketch:type="MSPage">
        <g id="Symboler-Features-sketch-2" sketch:type="MSArtboardGroup" transform="translate(-306.000000, -52.000000)">
            <g id="icon-bookkeeping-4" sketch:type="MSLayerGroup" transform="translate(306.000000, 52.500000)">
                <path d="M59.9460432,30.0154286 C59.9460432,13.5805714 46.5271942,0.257571429 29.9741007,0.257571429 C13.4210072,0.257571429 0.00215827338,13.5805714 0.00215827338,30.0154286 C0.00215827338,46.4502857 13.4210072,59.7732857 29.9741007,59.7732857 C46.5271942,59.7732857 59.9460432,46.4502857 59.9460432,30.0154286" id="Fill-1" fill="#FFBB2F" sketch:type="MSShapeGroup"></path>
                <path d="M41.4625899,19.1854286 L40.8228777,18.5494286 C39.4938129,17.2294286 37.3307914,17.229 36.0008633,18.5477143 L18.6919424,35.7107143 C18.6043165,35.7977143 18.5456115,35.9091429 18.5235971,36.0304286 L17.4988489,41.7672857 C17.4647482,41.9601429 17.5269065,42.1577143 17.6667626,42.2961429 C17.6684892,42.2978571 17.6710791,42.3004286 17.6728058,42.3021429 C17.8165468,42.4405714 18.0202878,42.4997143 18.2166906,42.4594286 L23.8467626,41.3001429 C23.9615827,41.2761429 24.0677698,41.22 24.1506475,41.1368571 L41.4595683,23.9747143 C42.7899281,22.6551429 42.7916547,20.5067143 41.4625899,19.1854286 L41.4625899,19.1854286 Z M35.1992806,24.762 L35.1992806,24.762 C34.9631655,24.5275714 34.5811511,24.5275714 34.3454676,24.7615714 L22.8971223,36.1131429 C22.8811511,36.129 22.8686331,36.147 22.8552518,36.1637143 L21.9168345,35.8975714 L21.5555396,34.6367143 C21.5507914,34.6187143 21.5421583,34.6032857 21.5356835,34.5861429 L34.1369784,22.0911429 L37.8880576,25.8201429 L25.2867626,38.3151429 C25.2694964,38.3091429 25.2539568,38.3005714 25.236259,38.2954286 L23.9641727,37.9337143 L23.6974101,37.0045714 C23.7151079,36.9904286 23.7341007,36.978 23.7505036,36.9617143 L35.1984173,25.6101429 C35.434964,25.3761429 35.4353957,24.9964286 35.1992806,24.762 L35.1992806,24.762 Z M39.9699281,19.3988571 L40.607482,20.0327143 C41.4656115,20.8864286 41.4647482,22.2737143 40.6057554,23.1257143 L38.7431655,24.9728571 L34.9920863,21.2434286 L36.8546763,19.3967143 C37.7132374,18.5451429 39.1105036,18.5455714 39.9699281,19.3988571 L39.9699281,19.3988571 Z M20.8001439,40.7022857 C20.6974101,40.3015714 20.494964,39.9372857 20.1941007,39.6377143 C19.918705,39.3642857 19.5794245,39.1705714 19.2094964,39.0608571 L19.6804317,36.4264286 L20.5614388,35.5525714 L20.9382734,36.8682857 L22.5315108,37.32 L22.9860432,38.904 L24.312518,39.2811429 L23.4241727,40.1622857 L20.8001439,40.7022857 L20.8001439,40.7022857 Z" id="Fill-2" fill="#6C4B00" sketch:type="MSShapeGroup"></path>
                <path d="M18.0941007,42.579 C17.9080576,42.579 17.7315108,42.5078571 17.5981295,42.3792857 C17.4263309,42.2091429 17.3520863,41.976 17.3926619,41.7488571 L18.4174101,36.012 C18.4441727,35.8671429 18.5128058,35.7372857 18.6155396,35.6348571 L35.9244604,18.4722857 C36.5879137,17.8144286 37.4710791,17.4522857 38.4107914,17.4522857 C39.3522302,17.4522857 40.2358273,17.8148571 40.8992806,18.474 L41.5385612,19.1095714 C42.9094964,20.4728571 42.9082014,22.689 41.5359712,24.0501429 L24.2270504,41.2127143 C24.1290647,41.3104286 24.0051799,41.3768571 23.8683453,41.4051429 L18.2382734,42.564 C18.191223,42.5738571 18.142446,42.579 18.0941007,42.579 L18.0941007,42.579 Z M38.4107914,17.6665714 C37.5280576,17.6665714 36.6997122,18.0064286 36.0768345,18.6235714 L18.7679137,35.7865714 C18.6958273,35.8581429 18.6483453,35.949 18.6297842,36.0497143 L17.605036,41.7861429 C17.5774101,41.9442857 17.628777,42.1067143 17.7431655,42.2202857 C17.867482,42.3398571 18.0353957,42.387 18.1942446,42.3544286 L23.8243165,41.1955714 C23.9197122,41.1758571 24.0060432,41.1291429 24.0746763,41.0614286 L41.3831655,23.8988571 C42.6716547,22.6208571 42.6729496,20.5405714 41.3861871,19.2608571 L40.7464748,18.6252857 C40.1240288,18.0068571 39.2943885,17.6665714 38.4107914,17.6665714 L38.4107914,17.6665714 Z M20.7207194,40.8278571 L20.6952518,40.7284286 C20.5951079,40.3362857 20.4008633,39.9947143 20.1176978,39.7135714 C19.8621583,39.4598571 19.537554,39.2695714 19.1788489,39.1637143 L19.0864748,39.1362857 L19.5798561,36.3745714 L20.614964,35.3481429 L21.0254676,36.7817143 L22.618705,37.233 L23.0732374,38.817 L24.5188489,39.228 L23.4776978,40.2604286 L20.7207194,40.8278571 L20.7207194,40.8278571 Z M19.3320863,38.9875714 C19.6886331,39.108 20.0115108,39.3051429 20.2705036,39.5622857 C20.5571223,39.8472857 20.7608633,40.188 20.8769784,40.5767143 L23.3706475,40.0637143 L24.1066187,39.3338571 L22.8988489,38.9901429 L22.4443165,37.4065714 L20.8510791,36.9548571 L20.5079137,35.7574286 L19.7805755,36.4782857 L19.3320863,38.9875714 L19.3320863,38.9875714 Z M25.3135252,38.4398571 L25.223741,38.4051429 L23.8769784,38.0202857 L23.5739568,36.966 L23.6296403,36.9214286 C23.6576978,36.9 23.6658993,36.8935714 23.6741007,36.8858571 L35.1220144,25.5347143 C35.2161151,25.4412857 35.2679137,25.3178571 35.2683453,25.1862857 C35.2683453,25.0547143 35.2169784,24.9308571 35.1233094,24.8378571 C34.9359712,24.6518571 34.6096403,24.6514286 34.4214388,24.8374286 L22.9735252,36.1885714 C22.9653237,36.1962857 22.9597122,36.2052857 22.9528058,36.2138571 L22.9079137,36.2717143 L22.8258993,36.2665714 L21.8292086,35.9841429 L21.4092086,34.56 L21.4592806,34.5102857 L34.1369784,21.9394286 L38.0408633,25.8205714 L25.3135252,38.4398571 L25.3135252,38.4398571 Z M24.0513669,37.8471429 L25.2595683,38.1904286 L37.7356835,25.8205714 L34.1369784,22.2424286 L21.661295,34.6131429 L22.0040288,35.811 L22.8168345,36.0411429 C22.8181295,36.0398571 22.8194245,36.0385714 22.8207194,36.0372857 L34.2690647,24.6857143 C34.5388489,24.4187143 35.0071942,24.4195714 35.2761151,24.6865714 C35.4103597,24.8202857 35.4841727,24.9977143 35.483741,25.1867143 C35.483741,25.3752857 35.4090647,25.5527143 35.2748201,25.6864286 L23.8264748,37.0375714 C23.8243165,37.0392857 23.8230216,37.0414286 23.8208633,37.0431429 L24.0513669,37.8471429 L24.0513669,37.8471429 Z M38.7431655,25.1241429 L34.8392806,21.2434286 L36.7782734,19.3208571 C37.2138129,18.8888571 37.7935252,18.6514286 38.4103597,18.6514286 C39.0289209,18.6514286 39.6099281,18.8897143 40.0458993,19.323 L40.6838849,19.9568571 C41.5843165,20.8521429 41.5830216,22.3075714 40.6817266,23.2015714 L38.7431655,25.1241429 L38.7431655,25.1241429 Z M35.1444604,21.2434286 L38.7431655,24.8211429 L40.5293525,23.0502857 C41.3464748,22.2398571 41.3473381,20.9202857 40.5315108,20.1085714 L39.8935252,19.4742857 C39.4976978,19.0817143 38.9710791,18.8657143 38.4103597,18.8657143 C37.8509353,18.8657143 37.3256115,19.0812857 36.9310791,19.4725714 L35.1444604,21.2434286 L35.1444604,21.2434286 Z" id="Fill-3" fill="#6C4B00" sketch:type="MSShapeGroup"></path>
            </g>
        </g>
    </g>
</svg>