<?xml version="1.0" encoding="UTF-8" standalone="no"?>
<svg width="60px" height="61px" viewBox="0 0 60 61" version="1.1" xmlns="http://www.w3.org/2000/svg" xmlns:xlink="http://www.w3.org/1999/xlink" xmlns:sketch="http://www.bohemiancoding.com/sketch/ns">
    <!-- Generator: Sketch 3.2.2 (9983) - http://www.bohemiancoding.com/sketch -->
    <title>icon-bookkeeping-2</title>
    <desc>Created with Sketch.</desc>
    <defs></defs>
    <g id="Page-1" stroke="none" stroke-width="1" fill="none" fill-rule="evenodd" sketch:type="MSPage">
        <g id="Symboler-Features-sketch-2" sketch:type="MSArtboardGroup" transform="translate(-146.000000, -52.000000)">
            <g id="icon-bookkeeping-2" sketch:type="MSLayerGroup" transform="translate(146.000000, 52.500000)">
                <path d="M59.6485714,30.138 C59.6485714,13.7031429 46.3255714,0.380142857 29.8907143,0.380142857 C13.4558571,0.380142857 0.132857143,13.7031429 0.132857143,30.138 C0.132857143,46.5724286 13.4558571,59.8954286 29.8907143,59.8954286 C46.3255714,59.8954286 59.6485714,46.5724286 59.6485714,30.138" id="Fill-1" fill="#FFBB2F" sketch:type="MSShapeGroup"></path>
                <path d="M33.2965714,38.6322857 L27.1405714,38.6322857 C24.6132857,38.6322857 24.5742857,36.8091429 24.555,35.9327143 C24.5434286,35.3781429 24.5228571,35.0241429 24.3334286,34.791 C22.4931429,32.5178571 21.3771429,30.942 21.3771429,28.2347143 C21.3771429,23.0421429 25.7588571,20.2401429 29.8812857,20.2401429 C34.0234286,20.2401429 38.2028571,22.713 38.2028571,28.2347143 C38.2028571,30.9445714 37.086,32.5195714 35.2452857,34.7897143 C34.8981429,35.2187143 34.2707143,35.2821429 33.846,34.9375714 C33.4178571,34.5912857 33.3522857,33.9642857 33.6981429,33.5378571 C35.4852857,31.3324286 36.2125714,30.2357143 36.2125714,28.2347143 C36.2125714,23.8024286 32.8015714,22.2308571 29.8812857,22.2308571 C26.6442857,22.2308571 23.3678571,24.2927143 23.3678571,28.2347143 C23.3678571,30.2348571 24.0951429,31.3324286 25.8792857,33.5378571 C26.5105714,34.3165714 26.5315714,35.2251429 26.5457143,35.8898571 C26.5508571,36.1255714 26.5572857,36.4808571 26.6091429,36.5828571 C26.6091429,36.5854286 26.7415714,36.6415714 27.1405714,36.6415714 L33.2965714,36.6415714 C33.846,36.6415714 34.2917143,37.0872857 34.2917143,37.6367143 C34.2917143,38.1861429 33.846,38.6322857 33.2965714,38.6322857" id="Fill-2" fill="#6C4B00" sketch:type="MSShapeGroup"></path>
                <path d="M27.6565714,32.6682857 C27.3818571,32.6682857 27.1071429,32.5538571 26.9095714,32.331 C24.3282857,29.4047143 25.7562857,25.9341429 26.8722857,24.507 C27.2104286,24.0741429 27.8352857,23.9952857 28.269,24.336 C28.7022857,24.6745714 28.7781429,25.299 28.4417143,25.7314286 C28.3392857,25.8651429 26.2851429,28.614 28.4027143,31.0135714 C28.7665714,31.4258571 28.7262857,32.0545714 28.3144286,32.4184286 C28.1258571,32.5868571 27.891,32.6682857 27.6565714,32.6682857" id="Fill-3" fill="#6C4B00" sketch:type="MSShapeGroup"></path>
                <path d="M33.1251429,41.5478571 L26.4501429,41.5478571 C25.9007143,41.5478571 25.4545714,41.1021429 25.4545714,40.5527143 C25.4545714,40.0032857 25.9007143,39.5571429 26.4501429,39.5571429 L33.1255714,39.5571429 C33.675,39.5571429 34.1211429,40.0032857 34.1211429,40.5527143 C34.1211429,41.1021429 33.675,41.5478571 33.1251429,41.5478571" id="Fill-4" fill="#6C4B00" sketch:type="MSShapeGroup"></path>
                <path d="M32.5628571,44.3112857 L27.0188571,44.3112857 C26.4694286,44.3112857 26.0237143,43.8655714 26.0237143,43.3161429 C26.0237143,42.7667143 26.4694286,42.3205714 27.0188571,42.3205714 L32.5628571,42.3205714 C33.1122857,42.3205714 33.5584286,42.7667143 33.5584286,43.3161429 C33.5584286,43.8655714 33.1122857,44.3112857 32.5628571,44.3112857" id="Fill-5" fill="#6C4B00" sketch:type="MSShapeGroup"></path>
                <path d="M29.7908571,18.6767143 C29.2414286,18.6767143 28.7952857,18.231 28.7952857,17.6815714 L28.7952857,15.2451429 C28.7952857,14.6957143 29.2414286,14.25 29.7908571,14.25 C30.3402857,14.25 30.786,14.6957143 30.786,15.2451429 L30.786,17.6815714 C30.786,18.231 30.3407143,18.6767143 29.7908571,18.6767143" id="Fill-6" fill="#6C4B00" sketch:type="MSShapeGroup"></path>
                <path d="M22.5167143,21.5382857 C22.2612857,21.5382857 22.0075714,21.441 21.813,21.2468571 L20.0918571,19.5235714 C19.7027143,19.1335714 19.7027143,18.5035714 20.0918571,18.1161429 C20.4805714,17.7257143 21.1105714,17.7287143 21.4992857,18.1161429 L23.2204286,19.8394286 C23.6091429,20.2294286 23.6091429,20.8594286 23.2204286,21.2468571 C23.0258571,21.441 22.7704286,21.5382857 22.5167143,21.5382857" id="Fill-7" fill="#6C4B00" sketch:type="MSShapeGroup"></path>
                <path d="M37.2647143,21.5382857 C37.011,21.5382857 36.7555714,21.441 36.561,21.2468571 C36.1722857,20.8594286 36.1722857,20.2294286 36.561,19.8394286 L38.2821429,18.1161429 C38.6695714,17.7287143 39.2995714,17.7257143 39.6895714,18.1161429 C40.0787143,18.5035714 40.0787143,19.1335714 39.6895714,19.5235714 L37.9684286,21.2468571 C37.7738571,21.441 37.5201429,21.5382857 37.2647143,21.5382857" id="Fill-8" fill="#6C4B00" sketch:type="MSShapeGroup"></path>
            </g>
        </g>
    </g>
</svg>