<?xml version="1.0" encoding="UTF-8" standalone="no"?>
<svg width="49px" height="50px" viewBox="0 0 49 50" version="1.1" xmlns="http://www.w3.org/2000/svg" xmlns:xlink="http://www.w3.org/1999/xlink" xmlns:sketch="http://www.bohemiancoding.com/sketch/ns">
    <!-- Generator: Sketch 3.2.2 (9983) - http://www.bohemiancoding.com/sketch -->
    <title>Check</title>
    <desc>Created with Sketch.</desc>
    <defs></defs>
    <g id="Page-1" stroke="none" stroke-width="1" fill="none" fill-rule="evenodd" sketch:type="MSPage">
        <g id="Main" sketch:type="MSArtboardGroup" transform="translate(-412.000000, -2505.000000)">
            <g id="Integrated" sketch:type="MSLayerGroup" transform="translate(100.000000, 2368.000000)">
                <g id="Check" transform="translate(311.771028, 137.000000)" sketch:type="MSShapeGroup">
                    <path d="M41.4621212,25.0333333 C41.4621212,15.9893939 34.130303,8.65757576 25.0863636,8.65757576 C16.0439394,8.65757576 8.71212121,15.9893939 8.71212121,25.0333333 C8.71212121,34.0772727 16.0439394,41.4075758 25.0863636,41.4075758 C34.130303,41.4075758 41.4621212,34.0772727 41.4621212,25.0333333" id="Fill-1" fill="#085635"></path>
                    <path d="M25.0863636,0.877272727 C11.7454545,0.877272727 0.931818182,11.6924242 0.931818182,25.0333333 C0.931818182,38.3742424 11.7454545,49.1893939 25.0863636,49.1893939 C38.4287879,49.1893939 49.2424242,38.3742424 49.2424242,25.0333333 C49.2424242,11.6924242 38.4287879,0.877272727 25.0863636,0.877272727 L25.0863636,0.877272727 Z M35.5136364,14.3227273 L38.8166667,17.3424242 L20.7,37.3939394 L11.3575758,28.0515152 L14.5181818,24.8893939 L20.4151515,30.7863636 L35.5136364,14.3212121 L35.5136364,14.3227273 L35.5136364,14.3227273 Z" id="Fill-2" fill="#FFFFFF"></path>
                </g>
            </g>
        </g>
    </g>
</svg>