<?xml version="1.0" encoding="UTF-8" standalone="no"?>
<svg width="60px" height="61px" viewBox="0 0 60 61" version="1.1" xmlns="http://www.w3.org/2000/svg" xmlns:xlink="http://www.w3.org/1999/xlink" xmlns:sketch="http://www.bohemiancoding.com/sketch/ns">
    <!-- Generator: Sketch 3.2.2 (9983) - http://www.bohemiancoding.com/sketch -->
    <title>icon-bookkeeping-1</title>
    <desc>Created with Sketch.</desc>
    <defs></defs>
    <g id="Page-1" stroke="none" stroke-width="1" fill="none" fill-rule="evenodd" sketch:type="MSPage">
        <g id="Symboler-Features-sketch-2" sketch:type="MSArtboardGroup" transform="translate(-66.000000, -52.000000)">
            <g id="icon-bookkeeping-1" sketch:type="MSLayerGroup" transform="translate(66.000000, 52.500000)">
                <path d="M59.9827338,29.8722857 C59.9827338,13.4374286 46.5638849,0.114428571 30.0107914,0.114428571 C13.4581295,0.114428571 0.0392805755,13.4374286 0.0392805755,29.8722857 C0.0392805755,46.3071429 13.4581295,59.6301429 30.0107914,59.6301429 C46.5638849,59.6301429 59.9827338,46.3071429 59.9827338,29.8722857" id="Fill-1" fill="#FFBB2F" sketch:type="MSShapeGroup"></path>
                <path d="M20.0490647,15.8605714 C19.5906475,15.8605714 19.2189928,16.2295714 19.2189928,16.6847143 L19.2189928,43.0594286 C19.2189928,43.5145714 19.5906475,43.8835714 20.0490647,43.8835714 L39.972518,43.8835714 C40.4309353,43.8835714 40.8025899,43.5145714 40.8025899,43.0594286 L40.8025899,23.2787143 C40.8025899,23.0601429 40.7153957,22.8501429 40.5595683,22.6958571 L33.9185612,16.1022857 C33.7627338,15.9475714 33.5516547,15.8605714 33.3315108,15.8605714 L20.0490647,15.8605714 L20.0490647,15.8605714 Z M20.8795683,17.5088571 L32.5014388,17.5088571 L32.5014388,23.2787143 C32.5014388,23.7338571 32.8730935,24.1028571 33.3315108,24.1028571 L39.142446,24.1028571 L39.142446,42.2352857 L20.8795683,42.2352857 L20.8795683,17.5088571 L20.8795683,17.5088571 Z M34.1615827,18.6745714 L37.9679137,22.4541429 L34.1615827,22.4541429 L34.1615827,18.6745714 L34.1615827,18.6745714 Z M23.3758273,29.0481429 C22.9174101,29.0417143 22.5401439,29.4051429 22.5336691,29.8607143 C22.5271942,30.3158571 22.8936691,30.69 23.3520863,30.6964286 L23.3758273,30.6964286 L36.6578417,30.6964286 C37.116259,30.7028571 37.4930935,30.339 37.5,29.8838571 C37.5064748,29.4287143 37.14,29.0545714 36.6815827,29.0481429 C36.6733813,29.0477143 36.6656115,29.0477143 36.6578417,29.0481429 L23.3758273,29.0481429 L23.3758273,29.0481429 Z M23.3758273,32.3447143 C22.9174101,32.3382857 22.5401439,32.7021429 22.5336691,33.1572857 C22.5271942,33.6124286 22.8936691,33.987 23.3520863,33.9934286 L23.3758273,33.9934286 L36.6578417,33.9934286 C37.116259,33.9998571 37.4930935,33.636 37.5,33.1808571 C37.5064748,32.7257143 37.14,32.3511429 36.6815827,32.3447143 L36.6578417,32.3447143 L23.3758273,32.3447143 L23.3758273,32.3447143 Z M23.3758273,35.6417143 C22.9174101,35.6352857 22.5401439,35.9991429 22.5336691,36.4542857 C22.5271942,36.9094286 22.8936691,37.2835714 23.3520863,37.29 C23.3598561,37.2904286 23.3680576,37.2904286 23.3758273,37.29 L36.6578417,37.29 C37.116259,37.2964286 37.4930935,36.9325714 37.5,36.4774286 C37.5064748,36.0222857 37.14,35.6481429 36.6815827,35.6417143 L36.6578417,35.6417143 L23.3758273,35.6417143 L23.3758273,35.6417143 Z" id="Fill-2" fill="#6C4B00" sketch:type="MSShapeGroup"></path>
            </g>
        </g>
    </g>
</svg>