<?xml version="1.0" encoding="UTF-8" standalone="no"?>
<svg width="56px" height="56px" viewBox="0 0 56 56" version="1.1" xmlns="http://www.w3.org/2000/svg" xmlns:xlink="http://www.w3.org/1999/xlink" xmlns:sketch="http://www.bohemiancoding.com/sketch/ns">
    <!-- Generator: Sketch 3.2.2 (9983) - http://www.bohemiancoding.com/sketch -->
    <title>icon-quote-refresh</title>
    <desc>Created with Sketch.</desc>
    <defs></defs>
    <g id="Page-1" stroke="none" stroke-width="1" fill="none" fill-rule="evenodd" sketch:type="MSPage">
        <g id="icon-quote-refresh" sketch:type="MSLayerGroup">
            <circle id="Oval-7" fill="#FFFFFF" sketch:type="MSShapeGroup" cx="28" cy="28" r="28"></circle>
            <path d="M33.9612561,36.8059299 C32.1527637,38.1079922 30.040741,38.7632 27.8784682,38.7313532 C27.5932106,38.7271766 27.3089682,38.7141247 27.0282788,38.6880208 C26.9140743,38.6770571 26.798347,38.6572182 26.6836349,38.6420779 C26.463347,38.6138857 26.2435667,38.582561 26.0268319,38.5387065 C25.8943546,38.5120805 25.7654303,38.4791896 25.6349834,38.4468208 C25.4233243,38.3956571 25.2142031,38.3450156 25.0086349,38.2813221 C24.9086425,38.2510416 24.8127106,38.2134519 24.7147485,38.180561 C24.4761879,38.0991169 24.2406728,38.0134961 24.010741,37.9143013 C23.9584606,37.892374 23.9082106,37.8683584 23.8559303,37.8438208 C23.5869152,37.7232208 23.3219606,37.5937455 23.0651273,37.450174 C23.0534531,37.4444312 23.0422864,37.4371221 23.0306122,37.4308571 C22.1606273,36.9411481 21.3647485,36.3282286 20.667847,35.6119377 C20.6561728,35.5988857 20.6450061,35.5858338 20.6333319,35.5743481 C20.4181197,35.3503766 20.2110288,35.1149195 20.0140894,34.8716312 C19.9719606,34.8209896 19.9333849,34.7640831 19.8917637,34.7113532 C18.4705516,32.8840805 17.6137637,30.5707532 17.6137637,28.0532935 L20.3475667,28.0532935 L15.9737864,21.3064805 L11.6000061,28.0543377 L14.3338091,28.0543377 C14.3338091,31.0129532 15.2306955,33.7543844 16.7539303,36.0212468 C16.7727106,36.0546597 16.7859076,36.0870286 16.8072258,36.1183532 C16.9655894,36.3506779 17.1401955,36.5642078 17.3087106,36.7834805 C17.3726652,36.867013 17.4305288,36.9531558 17.4965137,37.0340779 C17.7467485,37.3441922 18.0111955,37.6381221 18.2827485,37.9236987 C18.3081273,37.9498026 18.3335061,37.9785169 18.3599,38.0051429 C19.274044,38.9480156 20.3054379,39.7400078 21.4297182,40.3727662 C21.4606803,40.3905169 21.4896122,40.4103558 21.5205743,40.4260182 C21.8454228,40.605613 22.1763622,40.7690234 22.5159303,40.9199039 C22.5996803,40.9574935 22.6814,40.9987377 22.7656576,41.0363273 C23.0564985,41.1595377 23.3514,41.2670857 23.6498546,41.3678468 C23.7909606,41.4190104 23.9320667,41.4691299 24.0746955,41.5129844 C24.3350819,41.5939065 24.6025743,41.6596883 24.8715894,41.7259922 C25.0497485,41.7677584 25.2268925,41.8142234 25.4086046,41.8512909 C25.4832182,41.8669532 25.5547864,41.8888805 25.6299076,41.9014104 C25.8836955,41.9478753 26.137991,41.9745013 26.3907637,42.0053039 C26.4831425,42.0162675 26.5719682,42.0340182 26.6653622,42.0428935 C27.12015,42.0888364 27.5754455,42.119639 28.0287106,42.119639 C30.8081955,42.119639 33.51865,41.2451584 35.8438546,39.5692883 C36.5849152,39.0352026 36.7666273,37.9832156 36.2448394,37.2209818 C35.7255894,36.4561377 34.7002864,36.2718442 33.9612561,36.8059299 Z M41.6713319,28.0543377 C41.668794,25.1066857 40.7785061,22.3694312 39.2623773,20.1067455 C39.2410591,20.0696779 39.2258319,20.03 39.2004531,19.9929325 C39.0121425,19.7172753 38.8075894,19.4593688 38.6020213,19.1998961 C38.5786728,19.1690935 38.5573546,19.1356805 38.5319758,19.1054 C37.1452788,17.3747117 35.4027713,16.0371481 33.4298243,15.1621455 C33.3744985,15.1381299 33.3206955,15.112026 33.2674,15.0874883 C32.9516879,14.9538364 32.6293773,14.8353247 32.3045288,14.7246442 C32.1867713,14.6844442 32.0715516,14.6416338 31.953794,14.6040442 C31.6695516,14.5163351 31.3837864,14.4458545 31.0929455,14.3758961 C30.9325516,14.3388286 30.7746955,14.2965403 30.6122713,14.2641714 C30.5341046,14.2490312 30.4569531,14.2239714 30.3782788,14.2088312 C30.1625591,14.1701974 29.9468394,14.1534909 29.7285819,14.1252987 C29.5793546,14.1059818 29.43165,14.0814442 29.2824228,14.0657818 C28.918491,14.0308026 28.5576046,14.0156623 28.1967182,14.0099195 C28.1307334,14.0088753 28.067794,14 28.0028243,14 C27.9901349,14 27.9789682,14.0031325 27.967294,14.0046987 C25.1923773,14.006787 22.486491,14.8682156 20.1638243,16.5419974 C19.4217485,17.075561 19.2415591,18.1285922 19.7618243,18.8913481 C20.2805667,19.654626 21.3033319,19.8399636 22.0459152,19.3053558 C23.8396879,18.0137351 25.9339455,17.3580052 28.0799758,17.3788883 C28.3875667,17.3809766 28.691097,17.396639 28.9915819,17.4263974 C29.0834531,17.4357948 29.1753243,17.4498909 29.2671955,17.4624208 C29.5148925,17.4932234 29.7605591,17.5282026 29.9996273,17.5767558 C30.1062182,17.5986831 30.2107788,17.6273974 30.3153394,17.651413 C30.5528849,17.7067532 30.7894152,17.7657481 31.0203622,17.8383169 C31.0924379,17.8602442 31.1655288,17.8884364 31.2376046,17.9124519 C31.5025591,18.0017273 31.7634531,18.0977896 32.0177485,18.207426 C32.0431273,18.2183896 32.0685061,18.2319636 32.0943925,18.2424052 C33.6232106,18.9190182 34.9647334,19.9600416 36.010847,21.262626 C36.0174455,21.2704571 36.0235364,21.2803766 36.0306425,21.2876857 C37.501597,23.1316649 38.3883319,25.4888468 38.3898546,28.0543377 L35.6545288,28.0543377 L40.0303394,34.8021948 L44.402597,28.0543377 L41.6713319,28.0543377 Z" id="Fill-1" fill="#FB7457" sketch:type="MSShapeGroup"></path>
        </g>
    </g>
</svg>