<?xml version="1.0" encoding="UTF-8" standalone="no"?>
<svg width="60px" height="61px" viewBox="0 0 60 61" version="1.1" xmlns="http://www.w3.org/2000/svg" xmlns:xlink="http://www.w3.org/1999/xlink" xmlns:sketch="http://www.bohemiancoding.com/sketch/ns">
    <!-- Generator: Sketch 3.2.2 (9983) - http://www.bohemiancoding.com/sketch -->
    <title>icon-sorting-3</title>
    <desc>Created with Sketch.</desc>
    <defs></defs>
    <g id="Page-1" stroke="none" stroke-width="1" fill="none" fill-rule="evenodd" sketch:type="MSPage">
        <g id="Symboler-Features-sketch-2" sketch:type="MSArtboardGroup" transform="translate(-226.000000, -213.000000)">
            <g id="icon-sorting-3" sketch:type="MSLayerGroup" transform="translate(226.000000, 213.500000)">
                <path d="M29.991,0.418285714 C13.5561429,0.418285714 0.233142857,13.7412857 0.233142857,30.1761429 C0.233142857,46.611 13.5561429,59.934 29.991,59.934 C46.4258571,59.934 59.7488571,46.611 59.7488571,30.1761429 C59.7488571,13.7412857 46.4258571,0.418285714 29.991,0.418285714 Z" id="Fill-1" fill="#FFBB2F" sketch:type="MSShapeGroup"></path>
                <path d="M43.6735714,29.3198571 C43.6735714,34.0688571 40.3148571,38.2692857 35.6871429,39.3081429 C35.6185714,39.3248571 35.5474286,39.3321429 35.4784286,39.3321429 C35.0442857,39.3321429 34.653,39.033 34.5535714,38.592 C34.44,38.0794286 34.7601429,37.572 35.2722857,37.458 C39.0415714,36.6111429 41.7762857,33.1885714 41.7762857,29.3198571 C41.7762857,24.7208571 38.0331429,20.9781429 33.4341429,20.9781429 C30.4122857,20.9781429 27.6325714,22.6097143 26.1548571,25.2475714 C26.1522857,25.2501429 26.1522857,25.2522857 26.1522857,25.2544286 C25.998,25.6718571 25.5638571,25.9375714 25.1087143,25.8617143 C24.7932857,25.8094286 24.4684286,25.7837143 24.1457143,25.7837143 C20.8701429,25.7837143 18.2065714,28.4472857 18.2065714,31.7228571 C18.2065714,34.9962857 20.8701429,37.6598571 24.1457143,37.6598571 C27.3814286,37.6598571 30.021,35.0558571 30.0805714,31.8347143 L29.1291429,32.7857143 C28.7567143,33.1581429 28.1571429,33.1555714 27.7868571,32.7857143 C27.417,32.4154286 27.417,31.8154286 27.7868571,31.4455714 L30.3604286,28.8694286 C30.5382857,28.6915714 30.7804286,28.5917143 31.0315714,28.5917143 C31.2831429,28.5917143 31.5252857,28.6915714 31.7031429,28.8694286 L34.2767143,31.4455714 C34.6491429,31.8154286 34.6491429,32.4154286 34.2767143,32.7857143 C34.092,32.9704286 33.8498571,33.0634286 33.6077143,33.0634286 C33.3634286,33.0634286 33.1217143,32.9708571 32.9365714,32.7857143 L31.9778571,31.8295714 C31.9212857,36.0994286 28.4297143,39.5575714 24.1457143,39.5575714 C19.8235714,39.5571429 16.3084286,36.042 16.3084286,31.7228571 C16.3084286,27.4011429 19.8235714,23.886 24.1452857,23.886 C24.3445714,23.886 24.5412857,23.8928571 24.7405714,23.9095714 C26.6048571,20.9164286 29.8804286,19.0804286 33.4337143,19.0804286 C39.0814286,19.0804286 43.6735714,23.6725714 43.6735714,29.3198571" id="Fill-2" fill="#6C4B00" sketch:type="MSShapeGroup"></path>
            </g>
        </g>
    </g>
</svg>