<?xml version="1.0" encoding="UTF-8" standalone="no"?>
<svg width="60px" height="61px" viewBox="0 0 60 61" version="1.1" xmlns="http://www.w3.org/2000/svg" xmlns:xlink="http://www.w3.org/1999/xlink" xmlns:sketch="http://www.bohemiancoding.com/sketch/ns">
    <!-- Generator: Sketch 3.2.2 (9983) - http://www.bohemiancoding.com/sketch -->
    <title>icon-invoicing-4</title>
    <desc>Created with Sketch.</desc>
    <defs></defs>
    <g id="Page-1" stroke="none" stroke-width="1" fill="none" fill-rule="evenodd" sketch:type="MSPage">
        <g id="Symboler-Features-sketch-2" sketch:type="MSArtboardGroup" transform="translate(-306.000000, -135.000000)">
            <g id="icon-invoicing-4" sketch:type="MSLayerGroup" transform="translate(306.000000, 135.500000)">
                <path d="M59.9460432,29.9464286 C59.9460432,13.512 46.5271942,0.189 29.9741007,0.189 C13.4210072,0.189 0.00215827338,13.512 0.00215827338,29.9464286 C0.00215827338,46.3812857 13.4210072,59.7042857 29.9741007,59.7042857 C46.5271942,59.7042857 59.9460432,46.3812857 59.9460432,29.9464286" id="Fill-1" fill="#FFBB2F" sketch:type="MSShapeGroup"></path>
                <path d="M40.5660432,17.8122857 L37.1646043,17.8122857 C36.8279137,16.8711429 35.9244604,16.1944286 34.8625899,16.1944286 L33.4165468,16.1944286 C32.9576978,15.6865714 32.2989928,15.3852857 31.6040288,15.3852857 L28.345036,15.3852857 C27.6500719,15.3852857 26.9909353,15.6865714 26.5316547,16.1944286 L25.0856115,16.1944286 C24.023741,16.1944286 23.1202878,16.8711429 22.7835971,17.8122857 L19.3821583,17.8122857 C18.9319424,17.8122857 18.5671942,18.1744286 18.5671942,18.6214286 L18.5671942,43.6988571 C18.5671942,44.1458571 18.9319424,44.508 19.3821583,44.508 L40.5660432,44.508 C41.016259,44.508 41.3810072,44.1458571 41.3810072,43.6988571 L41.3810072,18.6214286 C41.3810072,18.1744286 41.016259,17.8122857 40.5660432,17.8122857 L40.5660432,17.8122857 Z M25.0856115,17.8122857 L26.941295,17.8122857 C27.2313669,17.8122857 27.4994245,17.6588571 27.6453237,17.4102857 C27.7946763,17.1552857 28.056259,17.0035714 28.345036,17.0035714 L31.6040288,17.0035714 C31.8928058,17.0035714 32.1539568,17.1552857 32.3033094,17.4102857 C32.4492086,17.6592857 32.7176978,17.8122857 33.0077698,17.8122857 L34.8625899,17.8122857 C35.3119424,17.8122857 35.677554,18.1748571 35.677554,18.6214286 C35.677554,19.0675714 35.3119424,19.4301429 34.8625899,19.4301429 L25.0856115,19.4301429 C24.636259,19.4301429 24.2706475,19.0671429 24.2706475,18.6214286 C24.2706475,18.1748571 24.636259,17.8122857 25.0856115,17.8122857 L25.0856115,17.8122857 Z M39.7515108,42.8901429 L20.1966906,42.8901429 L20.1966906,19.4301429 L22.7835971,19.4301429 C23.1202878,20.3712857 24.023741,21.048 25.0856115,21.048 L34.8625899,21.048 C35.9244604,21.048 36.827482,20.3712857 37.1646043,19.4301429 L39.7515108,19.4301429 L39.7515108,42.8901429 L39.7515108,42.8901429 Z" id="Fill-2" fill="#6C4B00" sketch:type="MSShapeGroup"></path>
                <path d="M21.8261871,24.2841429 C21.8261871,24.7307143 22.1909353,25.0928571 22.6411511,25.0928571 L37.3070504,25.0928571 C37.7572662,25.0928571 38.1215827,24.7307143 38.1215827,24.2841429 C38.1215827,23.8371429 37.7572662,23.475 37.3070504,23.475 L22.6411511,23.475 C22.1909353,23.475 21.8261871,23.8371429 21.8261871,24.2841429" id="Fill-3" fill="#6C4B00" sketch:type="MSShapeGroup"></path>
                <path d="M37.3070504,26.7107143 L22.6411511,26.7107143 C22.1909353,26.7107143 21.8261871,27.0728571 21.8261871,27.5198571 C21.8261871,27.9664286 22.1909353,28.3285714 22.6411511,28.3285714 L37.3070504,28.3285714 C37.7572662,28.3285714 38.1215827,27.9664286 38.1215827,27.5198571 C38.1215827,27.0728571 37.7572662,26.7107143 37.3070504,26.7107143" id="Fill-4" fill="#6C4B00" sketch:type="MSShapeGroup"></path>
                <path d="M37.3070504,29.9464286 L22.6411511,29.9464286 C22.1909353,29.9464286 21.8261871,30.3085714 21.8261871,30.7555714 C21.8261871,31.2025714 22.1909353,31.5647143 22.6411511,31.5647143 L37.3070504,31.5647143 C37.7572662,31.5647143 38.1215827,31.2025714 38.1215827,30.7555714 C38.1215827,30.3085714 37.7572662,29.9464286 37.3070504,29.9464286" id="Fill-5" fill="#6C4B00" sketch:type="MSShapeGroup"></path>
                <path d="M34.0480576,33.9912857 C34.0480576,33.5447143 33.6833094,33.1825714 33.2330935,33.1825714 L22.6411511,33.1825714 C22.1909353,33.1825714 21.8261871,33.5447143 21.8261871,33.9912857 C21.8261871,34.4382857 22.1909353,34.8004286 22.6411511,34.8004286 L33.2330935,34.8004286 C33.6833094,34.8004286 34.0480576,34.4382857 34.0480576,33.9912857" id="Fill-6" fill="#6C4B00" sketch:type="MSShapeGroup"></path>
                <path d="M36.7307914,36.6552857 L34.8625899,38.5101429 L33.8093525,37.4644286 C33.4907914,37.1481429 32.9753957,37.1481429 32.6572662,37.4644286 C32.3391367,37.7807143 32.338705,38.2924286 32.6572662,38.6082857 L34.2867626,40.2261429 C34.4460432,40.3842857 34.6541007,40.4631429 34.8625899,40.4631429 C35.0710791,40.4631429 35.2795683,40.3842857 35.4388489,40.2261429 L37.8833094,37.7991429 C38.2014388,37.4832857 38.2014388,36.9711429 37.8833094,36.6557143 C37.5647482,36.3398571 37.0493525,36.3394286 36.7307914,36.6552857" id="Fill-7" fill="#6C4B00" sketch:type="MSShapeGroup"></path>
            </g>
        </g>
    </g>
</svg>