<?xml version="1.0" standalone="no"?>
<!DOCTYPE svg PUBLIC "-//W3C//DTD SVG 1.1//EN" "http://www.w3.org/Graphics/SVG/1.1/DTD/svg11.dtd" >
<svg xmlns="http://www.w3.org/2000/svg" xmlns:xlink="http://www.w3.org/1999/xlink" version="1.1">
<metadata></metadata>
<defs>
<font id="gthaptikregularregular" horiz-adv-x="1310" >
<font-face units-per-em="2048" ascent="1638" descent="-410" />
<missing-glyph horiz-adv-x="593" />
<glyph unicode="&#xfb01;" horiz-adv-x="1220" d="M31 870v154h188v57q0 102 24.5 173t67.5 115t103.5 63.5t134.5 19.5q43 0 80 -4t78 -10v-162q-39 6 -72 10t-64 4q-94 0 -135 -45t-41 -164v-57h297v-154h-297v-870h-176v870h-188zM840 1319q0 59 40 99t99 40t99 -40t40 -99t-40 -99t-99 -40t-99 40t-40 99zM891 0v1024 h176v-1024h-176z" />
<glyph unicode="&#xfb02;" horiz-adv-x="1204" d="M31 870v154h188v57q0 102 24.5 173t67.5 115t103.5 63.5t134.5 19.5q43 0 80 -4t78 -10v-162q-39 6 -72 10t-64 4q-94 0 -135 -45t-41 -164v-57h297v-154h-297v-870h-176v870h-188zM881 0v1434h180v-1434h-180z" />
<glyph unicode="&#xfb03;" horiz-adv-x="1957" d="M31 870v154h188v57q0 102 24.5 173t67.5 115t103.5 63.5t134.5 19.5q43 0 80 -4t78 -10v-162q-39 6 -72 10t-64 4q-94 0 -135 -45t-41 -164v-57h561v57q0 102 25 173t68 115t103 63.5t134 19.5q43 0 80 -4t78 -10v-162q-39 6 -72 10t-63 4q-94 0 -135 -45t-41 -164v-57 h297v-154h-297v-870h-177v870h-561v-870h-176v870h-188zM1577 1319q0 59 40 99t99 40t99 -40t40 -99t-39.5 -99t-99.5 -40q-59 0 -99 40t-40 99zM1628 0v1024h176v-1024h-176z" />
<glyph unicode="&#xfb04;" horiz-adv-x="1941" d="M31 870v154h188v57q0 102 24.5 173t67.5 115t103.5 63.5t134.5 19.5q43 0 80 -4t78 -10v-162q-39 6 -72 10t-64 4q-94 0 -135 -45t-41 -164v-57h561v57q0 102 25 173t68 115t103 63.5t134 19.5q43 0 80 -4t78 -10v-162q-39 6 -72 10t-63 4q-94 0 -135 -45t-41 -164v-57 h297v-154h-297v-870h-177v870h-561v-870h-176v870h-188zM1618 0v1434h180v-1434h-180z" />
<glyph horiz-adv-x="0" />
<glyph unicode="&#xd;" horiz-adv-x="681" />
<glyph horiz-adv-x="0" />
<glyph horiz-adv-x="0" />
<glyph unicode=" "  horiz-adv-x="593" />
<glyph unicode="&#x09;" horiz-adv-x="593" />
<glyph unicode="&#xa0;" horiz-adv-x="593" />
<glyph unicode="!" horiz-adv-x="647" d="M164 160q0 68 46 115t114 47t114.5 -47.5t46.5 -114.5q0 -68 -47 -114t-114 -46q-68 0 -114 46t-46 114zM231 451v983h185v-983h-185z" />
<glyph unicode="&#x22;" horiz-adv-x="727" d="M143 911v523h150v-523h-150zM434 911v523h150v-523h-150z" />
<glyph unicode="#" horiz-adv-x="1165" d="M61 436l17 133h215l39 295h-213l18 133h213l62 437h141l-61 -437h258l61 437h141l-61 -437h213l-17 -133h-215l-41 -295h213l-18 -133h-213l-61 -436h-140l62 436h-260l-62 -436h-139l61 436h-213zM432 569h260l39 295h-258z" />
<glyph unicode="$" horiz-adv-x="1103" d="M102 342l162 86q51 -205 221 -238v457q-66 23 -131 53.5t-117.5 76.5t-85 111.5t-32.5 158.5q0 84 28.5 150.5t78.5 115.5t117 77.5t142 39.5v167h133v-167q143 -18 243 -107.5t140 -232.5l-174 -70q-27 100 -80 153.5t-129 69.5v-446q78 -27 144.5 -59.5t116 -79 t77 -110t27.5 -151.5q0 -92 -28.5 -161.5t-79 -118.5t-117 -77t-140.5 -36v-168h-133v168q-59 8 -117.5 29.5t-109.5 61.5t-92 100.5t-64 146.5zM303 1044q0 -84 50 -127t132 -75v403q-90 -16 -136 -72.5t-46 -128.5zM618 188q86 14 133.5 65.5t47.5 137.5q0 45 -14.5 79 t-39 58.5t-57.5 42t-70 31.5v-414z" />
<glyph unicode="%" horiz-adv-x="1685" d="M72 1102q0 70 25.5 131t69.5 105t104 70t132 26q70 0 131.5 -26t105.5 -70t69.5 -105.5t25.5 -130.5q0 -72 -25.5 -132.5t-69.5 -104.5t-105.5 -69.5t-131.5 -25.5q-72 0 -132 25.5t-104 69.5t-69.5 104.5t-25.5 132.5zM207 1102q0 -86 55 -141.5t141 -55.5t141.5 55.5 t55.5 141.5t-55.5 141t-141.5 55t-141 -55t-55 -141zM258 84l1071 1350l103 -82l-1072 -1352zM950 332q0 70 25.5 131t70 105t104.5 70t132 26q70 0 131.5 -26t105.5 -70t69.5 -105.5t25.5 -130.5q0 -72 -25.5 -132.5t-69.5 -104.5t-105.5 -69.5t-131.5 -25.5 q-72 0 -132 25.5t-104.5 69.5t-70 104.5t-25.5 132.5zM1085 332q0 -86 55.5 -141.5t141.5 -55.5t141.5 55.5t55.5 141.5t-55.5 141t-141.5 55t-141.5 -55t-55.5 -141z" />
<glyph unicode="&#x26;" horiz-adv-x="1413" d="M154 383q0 80 23.5 142.5t62.5 112.5t90 91t108 78l-51 57q-49 53 -84 120t-35 153q0 68 22.5 126t65.5 101t104.5 68.5t139.5 25.5q76 0 137.5 -25.5t104.5 -69.5t66.5 -102.5t23.5 -125.5q0 -63 -19.5 -115.5t-51.5 -95.5t-74 -80t-85 -68l271 -305q16 49 26.5 99.5 t18.5 97.5l166 -33q-12 -82 -31.5 -160t-50.5 -149l178 -201l-139 -123l-137 156q-68 -84 -166.5 -133.5t-239.5 -49.5q-113 0 -196 33t-138 88.5t-82.5 129t-27.5 157.5zM338 387q0 -47 15.5 -90t47 -76t81.5 -52t120 -19q102 0 171 38.5t116 102.5l-336 385 q-106 -72 -160.5 -135.5t-54.5 -153.5zM453 1137q0 -47 22.5 -87t54.5 -79l58 -66q68 47 114 100.5t46 127.5q0 72 -43 111.5t-103 39.5q-63 0 -106 -41t-43 -106z" />
<glyph unicode="'" horiz-adv-x="436" d="M143 911v523h150v-523h-150z" />
<glyph unicode="(" horiz-adv-x="659" d="M82 641q0 283 101.5 534.5t287.5 442.5l117 -107q-82 -92 -144.5 -188t-104.5 -202.5t-63.5 -225.5t-21.5 -254q0 -270 85 -479t249 -391l-117 -107q-186 190 -287.5 442t-101.5 535z" />
<glyph unicode=")" horiz-adv-x="649" d="M72 -229q164 182 249 391t85 479q0 135 -22 254t-63.5 225.5t-104 202.5t-144.5 188l116 107q186 -190 288 -442t102 -535t-101.5 -534.5t-288.5 -442.5z" />
<glyph unicode="*" horiz-adv-x="894" d="M102 1137l45 127l234 -78v248h131v-248l236 78l45 -127l-240 -76l145 -199l-102 -80l-150 201l-147 -201l-104 80l145 199z" />
<glyph unicode="+" d="M135 559v184h428v428h185v-428h428v-184h-428v-428h-185v428h-428z" />
<glyph unicode="," horiz-adv-x="598" d="M35 -332l356 639l146 -82l-359 -635z" />
<glyph unicode="-" horiz-adv-x="1286" d="M164 541v184h958v-184h-958z" />
<glyph unicode="." horiz-adv-x="649" d="M164 160q0 68 46 115t114 47t114.5 -47.5t46.5 -114.5q0 -68 -47 -114t-114 -46q-68 0 -114 46t-46 114z" />
<glyph unicode="/" horiz-adv-x="1501" d="M41 -4l1268 1540l123 -102l-1268 -1540z" />
<glyph unicode="0" horiz-adv-x="1593" d="M123 717q0 154 52 285t143.5 227t214 150.5t264.5 54.5q141 0 264 -54.5t214 -150.5t143 -227.5t52 -284.5q0 -154 -52 -286t-143 -227t-214 -149.5t-264 -54.5t-264 54.5t-214.5 149.5t-143.5 227t-52 286zM307 717q0 -115 38 -212t103.5 -168t154.5 -112t194 -41 q104 0 193 41t154.5 112t103.5 168t38 212q0 113 -38 210t-103.5 168.5t-154.5 112.5t-193 41t-193.5 -41t-155 -112.5t-103.5 -169t-38 -209.5zM616 717q0 78 51.5 129t129.5 51t129 -51t51 -129t-51.5 -129t-128.5 -51q-78 0 -129.5 51t-51.5 129z" />
<glyph unicode="1" horiz-adv-x="958" d="M82 952l481 482h170v-1434h-184v1161l-340 -340z" />
<glyph unicode="2" horiz-adv-x="1105" d="M72 1116q31 63 76 120.5t101 101.5t126.5 70t154.5 26q94 0 177.5 -34t144.5 -92.5t96 -140.5t35 -176q0 -109 -41 -199t-98 -149l-447 -459h586v-184h-862v162l594 610q39 41 61.5 95.5t22.5 115.5q0 59 -20.5 108.5t-56.5 84t-83 54t-100 19.5q-109 0 -192 -73.5 t-126 -188.5z" />
<glyph unicode="3" horiz-adv-x="1071" d="M102 332l160 123q23 -121 95.5 -196t181.5 -75q94 0 159.5 59.5t65.5 164.5q0 104 -63.5 159.5t-149.5 59.5h-86v184h86q86 4 149.5 61.5t63.5 155.5q0 51 -18.5 92t-49 70t-71.5 44t-86 15q-104 0 -177 -75.5t-100 -186.5l-158 127q20 66 60.5 124t95.5 101t124 69 t148 26q86 0 161 -30t132.5 -83t90 -128t32.5 -165q0 -104 -43 -183t-108 -126q72 -51 111.5 -131t39.5 -185q0 -96 -32.5 -170.5t-88 -126t-130 -79t-160.5 -27.5q-82 0 -153 24.5t-127 68.5t-95 105.5t-60 133.5z" />
<glyph unicode="4" horiz-adv-x="1413" d="M61 291v170l822 973h153v-959h285v-184h-285v-291h-184v291h-791zM319 475h533v635z" />
<glyph unicode="5" horiz-adv-x="1128" d="M123 143l94 164q74 -63 153 -93t156 -30q61 0 116.5 18.5t97.5 55.5t65.5 93.5t23.5 129.5q0 141 -82.5 216t-218.5 75q-76 0 -160.5 -22.5t-162.5 -61.5v746h811v-185h-627v-311q16 4 56 11t94 7q106 0 194 -34.5t151.5 -98t97.5 -151.5t34 -195q0 -119 -41 -208 t-110.5 -149.5t-159 -90t-183.5 -29.5q-104 0 -209.5 36t-189.5 107z" />
<glyph unicode="6" horiz-adv-x="1198" d="M143 627q0 131 26 273t87 261t165.5 196t262.5 77q121 0 199 -35t131 -76l-101 -152q-47 33 -102 55.5t-133 22.5q-76 0 -134.5 -32.5t-100.5 -87t-63.5 -126t-23.5 -147.5v-4q66 45 135.5 66.5t137.5 21.5q98 0 184 -34t148.5 -94t98.5 -145t36 -190q0 -104 -36 -192 t-99.5 -150.5t-150.5 -98.5t-187 -36q-133 0 -229.5 54.5t-153.5 140.5q-51 78 -74 183t-23 249zM338 467q0 -68 23.5 -120t63.5 -89t91 -55.5t109 -18.5q61 0 114.5 20.5t91 59.5t59 92.5t21.5 118.5q0 129 -78.5 205t-205.5 76q-63 0 -116.5 -20.5t-91.5 -59.5 t-59.5 -92.5t-21.5 -116.5z" />
<glyph unicode="7" horiz-adv-x="1112" d="M82 1249v185h948v-177l-649 -1257h-207l643 1249h-735z" />
<glyph unicode="8" horiz-adv-x="1097" d="M123 401q0 104 42 183.5t120 132.5q-74 51 -118 127.5t-44 187.5q0 92 31.5 166t88 126t135.5 81t171 29t171 -29t135 -81t88 -125t32 -163q0 -199 -170 -319q170 -121 170 -320q0 -90 -32 -162.5t-88 -125t-135 -81t-171 -28.5t-171 27.5t-135.5 80t-88 127t-31.5 166.5 zM307 401q0 -98 67.5 -157.5t176.5 -59.5t174.5 59.5t65.5 157.5q0 53 -19.5 95.5t-53.5 71t-77 43t-90 14.5t-91 -14.5t-78 -43t-54.5 -70.5t-20.5 -96zM307 1032q0 -53 20.5 -95t54.5 -70.5t78 -43t91 -14.5t90 14.5t77 43t53.5 70.5t19.5 95q0 98 -66 157.5t-174 59.5 q-109 0 -176.5 -59.5t-67.5 -157.5z" />
<glyph unicode="9" horiz-adv-x="1163" d="M102 956q0 104 36 192.5t99.5 151t149.5 98.5t186 36q131 0 226.5 -54.5t154.5 -140.5q55 -84 76 -192.5t21 -255.5q0 -133 -19.5 -272.5t-78 -255.5t-167 -189.5t-288.5 -73.5q-100 0 -177 23.5t-151 64.5l78 168q135 -72 256 -72q88 0 152.5 35t106.5 91.5t59.5 127 t15.5 140.5v2q-66 -47 -133.5 -66.5t-135.5 -19.5q-98 0 -184 33.5t-148.5 94t-98.5 145.5t-36 189zM287 958q0 -129 78.5 -204.5t203.5 -75.5q63 0 116.5 20.5t92.5 59.5t60.5 91t21.5 118q0 68 -23.5 120t-63.5 88.5t-92 55t-110 18.5q-61 0 -113 -20.5t-90 -59.5 t-59.5 -92t-21.5 -119z" />
<glyph unicode=":" horiz-adv-x="649" d="M164 160q0 68 46 115t114 47t114.5 -47.5t46.5 -114.5q0 -68 -47 -114t-114 -46q-68 0 -114 46t-46 114zM164 887q0 68 46 115t114 47t114.5 -47.5t46.5 -114.5q0 -68 -47 -114t-114 -46q-68 0 -114 46t-46 114z" />
<glyph unicode=";" horiz-adv-x="774" d="M35 -332l356 639l146 -82l-359 -635zM289 887q0 68 46 115t114 47t114.5 -47.5t46.5 -114.5q0 -68 -47 -114t-114 -46q-68 0 -114 46t-46 114z" />
<glyph unicode="&#x3c;" d="M174 492v163l887 396l76 -162l-713 -316l713 -315l-76 -162z" />
<glyph unicode="=" d="M158 283v184h995v-184h-995zM158 723v184h995v-184h-995z" />
<glyph unicode="&#x3e;" d="M174 258l713 315l-713 316l76 162l887 -396v-163l-887 -396z" />
<glyph unicode="?" horiz-adv-x="1128" d="M102 958q0 102 30 189.5t87 151t140 99.5t190 36q94 0 171 -29t131 -81t84 -124t30 -160q0 -66 -15.5 -116t-43 -93t-63.5 -80.5t-77 -74.5q-29 -25 -51.5 -48.5t-39 -49t-25.5 -55t-9 -68.5v-52h-184v52q0 70 18.5 124t47 98t64.5 80t70 66q43 37 83 85t40 126 q0 43 -14 82t-43 68.5t-73 47t-103 17.5q-123 0 -193.5 -76.5t-70.5 -214.5h-181zM391 160q0 68 46 115t114 47t115 -47.5t47 -114.5q0 -68 -47.5 -114t-114.5 -46q-68 0 -114 46t-46 114z" />
<glyph unicode="@" horiz-adv-x="1923" d="M143 621q0 182 64.5 335.5t176.5 265t265.5 174t331.5 62.5q174 0 321.5 -52t253 -147.5t165 -230.5t59.5 -301q0 -246 -90.5 -391.5t-274.5 -145.5q-86 0 -138 32t-79 110q-47 -70 -115.5 -108t-164.5 -38q-68 0 -123.5 20.5t-94 56.5t-59 84t-20.5 106q0 61 22.5 109 t58 80t82.5 50.5t97 22.5l276 22q0 94 -35 132t-125 38q-76 0 -139 -33.5t-78 -111.5l-139 65q27 104 108.5 168t235.5 64q176 0 256 -88t80 -234v-268q0 -66 28.5 -98.5t75.5 -32.5q82 0 132.5 89t50.5 296q0 127 -45 232.5t-128 180t-198 116.5t-256 42q-143 0 -265 -50 t-211 -139t-139.5 -213t-50.5 -271t48.5 -271.5t134.5 -215.5t204.5 -142t262.5 -51q154 0 269.5 28.5t197.5 65.5l32 -160q-102 -43 -220 -70.5t-279 -27.5q-178 0 -329 63.5t-260.5 176t-171 267t-61.5 337.5zM791 453q0 -45 33.5 -80t107.5 -35q51 0 93 17.5t70.5 47 t45 66.5t16.5 74v49l-260 -29q-55 -6 -80.5 -38.5t-25.5 -71.5z" />
<glyph unicode="A" horiz-adv-x="1568" d="M20 0l668 1434h193l667 -1434h-202l-117 252h-889l-117 -252h-203zM426 436h717l-359 774z" />
<glyph unicode="B" horiz-adv-x="1243" d="M164 0v1434h600q82 0 154.5 -29t126 -81t85 -126t31.5 -164q0 -102 -47 -186t-127 -131q80 -47 127 -130t47 -188q0 -90 -31.5 -163.5t-85 -126t-126 -81t-154.5 -28.5h-600zM348 184h416q92 0 152.5 58.5t60.5 156.5t-57.5 162t-145.5 64h-426v-441zM348 809h426 q88 0 145.5 63.5t57.5 161.5t-60.5 156.5t-152.5 58.5h-416v-440z" />
<glyph unicode="C" horiz-adv-x="1349" d="M102 717q0 154 55.5 285t150.5 227t225.5 150.5t281.5 54.5q154 0 279 -55.5t225 -147.5l-84 -174q-78 82 -183.5 137t-244.5 55q-111 0 -206 -39t-164.5 -108.5t-109.5 -167.5t-40 -217t40 -217.5t109.5 -168t164.5 -108.5t206 -39q66 0 128 12.5t136 47.5l33 -185 q-86 -31 -155.5 -45t-141.5 -14q-145 0 -274.5 54.5t-224.5 150.5t-150.5 227t-55.5 285z" />
<glyph unicode="D" horiz-adv-x="1472" d="M164 0v1434h491q152 0 283 -54.5t227.5 -149.5t150.5 -226.5t54 -286.5q0 -156 -54 -287t-150.5 -226t-227.5 -149.5t-283 -54.5h-491zM348 184h307q115 0 212.5 39t168 109.5t110.5 169t40 215.5t-40 214t-110.5 167.5t-168 110.5t-212.5 40h-307v-1065z" />
<glyph unicode="E" horiz-adv-x="1157" d="M164 0v1434h880v-185h-696v-440h696v-184h-696v-441h696v-184h-880z" />
<glyph unicode="F" horiz-adv-x="1126" d="M164 0v1434h880v-185h-696v-440h696v-184h-696v-625h-184z" />
<glyph unicode="G" horiz-adv-x="1349" d="M102 719q0 152 55.5 283t150.5 227t225.5 150.5t281.5 54.5q154 0 279 -55.5t225 -149.5l-84 -174q-78 84 -183.5 139t-244.5 55q-111 0 -206 -39t-164.5 -108.5t-109.5 -167.5t-40 -217t40 -217.5t109.5 -168t164.5 -108.5t208 -39q39 0 67.5 4.5t61.5 12.5v370h-330 v185h514v-690q-74 -29 -152.5 -47.5t-164.5 -18.5q-145 0 -273.5 54.5t-223.5 151.5t-150.5 228t-55.5 285z" />
<glyph unicode="H" horiz-adv-x="1515" d="M164 0v1434h184v-625h819v625h185v-1434h-185v625h-819v-625h-184z" />
<glyph unicode="I" horiz-adv-x="512" d="M164 0v1434h184v-1434h-184z" />
<glyph unicode="J" horiz-adv-x="1007" d="M31 408l170 84q0 -61 14 -118t45 -99t78 -66.5t113 -24.5q61 0 105 21.5t71.5 58.5t40 85t12.5 104v981h184v-981q0 -100 -26.5 -183.5t-78.5 -143.5t-130 -93t-178 -33q-113 0 -193 38t-130 96.5t-73.5 131t-23.5 142.5z" />
<glyph unicode="K" horiz-adv-x="1325" d="M164 0v1434h184v-715l707 715h260l-619 -625l619 -809h-234l-516 676l-217 -219v-457h-184z" />
<glyph unicode="L" horiz-adv-x="1089" d="M164 0v1434h184v-1250h711v-184h-895z" />
<glyph unicode="M" horiz-adv-x="2070" d="M164 0v1434h184l688 -1196l686 1196h185v-1434h-185v1055l-606 -1055h-162l-606 1055v-1055h-184z" />
<glyph unicode="N" horiz-adv-x="1570" d="M143 0v1434h185l915 -1139v1139h184v-1434h-184l-915 1137v-1137h-185z" />
<glyph unicode="O" horiz-adv-x="1638" d="M102 717q0 154 54.5 285t150.5 227t227.5 150.5t284.5 54.5q154 0 286 -54.5t227 -150.5t149.5 -227.5t54.5 -284.5q0 -154 -54.5 -285t-149.5 -227t-227 -150.5t-286 -54.5t-285 54.5t-227 150.5t-150.5 227t-54.5 285zM287 717q0 -115 40 -213t110.5 -169t169 -111 t212.5 -40q115 0 213 40t169 111t111 169t40 213t-40 213t-111 168.5t-169 110.5t-213 40t-213 -40t-168.5 -110.5t-110.5 -169t-40 -212.5z" />
<glyph unicode="P" horiz-adv-x="1218" d="M164 0v1434h510q104 0 192 -37t152.5 -101.5t101.5 -152.5t37 -193q0 -104 -37 -193t-101.5 -153.5t-152.5 -100.5t-192 -36h-326v-467h-184zM348 651h326q61 0 116.5 22.5t95.5 62.5t63.5 94t23.5 120t-23.5 120t-63.5 94t-95.5 62.5t-116.5 22.5h-326v-598z" />
<glyph unicode="Q" horiz-adv-x="1710" d="M102 717q0 154 54.5 285t150.5 227t227.5 150.5t284.5 54.5q154 0 286 -54.5t227 -150.5t149.5 -227.5t54.5 -284.5q0 -131 -39 -245t-111 -206l365 -364l-129 -129l-367 366q-90 -66 -199.5 -102.5t-236.5 -36.5q-154 0 -285 54.5t-227 150.5t-150.5 227t-54.5 285z M287 717q0 -115 40 -213t110.5 -169t168.5 -111t213 -40q174 0 303 88l-401 402l129 129l403 -404q98 133 99 318q0 115 -40 213t-111 168.5t-169 110.5t-213 40t-213 -40t-168.5 -110.5t-110.5 -169t-40 -212.5z" />
<glyph unicode="R" horiz-adv-x="1378" d="M164 0v1434h551q104 0 192 -36t152.5 -100.5t101.5 -152.5t37 -193q0 -147 -68.5 -257.5t-185.5 -170.5l424 -524h-242l-378 471h-33h-367v-471h-184zM348 655h252l-82 103l144 114l159 -198q86 31 139.5 104.5t53.5 173.5q0 66 -23.5 120t-64.5 94t-95.5 61.5 t-115.5 21.5h-367v-594z" />
<glyph unicode="S" horiz-adv-x="1062" d="M82 342l162 86q29 -119 100.5 -181.5t192.5 -62.5q111 0 176 53.5t65 153.5q0 57 -21.5 95t-57 65t-81 43t-94.5 33q-70 23 -145.5 52.5t-138 76.5t-102.5 118t-40 173q0 92 35 164.5t94.5 121.5t138 75t164.5 26q170 0 287 -92.5t164 -251.5l-174 -70 q-33 123 -104.5 176t-176.5 53q-121 0 -182 -59.5t-61 -145.5q0 -53 21.5 -88.5t59 -62.5t90 -46.5t111.5 -39.5q84 -29 157 -60.5t126 -77.5t84 -111.5t31 -160.5q0 -102 -35 -177t-93.5 -124t-135 -72.5t-160.5 -23.5q-66 0 -135.5 16.5t-132 55.5t-112.5 105.5t-77 164.5 z" />
<glyph unicode="T" horiz-adv-x="1333" d="M10 1249v185h1313v-185h-565v-1249h-185v1249h-563z" />
<glyph unicode="U" horiz-adv-x="1597" d="M143 655v779h185v-779q0 -100 35.5 -186t99 -149.5t149.5 -99.5t187 -36q100 0 186 36t149.5 99.5t99.5 149.5t36 186v779h184v-779q0 -139 -50 -259t-138 -208t-208 -138t-259 -50t-259 50t-208 138t-138.5 208t-50.5 259z" />
<glyph unicode="V" horiz-adv-x="1523" d="M10 1434h205l549 -1155l545 1155h204l-682 -1434h-139z" />
<glyph unicode="W" horiz-adv-x="2498" d="M20 1434h199l445 -1119l497 1119h176l498 -1119l444 1119h199l-569 -1434h-135l-525 1174l-524 -1174h-135z" />
<glyph unicode="X" horiz-adv-x="1458" d="M31 0l579 717l-579 717h235l463 -572l463 572h235l-579 -717l579 -717h-237l-461 569l-461 -569h-237z" />
<glyph unicode="Y" horiz-adv-x="1355" d="M10 1434h226l442 -639l442 639h226l-576 -830v-604h-184v604z" />
<glyph unicode="Z" horiz-adv-x="1355" d="M102 0v141l877 1108h-877v185h1151v-142l-876 -1108h876v-184h-1151z" />
<glyph unicode="[" horiz-adv-x="696" d="M225 -274v1833h410v-152h-246v-1530h246v-151h-410z" />
<glyph unicode="\" horiz-adv-x="1501" d="M41 1434l123 102l1268 -1540l-123 -102z" />
<glyph unicode="]" horiz-adv-x="696" d="M61 -123h246v1530h-246v152h410v-1833h-410v151z" />
<glyph unicode="^" horiz-adv-x="794" d="M41 1026l278 485h156l279 -485l-133 -70l-224 396l-223 -396z" />
<glyph unicode="_" horiz-adv-x="1224" d="M61 20h1102v-184h-1102v184z" />
<glyph unicode="`" horiz-adv-x="720" d="M102 1442l84 129l432 -279l-79 -123z" />
<glyph unicode="a" horiz-adv-x="1054" d="M92 297q0 72 24.5 127t69.5 95t104.5 63.5t131.5 29.5l289 29q66 6 65 55v27q0 76 -56 122t-171 46q-106 0 -177 -44t-87 -140l-156 84q29 115 127 186.5t285 71.5q213 0 312 -99.5t99 -283.5v-666h-176v145q-53 -78 -139 -121.5t-197 -43.5q-84 0 -148.5 24.5 t-108.5 66.5t-67.5 100t-23.5 126zM276 295q0 -66 48.5 -108t142.5 -42q74 0 131 24t97 62.5t60.5 86t20.5 96.5v75l-334 -40q-86 -10 -126 -53.5t-40 -100.5z" />
<glyph unicode="b" horiz-adv-x="1234" d="M143 0v1434h176v-560q63 78 150.5 126.5t210.5 48.5q104 0 195.5 -38t157 -107.5t103.5 -169t38 -222.5t-38 -222.5t-103.5 -169t-157 -107.5t-195.5 -38q-125 0 -214 48.5t-147 123.5v-147h-176zM307 512q0 -170 92.5 -271.5t249.5 -101.5q80 0 143.5 28t107.5 77 t67.5 117.5t23.5 150.5t-23.5 150.5t-67.5 117.5t-107.5 77t-143.5 28q-158 0 -250 -101.5t-92 -271.5z" />
<glyph unicode="c" horiz-adv-x="1019" d="M61 510q0 115 38 213t109 171t170 114t222 41q119 0 210 -39t163 -111l-115 -135q-53 49 -117.5 82t-150.5 33q-74 0 -137.5 -26t-109.5 -73t-72.5 -114.5t-26.5 -153.5q0 -84 26.5 -151.5t72.5 -115.5t108.5 -74t136.5 -26q92 0 161.5 36t122.5 85l107 -137 q-66 -66 -162 -110t-227 -44q-121 0 -219.5 40t-167 112t-105.5 169t-37 214z" />
<glyph unicode="d" horiz-adv-x="1234" d="M61 512q0 123 38 222.5t103.5 169t157 107.5t195.5 38q123 0 210 -48.5t150 -126.5v560h177v-1434h-177v147q-57 -76 -146 -124t-214 -48q-104 0 -195.5 38t-157 107.5t-103.5 169t-38 222.5zM244 512q0 -82 23.5 -150.5t67.5 -117.5t107.5 -77t143.5 -28 q158 0 250 101.5t92 271.5t-92 271.5t-250 101.5q-80 0 -143.5 -28t-107.5 -77t-67.5 -117.5t-23.5 -150.5z" />
<glyph unicode="e" horiz-adv-x="1110" d="M61 504q0 113 36 212t101.5 173t159 117t209.5 43q121 0 213 -41t153.5 -114t93.5 -171t32 -211v-53h-819v-2q4 -78 32.5 -137.5t73.5 -99.5t104.5 -60.5t124.5 -20.5q113 0 193 47t133 111l92 -137q-31 -35 -71.5 -68t-92 -59.5t-113 -42t-132.5 -15.5q-117 0 -212.5 37 t-165 105.5t-107.5 167t-38 219.5zM248 600h618q-12 129 -84.5 207t-212.5 78q-145 0 -224 -78t-97 -207z" />
<glyph unicode="f" horiz-adv-x="737" d="M31 870v154h188v57q0 102 24.5 173t67.5 115t103.5 63.5t134.5 19.5q43 0 80 -4t78 -10v-162q-39 6 -72 10t-64 4q-94 0 -135 -45t-41 -164v-57h297v-154h-297v-870h-176v870h-188z" />
<glyph unicode="g" horiz-adv-x="1255" d="M82 512q0 123 38 222.5t105.5 169t158.5 107.5t198 38q129 0 219 -48.5t135 -115.5v139h176v-969q0 -92 -20.5 -180t-75.5 -156.5t-151.5 -111.5t-246.5 -43q-96 0 -169.5 18.5t-129 51t-96.5 79.5t-69 103l137 108q49 -98 131 -151.5t211 -53.5q96 0 156.5 29t94.5 77 t46 108.5t12 121.5v84q-49 -72 -142 -118t-216 -46q-115 0 -207 38t-157.5 107.5t-101.5 169t-36 222.5zM264 512q0 -82 24.5 -150.5t69.5 -117.5t109.5 -77t144.5 -28q158 0 247 101.5t89 271.5t-89 271.5t-247 101.5q-80 0 -144.5 -28t-109.5 -77t-69.5 -117.5 t-24.5 -150.5z" />
<glyph unicode="h" horiz-adv-x="1161" d="M143 0v1434h176v-545q117 160 334 160q98 0 171 -33t120 -91.5t70.5 -141.5t23.5 -181v-602h-180v610q0 127 -61.5 201t-178.5 74q-88 0 -146 -32t-92 -86t-47.5 -129t-13.5 -161v-477h-176z" />
<glyph unicode="i" horiz-adv-x="483" d="M102 1319q0 59 40 99t100 40q59 0 99 -40t40 -99t-40 -99t-99 -40t-99.5 40t-40.5 99zM154 0v1024h176v-1024h-176z" />
<glyph unicode="j" horiz-adv-x="522" d="M-61 -248h8q74 0 120 13.5t71.5 40t34.5 62.5t9 83v1073h176v-1073q0 -92 -21.5 -162t-69.5 -116t-127 -68.5t-193 -22.5h-8v170zM131 1319q0 59 40 99t99 40t99.5 -40t40.5 -99t-40 -99t-100 -40q-59 0 -99 40t-40 99z" />
<glyph unicode="k" horiz-adv-x="1054" d="M143 0v1434h176v-906l467 496h248l-442 -446l442 -578h-229l-332 457l-154 -156v-301h-176z" />
<glyph unicode="l" horiz-adv-x="466" d="M143 0v1434h181v-1434h-181z" />
<glyph unicode="m" horiz-adv-x="1896" d="M143 0v1024h170v-143q47 78 129 123t197 45q131 0 213 -55.5t123 -147.5q59 90 147 146.5t234 56.5q106 0 182 -33t124 -93.5t69.5 -144.5t21.5 -188v-590h-178v612q0 133 -59.5 203t-178.5 70q-88 0 -146 -32t-93 -86t-49.5 -129t-14.5 -161v-477h-176v612 q0 133 -60.5 203t-181.5 70q-88 0 -145 -32t-91 -87t-47.5 -130t-13.5 -159v-477h-176z" />
<glyph unicode="n" horiz-adv-x="1181" d="M143 0v1024h170v-137q61 86 150.5 124t189.5 38q98 0 171 -33t120 -91.5t70.5 -141.5t23.5 -181v-602h-180v610q0 135 -66.5 205t-175.5 70q-88 0 -145 -32t-91 -86t-47.5 -129t-13.5 -161v-477h-176z" />
<glyph unicode="o" horiz-adv-x="1196" d="M61 512q0 115 41 213t113 170t170 113t213 41t213 -41t170 -113t113 -170t41 -213t-41 -213t-113 -170t-170 -113t-213 -41t-213 41t-170 113t-113 170t-41 213zM244 512q0 -80 25.5 -147.5t71.5 -115.5t111.5 -76t145.5 -28t145.5 28t111.5 76t71.5 115.5t25.5 147.5 t-25.5 147.5t-71.5 115.5t-111.5 76t-145.5 28t-145.5 -28t-111.5 -76t-71.5 -115.5t-25.5 -147.5z" />
<glyph unicode="p" horiz-adv-x="1234" d="M143 -410v1434h176v-147q57 76 146.5 124t214.5 48q104 0 195.5 -38t157 -107.5t103.5 -169t38 -222.5t-38 -222.5t-103.5 -169t-157 -107.5t-195.5 -38q-123 0 -210 48.5t-151 126.5v-560h-176zM307 512q0 -170 92 -271.5t250 -101.5q80 0 143.5 28t107.5 77t67.5 117.5 t23.5 150.5t-23.5 150.5t-67.5 117.5t-107.5 77t-143.5 28q-158 0 -250 -101.5t-92 -271.5z" />
<glyph unicode="q" horiz-adv-x="1234" d="M61 512q0 123 38 222.5t103.5 169t157 107.5t195.5 38q125 0 214 -48.5t146 -123.5v147h177v-1434h-177v560q-63 -78 -150 -126.5t-210 -48.5q-104 0 -195.5 38t-157 107.5t-103.5 169t-38 222.5zM244 512q0 -82 23.5 -150.5t67.5 -117.5t107.5 -77t143.5 -28 q158 0 250 101.5t92 271.5t-92.5 271.5t-249.5 101.5q-80 0 -143.5 -28t-107.5 -77t-67.5 -117.5t-23.5 -150.5z" />
<glyph unicode="r" horiz-adv-x="763" d="M143 0v1024h170v-154q47 86 124 132.5t186 46.5q27 0 51 -3.5t49 -7.5v-186q-27 6 -50.5 9t-51.5 3q-86 0 -143.5 -27.5t-93.5 -78.5t-50.5 -123t-14.5 -158v-477h-176z" />
<glyph unicode="s" horiz-adv-x="948" d="M51 215l146 92q47 -96 132 -132t179 -36q100 0 156.5 35t56.5 107q0 39 -16.5 63.5t-46 40.5t-71.5 27.5t-93 21.5q-63 12 -131 31.5t-124.5 53.5t-93 88t-36.5 138q0 135 101 219.5t282 84.5q154 0 251 -59.5t154 -162.5l-145 -92q-33 63 -95.5 106.5t-169.5 43.5 q-86 0 -144 -34t-58 -95q0 -37 18.5 -60.5t51 -41t76.5 -29t97 -23.5q63 -14 129 -30.5t119 -49.5t87 -87t34 -142q0 -82 -29.5 -142.5t-83 -99.5t-125 -57.5t-155.5 -18.5q-72 0 -139.5 13.5t-127 43t-107.5 75t-79 108.5z" />
<glyph unicode="t" horiz-adv-x="743" d="M31 870v154h202v274h177v-274h280v-154h-280v-594q0 -59 25.5 -90.5t90.5 -31.5q49 0 87 4t79 12v-156q-41 -10 -84 -17t-92 -7q-141 0 -212 66.5t-71 230.5v583h-202z" />
<glyph unicode="u" horiz-adv-x="1167" d="M143 418v606h181v-606q0 -61 10 -112.5t36.5 -88.5t71.5 -57.5t115 -20.5q88 0 144.5 34t89 90t45 130t12.5 154v477h176v-1024h-170v147q-59 -86 -135 -129t-193 -43q-109 0 -181.5 34t-117.5 92.5t-64.5 139.5t-19.5 177z" />
<glyph unicode="v" horiz-adv-x="1081" d="M20 1024h207l314 -782l315 782h205l-451 -1024h-139z" />
<glyph unicode="w" horiz-adv-x="1773" d="M20 1024h201l291 -760l311 760h127l312 -760l290 760h201l-420 -1024h-135l-311 735l-312 -735h-135z" />
<glyph unicode="x" horiz-adv-x="1064" d="M20 0l404 512l-404 512h218l294 -375l295 375h217l-403 -512l403 -512h-217l-295 375l-294 -375h-218z" />
<glyph unicode="y" horiz-adv-x="1075" d="M20 1024h213l328 -684l318 684h186l-662 -1434h-190l254 545z" />
<glyph unicode="z" horiz-adv-x="929" d="M61 0v158l570 702h-551v164h768v-158l-569 -702h589v-164h-807z" />
<glyph unicode="{" horiz-adv-x="774" d="M123 569v152q102 6 161.5 55t59.5 135v328q0 172 91 246t243 74h55v-154h-65q-70 0 -117 -39t-47 -117v-342q0 -92 -36 -155.5t-128 -98.5q92 -35 128 -96t36 -154v-368q0 -78 47 -117t117 -39h65v-153h-55q-152 0 -243 73.5t-91 245.5v338q0 86 -59.5 133t-161.5 53z " />
<glyph unicode="|" horiz-adv-x="563" d="M205 -274v1833h153v-1833h-153z" />
<glyph unicode="}" horiz-adv-x="774" d="M41 -121h65q70 0 117 39t47 117v368q0 92 36 153.5t128 96.5q-92 35 -128 98.5t-36 155.5v342q0 78 -47 117t-117 39h-65v154h55q76 0 137.5 -17.5t105.5 -56.5t67.5 -99.5t23.5 -146.5v-328q0 -86 59.5 -135t161.5 -55v-152q-102 -6 -161.5 -53t-59.5 -133v-338 q0 -86 -23.5 -146.5t-67.5 -99.5t-105.5 -56t-137.5 -17h-55v153z" />
<glyph unicode="~" horiz-adv-x="1398" d="M143 629q68 66 152 116t182 50q70 0 130.5 -25t115.5 -54.5t105.5 -54t97.5 -24.5q59 0 117.5 36t105.5 83l106 -111q-72 -68 -154.5 -121t-180.5 -53q-68 0 -127.5 24.5t-114.5 54.5t-106.5 54.5t-98.5 24.5q-59 0 -117.5 -36t-105.5 -83z" />
<glyph unicode="&#xa1;" horiz-adv-x="647" d="M164 864q0 68 46 114t114 46t114.5 -46t46.5 -114t-47 -115t-114 -47q-68 0 -114 47.5t-46 114.5zM231 -410v983h185v-983h-185z" />
<glyph unicode="&#xa2;" horiz-adv-x="1019" d="M61 510q0 104 31 194.5t89.5 160t140 115.5t184.5 62v185h133v-180q104 -6 186 -44t148 -104l-115 -135q-47 41 -99 71.5t-120 38.5v-724q72 10 129 42.5t104 73.5l107 -137q-59 -59 -143 -101t-197 -51v-176h-133v181q-102 12 -185 57t-140.5 114.5t-88.5 161t-31 195.5 zM244 512q0 -143 72.5 -237.5t189.5 -120.5v716q-117 -27 -189.5 -119t-72.5 -239z" />
<glyph unicode="&#xa3;" horiz-adv-x="1255" d="M123 655v154h201v215q0 86 23.5 161t72.5 130t122.5 87t174.5 32q72 0 130 -20.5t103 -52.5t78 -73t51 -84l-155 -110q-25 72 -80.5 119t-126.5 47q-98 0 -153.5 -59.5t-55.5 -176.5v-215h399v-154h-399v-276q0 -92 -33 -140.5t-63 -64.5h399q109 0 186.5 51t122.5 125 l94 -164q-29 -39 -66.5 -72.5t-85.5 -59t-110.5 -40t-140.5 -14.5h-668v168q86 10 133.5 62.5t47.5 148.5v276h-201z" />
<glyph unicode="&#xa4;" horiz-adv-x="1114" d="M41 293l170 172q-41 53 -62.5 116.5t-21.5 135.5t21.5 137.5t62.5 118.5l-156 153l97 91l151 -154q53 41 117.5 62.5t136.5 21.5t136.5 -21.5t117.5 -62.5l152 154l94 -91l-156 -153q86 -111 86 -256q0 -72 -21.5 -135.5t-60.5 -116.5l168 -172l-90 -90l-170 170 q-53 -41 -118.5 -62.5t-137.5 -21.5t-136.5 21.5t-117.5 60.5l-172 -168zM301 717q0 -53 20.5 -99.5t55.5 -80t81 -54t99 -20.5q51 0 98 20.5t82 54t55.5 80t20.5 99.5t-20.5 99t-55.5 81t-82 55.5t-98 20.5q-53 0 -99 -20.5t-81 -55.5t-55.5 -81t-20.5 -99z" />
<glyph unicode="&#xa5;" horiz-adv-x="1355" d="M10 1434h226l442 -639l442 639h226l-476 -686h285v-144h-385v-141h385v-144h-385v-319h-184v319h-385v144h385v141h-385v144h284z" />
<glyph unicode="&#xa6;" horiz-adv-x="563" d="M205 -274v856h153v-856h-153zM205 764v795h153v-795h-153z" />
<glyph unicode="&#xa7;" horiz-adv-x="1056" d="M102 565q0 111 53.5 188.5t141.5 120.5q-51 41 -83 100.5t-32 145.5q0 78 28 140.5t78 106.5t117.5 67.5t147.5 23.5q119 0 213 -54t149 -167l-145 -92q-33 74 -93.5 111.5t-131.5 37.5q-88 0 -137.5 -46t-49.5 -118q0 -66 44 -105.5t111 -70t143.5 -60.5t143 -73 t110.5 -107.5t44 -166.5q0 -104 -49 -183t-141 -126q49 -41 79.5 -98.5t30.5 -143.5q0 -74 -25.5 -136.5t-72.5 -108.5t-115.5 -72.5t-154.5 -26.5q-121 0 -215 54t-150 167l146 92q33 -74 92 -111.5t131 -37.5q90 0 139 48t49 122q0 66 -44 106.5t-110.5 71.5t-143 59.5 t-143.5 71.5t-111 106.5t-44 163.5zM276 580q0 -53 30 -89t77 -64t107.5 -50.5t119.5 -48.5q70 29 120 80t50 122q0 53 -28.5 90t-75.5 65t-105.5 50t-117.5 49q-72 -29 -124.5 -80t-52.5 -124z" />
<glyph unicode="&#xa8;" horiz-adv-x="897" d="M102 1319q0 59 40 99t100 40q59 0 99 -40t40 -99t-40 -99t-99 -40t-99.5 40t-40.5 99zM516 1319q0 59 40 99t99 40t99.5 -40t40.5 -99t-40 -99t-100 -40q-59 0 -99 40t-40 99z" />
<glyph unicode="&#xa9;" horiz-adv-x="1687" d="M102 717q0 158 56.5 294t155 235.5t234.5 155.5t296 56t296 -56t234.5 -155.5t154.5 -236t56 -293.5q0 -158 -56 -294t-154.5 -235.5t-234.5 -156t-296 -56.5t-296 56.5t-234.5 156t-155 235.5t-56.5 294zM246 717q0 -129 45 -238.5t125 -189.5t189.5 -125t238.5 -45 t238.5 45t189.5 125t125 189.5t45 238.5t-45 238.5t-125 189.5t-189.5 125t-238.5 45t-238.5 -45t-189.5 -125t-125 -189.5t-45 -238.5zM438 725q0 86 31 159.5t85 128t128 85t160 30.5q88 0 159.5 -32.5t135.5 -96.5l-60 -129q-98 119 -237 119q-113 0 -187.5 -71.5 t-74.5 -192.5q0 -59 19 -108.5t55 -85t84 -55t108 -19.5q63 0 123.5 28.5t109.5 81.5l60 -129q-63 -59 -135 -89t-158 -30t-161 31t-129 85t-85 129t-31 161z" />
<glyph unicode="&#xaa;" horiz-adv-x="903" d="M102 913q0 59 21.5 104.5t57.5 75t79 45t86 19.5l295 25q0 92 -38 130t-130 38q-80 0 -132 -31t-71 -105l-143 76q29 92 107.5 147.5t226.5 55.5q176 0 258 -81t82 -234v-502h-160v110q-39 -59 -104.5 -93t-153.5 -34q-129 0 -205 72t-76 182zM266 911q0 -45 36 -72.5 t104 -27.5q49 0 92 16.5t74.5 43t50 61.5t18.5 72v38l-270 -28q-53 -8 -79 -37t-26 -66z" />
<glyph unicode="&#xab;" horiz-adv-x="1153" d="M82 532l379 431l117 -107l-293 -324l293 -325l-117 -105zM496 532l378 431l117 -107l-293 -324l293 -325l-117 -105z" />
<glyph unicode="&#xac;" d="M186 582v184h938v-520h-186v336h-752z" />
<glyph unicode="&#xad;" horiz-adv-x="1081" d="M164 541v184h754v-184h-754z" />
<glyph unicode="&#xae;" horiz-adv-x="1687" d="M102 717q0 158 56.5 294t155 235.5t234.5 155.5t296 56t296 -56t234.5 -155.5t154.5 -236t56 -293.5q0 -158 -56 -294t-154.5 -235.5t-234.5 -156t-296 -56.5t-296 56.5t-234.5 156t-155 235.5t-56.5 294zM246 717q0 -129 45 -238.5t125 -189.5t189.5 -125t238.5 -45 t238.5 45t189.5 125t125 189.5t45 238.5t-45 238.5t-125 189.5t-189.5 125t-238.5 45t-238.5 -45t-189.5 -125t-125 -189.5t-45 -238.5zM592 344v776h303q55 0 103.5 -18.5t83 -51t55 -78.5t20.5 -100q0 -100 -50 -159.5t-130 -77.5l178 -291h-154l-165 279l2 2h-119v-281 h-127zM719 750h176q57 0 96 27t39 95q0 53 -39 88t-96 35h-176v-245z" />
<glyph unicode="&#xaf;" horiz-adv-x="819" d="M102 1264v143h615v-143h-615z" />
<glyph unicode="&#xb0;" horiz-adv-x="757" d="M102 1208q0 57 21.5 105.5t58.5 84.5t87 56.5t110 20.5q59 0 109.5 -20.5t87 -56.5t58 -84t21.5 -106q0 -57 -21.5 -105t-58 -84t-87 -56.5t-109.5 -20.5t-109.5 20.5t-87.5 56.5t-58.5 84t-21.5 105zM221 1208q0 -68 43 -112.5t115 -44.5t115 44.5t43 112.5t-43 113 t-115 45t-115 -45t-43 -113z" />
<glyph unicode="&#xb1;" d="M172 174v180h967v-180h-967zM172 723v180h395v285h176v-285h396v-180h-396v-285h-176v285h-395z" />
<glyph unicode="&#xb2;" horiz-adv-x="729" d="M61 1493q16 31 42 64.5t63 60.5t84 44t106 17q125 0 204 -75.5t79 -196.5q0 -72 -27.5 -128t-68.5 -95l-211 -209h307v-156h-553v127l338 332q27 25 43 55.5t16 65.5q0 57 -36.5 91t-92.5 34q-61 0 -106 -39t-70 -90z" />
<glyph unicode="&#xb3;" horiz-adv-x="714" d="M66 977l112 113q23 -55 68 -85t98 -30t87 26.5t34 73.5q0 45 -32 70.5t-85 28.5h-61v153h61q53 2 85 27.5t32 70.5q0 47 -34 73t-87 26t-97 -30t-69 -83l-112 115q33 63 104.5 108t169.5 45q129 0 205 -67.5t76 -171.5q0 -74 -35 -121t-78 -70q47 -23 80 -69.5t33 -120.5 q0 -111 -75 -175.5t-204 -64.5q-102 0 -174 46t-102 112z" />
<glyph unicode="&#xb4;" horiz-adv-x="720" d="M102 1292l433 279l83 -129l-436 -273z" />
<glyph unicode="&#xb5;" d="M215 -410v1434h180v-606q0 -61 10.5 -112.5t37 -88.5t71.5 -57.5t115 -20.5q88 0 144 34t89 90t45.5 130t12.5 154v477h176v-1024h-170v147q-59 -86 -135 -129t-193 -43q-127 0 -209 48v-433h-174z" />
<glyph unicode="&#xb6;" horiz-adv-x="1036" d="M61 1053q0 80 29 149.5t80 120.5t120.5 81t151.5 30h533v-1708h-160v1554h-213v-1554h-160v946q-82 0 -151.5 29.5t-120.5 81t-80 121t-29 149.5z" />
<glyph unicode="&#xb7;" horiz-adv-x="731" d="M205 709q0 68 46 114.5t114 46.5t114.5 -47t46.5 -114q0 -68 -47 -114t-114 -46q-68 0 -114 46t-46 114z" />
<glyph unicode="&#xb8;" horiz-adv-x="487" d="M102 -203q23 -6 42.5 -10t35.5 -4q29 0 47.5 15.5t18.5 54.5q0 37 -24.5 88t-90.5 120h139q66 -70 90.5 -123t24.5 -104q0 -88 -53 -132t-125 -44q-23 0 -50.5 5t-54.5 15v119z" />
<glyph unicode="&#xb9;" horiz-adv-x="634" d="M53 1380l303 299h133v-860h-153v623l-176 -172z" />
<glyph unicode="&#xba;" horiz-adv-x="1060" d="M102 1075q0 86 34 163t91.5 133t135 89t167.5 33q88 0 167 -33t136.5 -89t91 -133t33.5 -163t-33.5 -162.5t-91 -133t-136.5 -89.5t-167 -33q-90 0 -167.5 33t-135 89.5t-91.5 133t-34 162.5zM276 1075q0 -53 18.5 -100t52.5 -82t81 -55.5t102 -20.5t102.5 20.5 t81.5 55.5t53 82t19 100t-19 100.5t-53 82t-81 55t-103 20.5q-55 0 -102 -20.5t-81 -55t-52.5 -82t-18.5 -100.5z" />
<glyph unicode="&#xbb;" horiz-adv-x="1155" d="M164 207l293 325l-293 324l117 107l378 -431l-378 -430zM578 207l292 325l-292 324l116 107l379 -431l-379 -430z" />
<glyph unicode="&#xbc;" horiz-adv-x="1783" d="M102 1135l304 299h133v-861h-154v623l-176 -172zM315 84l1071 1350l103 -82l-1071 -1352zM932 147v136l481 577h129v-559h139v-154h-139v-147h-156v147h-454zM1151 301h235v287z" />
<glyph unicode="&#xbd;" horiz-adv-x="1718" d="M102 1135l304 299h133v-861h-154v623l-176 -172zM262 84l1071 1350l103 -82l-1071 -1352zM1038 674q16 31 42 64.5t63 60t84 44t106 17.5q125 0 204 -75.5t79 -196.5q0 -72 -27.5 -128.5t-68.5 -94.5l-211 -209h307v-156h-553v127l338 332q27 25 43 55.5t16 65.5 q0 57 -37 91t-92 34q-61 0 -106 -39t-70 -91z" />
<glyph unicode="&#xbe;" horiz-adv-x="1769" d="M102 731l113 113q23 -55 68 -85t98 -30t87 26.5t34 73.5q0 45 -32 71t-85 28h-61v153h61q53 2 85 28t32 71q0 47 -34 72.5t-87 25.5t-97 -29.5t-69 -83.5l-113 115q33 63 105 108.5t170 45.5q129 0 204.5 -68t75.5 -172q0 -74 -34.5 -121t-77.5 -69q47 -23 79.5 -70 t32.5 -121q0 -111 -74.5 -175.5t-203.5 -64.5q-102 0 -174 46.5t-103 111.5zM352 84l1071 1350l103 -82l-1071 -1352zM918 147v136l481 577h129v-559h139v-154h-139v-147h-156v147h-454zM1137 301h235v287z" />
<glyph unicode="&#xbf;" horiz-adv-x="1128" d="M164 -16q0 63 15.5 114.5t43 94.5t63.5 80.5t76 74.5q27 25 50.5 48.5t40 49t25.5 55t9 68.5v52h185v-52q0 -70 -18.5 -124t-47 -98t-64.5 -80t-71 -66q-43 -37 -83 -85t-40 -126q0 -43 14.5 -82t43 -68.5t72.5 -47t104 -17.5q123 0 193.5 76.5t70.5 214.5h180 q0 -102 -29.5 -189.5t-87 -151t-140.5 -99.5t-189 -36q-94 0 -171 29t-131.5 81t-84 124t-29.5 160zM416 864q0 68 47 114t115 46t113.5 -46t45.5 -114t-45.5 -115t-113.5 -47t-115 47.5t-47 114.5z" />
<glyph unicode="&#xc0;" horiz-adv-x="1568" d="M20 0l668 1434h193l667 -1434h-202l-117 252h-889l-117 -252h-203zM426 436h717l-359 774zM512 1729l84 129l432 -279l-80 -123z" />
<glyph unicode="&#xc1;" horiz-adv-x="1568" d="M20 0l668 1434h193l667 -1434h-202l-117 252h-889l-117 -252h-203zM426 436h717l-359 774zM559 1579l432 279l84 -129l-436 -273z" />
<glyph unicode="&#xc2;" horiz-adv-x="1568" d="M20 0l668 1434h193l667 -1434h-202l-117 252h-889l-117 -252h-203zM424 1571l360 309l361 -309l-96 -107l-265 230l-264 -230zM426 436h717l-359 774z" />
<glyph unicode="&#xc3;" horiz-adv-x="1568" d="M20 0l668 1434h193l667 -1434h-202l-117 252h-889l-117 -252h-203zM426 436h717l-359 774zM455 1620q20 25 45.5 50.5t53.5 45t57.5 32.5t60.5 13q37 0 70.5 -15t63.5 -32.5t55.5 -33t47.5 -15.5q29 0 57.5 24.5t57.5 55.5l98 -94q-20 -25 -45.5 -50.5t-53.5 -45 t-57.5 -33t-60.5 -13.5q-37 0 -70.5 15.5t-63.5 33t-55.5 33t-47.5 15.5q-29 0 -57.5 -25t-57.5 -55z" />
<glyph unicode="&#xc4;" horiz-adv-x="1568" d="M20 0l668 1434h193l667 -1434h-202l-117 252h-889l-117 -252h-203zM426 436h717l-359 774zM438 1640q0 59 40 99.5t100 40.5q59 0 99 -40t40 -100q0 -59 -40 -99t-99 -40t-99.5 40t-40.5 99zM852 1640q0 59 40 99.5t99 40.5t99 -40t40 -100q0 -59 -39.5 -99t-99.5 -40 q-59 0 -99 40t-40 99z" />
<glyph unicode="&#xc5;" horiz-adv-x="1568" d="M20 0l633 1360q-43 29 -68.5 77t-25.5 109q0 98 63.5 163t161.5 65t162 -64.5t64 -163.5q0 -61 -26 -109t-69 -77l633 -1360h-202l-117 252h-889l-117 -252h-203zM426 436h717l-359 774zM676 1546q0 -49 29.5 -80.5t78.5 -31.5t79 31.5t30 80.5t-29.5 81t-79.5 32 q-49 0 -78.5 -32t-29.5 -81z" />
<glyph unicode="&#xc6;" horiz-adv-x="2011" d="M10 0l908 1434h100v-181l-516 -817h516v998h880v-185h-696v-440h696v-184h-696v-441h696v-184h-880v252h-631l-160 -252h-217z" />
<glyph unicode="&#xc7;" horiz-adv-x="1349" d="M102 717q0 154 55.5 285t150.5 227t225.5 150.5t281.5 54.5q154 0 279 -55.5t225 -147.5l-84 -174q-78 82 -183.5 137t-244.5 55q-111 0 -206 -39t-164.5 -108.5t-109.5 -167.5t-40 -217t40 -217.5t109.5 -168t164.5 -108.5t206 -39q66 0 128 12.5t136 47.5l33 -185 q-115 -41 -209 -53q37 -49 51.5 -90t14.5 -82q0 -88 -53.5 -132t-125.5 -44q-23 0 -50 5t-54 15v119q23 -6 42 -10t36 -4q29 0 47 15.5t18 54.5q0 29 -14 65.5t-49 83.5q-137 8 -257 66.5t-208 153.5t-139.5 221t-51.5 274z" />
<glyph unicode="&#xc8;" horiz-adv-x="1157" d="M164 0v1434h880v-185h-696v-440h696v-184h-696v-441h696v-184h-880zM330 1729l84 129l432 -279l-80 -123z" />
<glyph unicode="&#xc9;" horiz-adv-x="1157" d="M164 0v1434h880v-185h-696v-440h696v-184h-696v-441h696v-184h-880zM377 1579l432 279l84 -129l-436 -273z" />
<glyph unicode="&#xca;" horiz-adv-x="1157" d="M164 0v1434h880v-185h-696v-440h696v-184h-696v-441h696v-184h-880zM242 1571l360 309l361 -309l-97 -107l-264 230l-264 -230z" />
<glyph unicode="&#xcb;" horiz-adv-x="1157" d="M164 0v1434h880v-185h-696v-440h696v-184h-696v-441h696v-184h-880zM256 1640q0 59 40 99.5t99 40.5t99.5 -40t40.5 -100q0 -59 -40 -99t-100 -40q-59 0 -99 40t-40 99zM670 1640q0 59 40 99.5t99 40.5t99 -40t40 -100q0 -59 -40 -99t-99 -40t-99 40t-40 99z" />
<glyph unicode="&#xcc;" horiz-adv-x="512" d="M-16 1729l84 129l432 -279l-80 -123zM164 0v1434h184v-1434h-184z" />
<glyph unicode="&#xcd;" horiz-adv-x="512" d="M31 1579l432 279l84 -129l-436 -273zM164 0v1434h184v-1434h-184z" />
<glyph unicode="&#xce;" horiz-adv-x="512" d="M-104 1571l360 309l360 -309l-96 -107l-264 230l-264 -230zM164 0v1434h184v-1434h-184z" />
<glyph unicode="&#xcf;" horiz-adv-x="512" d="M-90 1640q0 59 40 99.5t99 40.5t99 -40t40 -100q0 -59 -39.5 -99t-99.5 -40q-59 0 -99 40t-40 99zM164 0v1434h184v-1434h-184zM324 1640q0 59 39.5 99.5t99.5 40.5q59 0 99 -40t40 -100q0 -59 -40 -99t-99 -40t-99 40t-40 99z" />
<glyph unicode="&#xd0;" horiz-adv-x="1472" d="M0 635v184h164v615h491q152 0 283 -54.5t227.5 -149.5t150.5 -226.5t54 -286.5q0 -156 -54 -287t-150.5 -226t-227.5 -149.5t-283 -54.5h-491v635h-164zM348 184h307q115 0 212.5 39t168 109.5t110.5 169t40 215.5t-40 214t-110.5 167.5t-168 110.5t-212.5 40h-307v-430 h348v-184h-348v-451z" />
<glyph unicode="&#xd1;" horiz-adv-x="1570" d="M143 0v1434h185l915 -1139v1139h184v-1434h-184l-915 1137v-1137h-185zM467 1620q20 25 46 50.5t53.5 45t57 32.5t60.5 13q37 0 70.5 -15t63.5 -32.5t55.5 -33t48.5 -15.5q29 0 57.5 24.5t56.5 55.5l99 -94q-20 -25 -46 -50.5t-53.5 -45t-57 -33t-60.5 -13.5 q-37 0 -71 15.5t-63.5 33t-55.5 33t-48 15.5q-29 0 -57.5 -25t-57.5 -55z" />
<glyph unicode="&#xd2;" horiz-adv-x="1638" d="M102 717q0 154 54.5 285t150.5 227t227.5 150.5t284.5 54.5q154 0 286 -54.5t227 -150.5t149.5 -227.5t54.5 -284.5q0 -154 -54.5 -285t-149.5 -227t-227 -150.5t-286 -54.5t-285 54.5t-227 150.5t-150.5 227t-54.5 285zM287 717q0 -115 40 -213t110.5 -169t169 -111 t212.5 -40q115 0 213 40t169 111t111 169t40 213t-40 213t-111 168.5t-169 110.5t-213 40t-213 -40t-168.5 -110.5t-110.5 -169t-40 -212.5zM543 1729l84 129l432 -279l-80 -123z" />
<glyph unicode="&#xd3;" horiz-adv-x="1638" d="M102 717q0 154 54.5 285t150.5 227t227.5 150.5t284.5 54.5q154 0 286 -54.5t227 -150.5t149.5 -227.5t54.5 -284.5q0 -154 -54.5 -285t-149.5 -227t-227 -150.5t-286 -54.5t-285 54.5t-227 150.5t-150.5 227t-54.5 285zM287 717q0 -115 40 -213t110.5 -169t169 -111 t212.5 -40q115 0 213 40t169 111t111 169t40 213t-40 213t-111 168.5t-169 110.5t-213 40t-213 -40t-168.5 -110.5t-110.5 -169t-40 -212.5zM590 1579l432 279l84 -129l-436 -273z" />
<glyph unicode="&#xd4;" horiz-adv-x="1638" d="M102 717q0 154 54.5 285t150.5 227t227.5 150.5t284.5 54.5q154 0 286 -54.5t227 -150.5t149.5 -227.5t54.5 -284.5q0 -154 -54.5 -285t-149.5 -227t-227 -150.5t-286 -54.5t-285 54.5t-227 150.5t-150.5 227t-54.5 285zM287 717q0 -115 40 -213t110.5 -169t169 -111 t212.5 -40q115 0 213 40t169 111t111 169t40 213t-40 213t-111 168.5t-169 110.5t-213 40t-213 -40t-168.5 -110.5t-110.5 -169t-40 -212.5zM455 1571l360 309l361 -309l-97 -107l-264 230l-264 -230z" />
<glyph unicode="&#xd5;" horiz-adv-x="1638" d="M102 717q0 154 54.5 285t150.5 227t227.5 150.5t284.5 54.5q154 0 286 -54.5t227 -150.5t149.5 -227.5t54.5 -284.5q0 -154 -54.5 -285t-149.5 -227t-227 -150.5t-286 -54.5t-285 54.5t-227 150.5t-150.5 227t-54.5 285zM287 717q0 -115 40 -213t110.5 -169t169 -111 t212.5 -40q115 0 213 40t169 111t111 169t40 213t-40 213t-111 168.5t-169 110.5t-213 40t-213 -40t-168.5 -110.5t-110.5 -169t-40 -212.5zM485 1620q20 25 46 50.5t53.5 45t57.5 32.5t60 13q37 0 71 -15t63.5 -32.5t55.5 -33t48 -15.5q29 0 57.5 24.5t57.5 55.5l98 -94 q-20 -25 -46 -50.5t-53.5 -45t-57 -33t-60.5 -13.5q-37 0 -71 15.5t-63.5 33t-55 33t-48.5 15.5q-29 0 -57.5 -25t-56.5 -55z" />
<glyph unicode="&#xd6;" horiz-adv-x="1638" d="M102 717q0 154 54.5 285t150.5 227t227.5 150.5t284.5 54.5q154 0 286 -54.5t227 -150.5t149.5 -227.5t54.5 -284.5q0 -154 -54.5 -285t-149.5 -227t-227 -150.5t-286 -54.5t-285 54.5t-227 150.5t-150.5 227t-54.5 285zM287 717q0 -115 40 -213t110.5 -169t169 -111 t212.5 -40q115 0 213 40t169 111t111 169t40 213t-40 213t-111 168.5t-169 110.5t-213 40t-213 -40t-168.5 -110.5t-110.5 -169t-40 -212.5zM469 1640q0 59 40 99.5t99 40.5t99.5 -40t40.5 -100q0 -59 -40 -99t-100 -40q-59 0 -99 40t-40 99zM883 1640q0 59 40 99.5t99 40.5 t99 -40t40 -100q0 -59 -40 -99t-99 -40t-99 40t-40 99z" />
<glyph unicode="&#xd7;" d="M170 289l360 360l-360 363l123 123l360 -361l363 363l123 -125l-361 -363l361 -360l-123 -125l-363 362l-360 -360z" />
<glyph unicode="&#xd8;" horiz-adv-x="1638" d="M102 717q0 154 54.5 285t150.5 227t227.5 150.5t284.5 54.5q117 0 220.5 -31t189.5 -90l131 153l108 -94l-129 -151q92 -96 144.5 -224.5t52.5 -279.5q0 -154 -54.5 -285t-149.5 -227t-227 -150.5t-286 -54.5q-117 0 -221 31.5t-190 91.5l-132 -156l-110 92l131 156 q-92 96 -143.5 224t-51.5 278zM287 717q0 -109 34.5 -200t96.5 -161l690 815q-61 37 -134 57.5t-155 20.5q-115 0 -213 -40t-168.5 -110.5t-110.5 -168.5t-40 -213zM528 264q127 -80 291 -80q115 0 213 40t169 111t111 169t40 213q0 109 -35 200t-98 162z" />
<glyph unicode="&#xd9;" horiz-adv-x="1597" d="M143 655v779h185v-779q0 -100 35.5 -186t99 -149.5t149.5 -99.5t187 -36q100 0 186 36t149.5 99.5t99.5 149.5t36 186v779h184v-779q0 -139 -50 -259t-138 -208t-208 -138t-259 -50t-259 50t-208 138t-138.5 208t-50.5 259zM526 1729l84 129l432 -279l-79 -123z" />
<glyph unicode="&#xda;" horiz-adv-x="1597" d="M143 655v779h185v-779q0 -100 35.5 -186t99 -149.5t149.5 -99.5t187 -36q100 0 186 36t149.5 99.5t99.5 149.5t36 186v779h184v-779q0 -139 -50 -259t-138 -208t-208 -138t-259 -50t-259 50t-208 138t-138.5 208t-50.5 259zM573 1579l433 279l84 -129l-437 -273z" />
<glyph unicode="&#xdb;" horiz-adv-x="1597" d="M143 655v779h185v-779q0 -100 35.5 -186t99 -149.5t149.5 -99.5t187 -36q100 0 186 36t149.5 99.5t99.5 149.5t36 186v779h184v-779q0 -139 -50 -259t-138 -208t-208 -138t-259 -50t-259 50t-208 138t-138.5 208t-50.5 259zM438 1571l361 309l360 -309l-96 -107l-264 230 l-264 -230z" />
<glyph unicode="&#xdc;" horiz-adv-x="1597" d="M143 655v779h185v-779q0 -100 35.5 -186t99 -149.5t149.5 -99.5t187 -36q100 0 186 36t149.5 99.5t99.5 149.5t36 186v779h184v-779q0 -139 -50 -259t-138 -208t-208 -138t-259 -50t-259 50t-208 138t-138.5 208t-50.5 259zM453 1640q0 59 39.5 99.5t99.5 40.5 q59 0 99 -40t40 -100q0 -59 -40 -99t-99 -40t-99 40t-40 99zM866 1640q0 59 40 99.5t100 40.5q59 0 99 -40t40 -100q0 -59 -40 -99t-99 -40t-99.5 40t-40.5 99z" />
<glyph unicode="&#xdd;" horiz-adv-x="1355" d="M10 1434h226l442 -639l442 639h226l-576 -830v-604h-184v604zM453 1579l432 279l84 -129l-437 -273z" />
<glyph unicode="&#xde;" horiz-adv-x="1216" d="M164 0v1434h184v-254h273q102 0 189 -35t149.5 -96.5t98.5 -146.5t36 -185t-36 -185.5t-98.5 -146.5t-149.5 -96t-189 -35h-273v-254h-184zM348 438h273q57 0 109 20.5t91 57.5t61.5 88t22.5 113q0 61 -22.5 112.5t-61.5 88t-91 57t-109 20.5h-273v-557z" />
<glyph unicode="&#xdf;" horiz-adv-x="1173" d="M143 -154v1141q0 102 26 189.5t80 150t136 97t197 34.5q106 0 185 -28.5t131 -77.5t76.5 -115t24.5 -139q0 -49 -14 -97.5t-42 -88.5t-67.5 -69.5t-89.5 -41.5q68 -8 127.5 -38t103.5 -79t69.5 -116.5t25.5 -149.5q0 -104 -35 -185t-98.5 -135.5t-152.5 -83t-197 -28.5 q-61 0 -129 6v162q16 -2 35 -2q16 -2 34.5 -2h40.5q70 0 129.5 16t103.5 49t68.5 83t24.5 120q0 72 -27.5 125t-76 89t-114 53t-138.5 17h-68v164h68q119 0 181 61.5t62 170.5q0 88 -66.5 142t-183.5 54t-185.5 -77.5t-68.5 -229.5v-1141h-176z" />
<glyph unicode="&#xe0;" horiz-adv-x="1054" d="M92 297q0 72 24.5 127t69.5 95t104.5 63.5t131.5 29.5l289 29q66 6 65 55v27q0 76 -56 122t-171 46q-106 0 -177 -44t-87 -140l-156 84q29 115 127 186.5t285 71.5q213 0 312 -99.5t99 -283.5v-666h-176v145q-53 -78 -139 -121.5t-197 -43.5q-84 0 -148.5 24.5 t-108.5 66.5t-67.5 100t-23.5 126zM276 295q0 -66 48.5 -108t142.5 -42q74 0 131 24t97 62.5t60.5 86t20.5 96.5v75l-334 -40q-86 -10 -126 -53.5t-40 -100.5zM281 1442l84 129l432 -279l-80 -123z" />
<glyph unicode="&#xe1;" horiz-adv-x="1054" d="M92 297q0 72 24.5 127t69.5 95t104.5 63.5t131.5 29.5l289 29q66 6 65 55v27q0 76 -56 122t-171 46q-106 0 -177 -44t-87 -140l-156 84q29 115 127 186.5t285 71.5q213 0 312 -99.5t99 -283.5v-666h-176v145q-53 -78 -139 -121.5t-197 -43.5q-84 0 -148.5 24.5 t-108.5 66.5t-67.5 100t-23.5 126zM276 295q0 -66 48.5 -108t142.5 -42q74 0 131 24t97 62.5t60.5 86t20.5 96.5v75l-334 -40q-86 -10 -126 -53.5t-40 -100.5zM322 1292l432 279l84 -129l-437 -273z" />
<glyph unicode="&#xe2;" horiz-adv-x="1054" d="M92 297q0 72 24.5 127t69.5 95t104.5 63.5t131.5 29.5l289 29q66 6 65 55v27q0 76 -56 122t-171 46q-106 0 -177 -44t-87 -140l-156 84q29 115 127 186.5t285 71.5q213 0 312 -99.5t99 -283.5v-666h-176v145q-53 -78 -139 -121.5t-197 -43.5q-84 0 -148.5 24.5 t-108.5 66.5t-67.5 100t-23.5 126zM199 1264l360 309l361 -309l-97 -107l-264 229l-264 -229zM276 295q0 -66 48.5 -108t142.5 -42q74 0 131 24t97 62.5t60.5 86t20.5 96.5v75l-334 -40q-86 -10 -126 -53.5t-40 -100.5z" />
<glyph unicode="&#xe3;" horiz-adv-x="1054" d="M92 297q0 72 24.5 127t69.5 95t104.5 63.5t131.5 29.5l289 29q66 6 65 55v27q0 76 -56 122t-171 46q-106 0 -177 -44t-87 -140l-156 84q29 115 127 186.5t285 71.5q213 0 312 -99.5t99 -283.5v-666h-176v145q-53 -78 -139 -121.5t-197 -43.5q-84 0 -148.5 24.5 t-108.5 66.5t-67.5 100t-23.5 126zM225 1292q20 25 46 50.5t53.5 45t57.5 33t60 13.5q37 0 71 -15.5t63.5 -33t55 -33t48.5 -15.5q29 0 57.5 24.5t57.5 55.5l98 -94q-20 -25 -46 -50.5t-53.5 -45t-57 -32.5t-60.5 -13q-37 0 -71 15t-63.5 32.5t-55 33t-48.5 15.5 q-29 0 -57.5 -24.5t-56.5 -55.5zM276 295q0 -66 48.5 -108t142.5 -42q74 0 131 24t97 62.5t60.5 86t20.5 96.5v75l-334 -40q-86 -10 -126 -53.5t-40 -100.5z" />
<glyph unicode="&#xe4;" horiz-adv-x="1054" d="M92 297q0 72 24.5 127t69.5 95t104.5 63.5t131.5 29.5l289 29q66 6 65 55v27q0 76 -56 122t-171 46q-106 0 -177 -44t-87 -140l-156 84q29 115 127 186.5t285 71.5q213 0 312 -99.5t99 -283.5v-666h-176v145q-53 -78 -139 -121.5t-197 -43.5q-84 0 -148.5 24.5 t-108.5 66.5t-67.5 100t-23.5 126zM213 1319q0 59 40 99t99 40t99.5 -40t40.5 -99t-40 -99t-100 -40q-59 0 -99 40t-40 99zM276 295q0 -66 48.5 -108t142.5 -42q74 0 131 24t97 62.5t60.5 86t20.5 96.5v75l-334 -40q-86 -10 -126 -53.5t-40 -100.5zM627 1319q0 59 40 99 t99 40t99 -40t40 -99t-40 -99t-99 -40t-99 40t-40 99z" />
<glyph unicode="&#xe5;" horiz-adv-x="1054" d="M92 297q0 72 24.5 127t69.5 95t104.5 63.5t131.5 29.5l289 29q66 6 65 55v27q0 76 -56 122t-171 46q-106 0 -177 -44t-87 -140l-156 84q29 115 127 186.5t285 71.5q213 0 312 -99.5t99 -283.5v-666h-176v145q-53 -78 -139 -121.5t-197 -43.5q-84 0 -148.5 24.5 t-108.5 66.5t-67.5 100t-23.5 126zM276 295q0 -66 48.5 -108t142.5 -42q74 0 131 24t97 62.5t60.5 86t20.5 96.5v75l-334 -40q-86 -10 -126 -53.5t-40 -100.5zM334 1399q0 98 63.5 162.5t161.5 64.5t161.5 -64.5t63.5 -162.5t-63.5 -161.5t-161.5 -63.5t-161.5 63.5 t-63.5 161.5zM451 1399q0 -49 29.5 -81t78.5 -32t79 32t30 81t-30 80.5t-79 31.5t-78.5 -31.5t-29.5 -80.5z" />
<glyph unicode="&#xe6;" horiz-adv-x="1824" d="M92 297q0 72 24.5 127t69.5 95t104.5 63.5t131.5 29.5l289 29q66 6 65 55v27q0 76 -56 122t-171 46q-106 0 -177 -44t-87 -140l-156 84q29 115 127 186.5t279 71.5q139 0 228 -46.5t136 -138.5q61 86 157.5 135.5t227.5 49.5q119 0 210 -41t153.5 -114t94.5 -171t32 -211 v-53h-820v-2q4 -78 33 -137.5t75 -99.5t105.5 -60.5t124.5 -20.5q113 0 193 49.5t131 108.5l92 -137q-31 -35 -71 -68t-90 -59.5t-112.5 -42t-140.5 -15.5q-150 0 -258 59.5t-170 170.5q-70 -104 -181.5 -164.5t-244.5 -60.5q-84 0 -148.5 24.5t-108.5 66.5t-67.5 100 t-23.5 126zM276 295q0 -66 48.5 -108t144.5 -42q72 0 128 24t96 62.5t61.5 86t21.5 96.5v75l-334 -40q-86 -10 -126 -53.5t-40 -100.5zM963 600h618q-12 129 -85 207t-214 78t-221 -78t-98 -207z" />
<glyph unicode="&#xe7;" horiz-adv-x="1019" d="M61 510q0 115 38 213t109 171t170 114t222 41q119 0 210 -39t163 -111l-115 -135q-53 49 -117.5 82t-150.5 33q-74 0 -137.5 -26t-109.5 -73t-72.5 -114.5t-26.5 -153.5q0 -84 26.5 -151.5t72.5 -115.5t108.5 -74t136.5 -26q92 0 161.5 36t122.5 85l107 -137 q-53 -53 -126 -92t-169 -55q29 -41 39 -77t10 -71q0 -88 -53 -132t-125 -44q-23 0 -50.5 5t-53.5 15v119q23 -6 42 -10t35 -4q29 0 47.5 15.5t18.5 54.5q0 25 -10.5 55.5t-34.5 68.5q-113 6 -203 49.5t-153.5 114t-97.5 164.5t-34 205z" />
<glyph unicode="&#xe8;" horiz-adv-x="1110" d="M61 504q0 113 36 212t101.5 173t159 117t209.5 43q121 0 213 -41t153.5 -114t93.5 -171t32 -211v-53h-819v-2q4 -78 32.5 -137.5t73.5 -99.5t104.5 -60.5t124.5 -20.5q113 0 193 47t133 111l92 -137q-31 -35 -71.5 -68t-92 -59.5t-113 -42t-132.5 -15.5q-117 0 -212.5 37 t-165 105.5t-107.5 167t-38 219.5zM248 600h618q-12 129 -84.5 207t-212.5 78q-145 0 -224 -78t-97 -207zM307 1442l84 129l432 -279l-80 -123z" />
<glyph unicode="&#xe9;" horiz-adv-x="1110" d="M61 504q0 113 36 212t101.5 173t159 117t209.5 43q121 0 213 -41t153.5 -114t93.5 -171t32 -211v-53h-819v-2q4 -78 32.5 -137.5t73.5 -99.5t104.5 -60.5t124.5 -20.5q113 0 193 47t133 111l92 -137q-31 -35 -71.5 -68t-92 -59.5t-113 -42t-132.5 -15.5q-117 0 -212.5 37 t-165 105.5t-107.5 167t-38 219.5zM248 600h618q-12 129 -84.5 207t-212.5 78q-145 0 -224 -78t-97 -207zM348 1292l432 279l84 -129l-436 -273z" />
<glyph unicode="&#xea;" horiz-adv-x="1110" d="M61 504q0 113 36 212t101.5 173t159 117t209.5 43q121 0 213 -41t153.5 -114t93.5 -171t32 -211v-53h-819v-2q4 -78 32.5 -137.5t73.5 -99.5t104.5 -60.5t124.5 -20.5q113 0 193 47t133 111l92 -137q-31 -35 -71.5 -68t-92 -59.5t-113 -42t-132.5 -15.5q-117 0 -212.5 37 t-165 105.5t-107.5 167t-38 219.5zM225 1264l361 309l360 -309l-96 -107l-264 229l-264 -229zM248 600h618q-12 129 -84.5 207t-212.5 78q-145 0 -224 -78t-97 -207z" />
<glyph unicode="&#xeb;" horiz-adv-x="1110" d="M61 504q0 113 36 212t101.5 173t159 117t209.5 43q121 0 213 -41t153.5 -114t93.5 -171t32 -211v-53h-819v-2q4 -78 32.5 -137.5t73.5 -99.5t104.5 -60.5t124.5 -20.5q113 0 193 47t133 111l92 -137q-31 -35 -71.5 -68t-92 -59.5t-113 -42t-132.5 -15.5q-117 0 -212.5 37 t-165 105.5t-107.5 167t-38 219.5zM240 1319q0 59 39.5 99t99.5 40q59 0 99 -40t40 -99t-40 -99t-99 -40t-99 40t-40 99zM248 600h618q-12 129 -84.5 207t-212.5 78q-145 0 -224 -78t-97 -207zM653 1319q0 59 40 99t100 40q59 0 99 -40t40 -99t-40 -99t-99 -40t-99.5 40 t-40.5 99z" />
<glyph unicode="&#xec;" horiz-adv-x="483" d="M-37 1442l84 129l432 -279l-80 -123zM154 0v1024h176v-1024h-176z" />
<glyph unicode="&#xed;" horiz-adv-x="483" d="M4 1292l432 279l84 -129l-436 -273zM154 0v1024h176v-1024h-176z" />
<glyph unicode="&#xee;" horiz-adv-x="483" d="M-119 1264l361 309l360 -309l-96 -107l-264 229l-265 -229zM154 0v1024h176v-1024h-176z" />
<glyph unicode="&#xef;" horiz-adv-x="483" d="M-104 1319q0 59 39.5 99t99.5 40q59 0 99 -40t40 -99t-40 -99t-99 -40t-99 40t-40 99zM154 0v1024h176v-1024h-176zM309 1319q0 59 40 99t100 40q59 0 99 -40t40 -99t-40 -99t-99 -40t-99.5 40t-40.5 99z" />
<glyph unicode="&#xf0;" horiz-adv-x="1216" d="M61 510q0 121 40 220t109 170t163 110t202 39q51 0 105.5 -10.5t107 -34t100.5 -63.5t85 -101v10q-23 143 -98.5 259t-190.5 204l-233 -158l-82 113l188 127q-51 29 -106.5 52t-114.5 44l61 139q178 -55 305 -135l164 111l82 -115l-123 -84q127 -102 203 -246 q59 -113 88 -245t29 -285q0 -160 -41 -283t-119 -209q-74 -80 -175 -122t-226 -42q-115 0 -211.5 40t-166 111t-107.5 169t-38 215zM244 516q0 -84 25.5 -151.5t71.5 -116.5t110.5 -76t140.5 -27q74 0 137.5 26t111.5 73t74.5 114.5t26.5 151.5q0 78 -23.5 145.5 t-69.5 116.5t-111.5 78t-147.5 29q-80 0 -144.5 -27t-109.5 -75t-68.5 -114.5t-23.5 -146.5z" />
<glyph unicode="&#xf1;" horiz-adv-x="1181" d="M143 0v1024h170v-137q61 86 150.5 124t189.5 38q98 0 171 -33t120 -91.5t70.5 -141.5t23.5 -181v-602h-180v610q0 135 -66.5 205t-175.5 70q-88 0 -145 -32t-91 -86t-47.5 -129t-13.5 -161v-477h-176zM258 1292q20 25 46 50.5t53.5 45t57 33t60.5 13.5q37 0 71 -15.5 t63.5 -33t55 -33t48.5 -15.5q29 0 57.5 24.5t56.5 55.5l99 -94q-20 -25 -46 -50.5t-53.5 -45t-57 -32.5t-60.5 -13q-37 0 -71 15t-63.5 32.5t-55 33t-48.5 15.5q-29 0 -57.5 -24.5t-57.5 -55.5z" />
<glyph unicode="&#xf2;" horiz-adv-x="1196" d="M61 512q0 115 41 213t113 170t170 113t213 41t213 -41t170 -113t113 -170t41 -213t-41 -213t-113 -170t-170 -113t-213 -41t-213 41t-170 113t-113 170t-41 213zM244 512q0 -80 25.5 -147.5t71.5 -115.5t111.5 -76t145.5 -28t145.5 28t111.5 76t71.5 115.5t25.5 147.5 t-25.5 147.5t-71.5 115.5t-111.5 76t-145.5 28t-145.5 -28t-111.5 -76t-71.5 -115.5t-25.5 -147.5zM319 1442l84 129l433 -279l-80 -123z" />
<glyph unicode="&#xf3;" horiz-adv-x="1196" d="M61 512q0 115 41 213t113 170t170 113t213 41t213 -41t170 -113t113 -170t41 -213t-41 -213t-113 -170t-170 -113t-213 -41t-213 41t-170 113t-113 170t-41 213zM244 512q0 -80 25.5 -147.5t71.5 -115.5t111.5 -76t145.5 -28t145.5 28t111.5 76t71.5 115.5t25.5 147.5 t-25.5 147.5t-71.5 115.5t-111.5 76t-145.5 28t-145.5 -28t-111.5 -76t-71.5 -115.5t-25.5 -147.5zM360 1292l433 279l84 -129l-437 -273z" />
<glyph unicode="&#xf4;" horiz-adv-x="1196" d="M61 512q0 115 41 213t113 170t170 113t213 41t213 -41t170 -113t113 -170t41 -213t-41 -213t-113 -170t-170 -113t-213 -41t-213 41t-170 113t-113 170t-41 213zM238 1264l360 309l360 -309l-96 -107l-264 229l-264 -229zM244 512q0 -80 25.5 -147.5t71.5 -115.5 t111.5 -76t145.5 -28t145.5 28t111.5 76t71.5 115.5t25.5 147.5t-25.5 147.5t-71.5 115.5t-111.5 76t-145.5 28t-145.5 -28t-111.5 -76t-71.5 -115.5t-25.5 -147.5z" />
<glyph unicode="&#xf5;" horiz-adv-x="1196" d="M61 512q0 115 41 213t113 170t170 113t213 41t213 -41t170 -113t113 -170t41 -213t-41 -213t-113 -170t-170 -113t-213 -41t-213 41t-170 113t-113 170t-41 213zM244 512q0 -80 25.5 -147.5t71.5 -115.5t111.5 -76t145.5 -28t145.5 28t111.5 76t71.5 115.5t25.5 147.5 t-25.5 147.5t-71.5 115.5t-111.5 76t-145.5 28t-145.5 -28t-111.5 -76t-71.5 -115.5t-25.5 -147.5zM264 1292q20 25 46 50.5t53.5 45t57.5 33t60 13.5q37 0 71 -15.5t63.5 -33t55 -33t48.5 -15.5q29 0 57.5 24.5t57.5 55.5l98 -94q-20 -25 -46 -50.5t-53.5 -45t-57 -32.5 t-60.5 -13q-37 0 -71 15t-63.5 32.5t-55 33t-48.5 15.5q-29 0 -57.5 -24.5t-57.5 -55.5z" />
<glyph unicode="&#xf6;" horiz-adv-x="1196" d="M61 512q0 115 41 213t113 170t170 113t213 41t213 -41t170 -113t113 -170t41 -213t-41 -213t-113 -170t-170 -113t-213 -41t-213 41t-170 113t-113 170t-41 213zM244 512q0 -80 25.5 -147.5t71.5 -115.5t111.5 -76t145.5 -28t145.5 28t111.5 76t71.5 115.5t25.5 147.5 t-25.5 147.5t-71.5 115.5t-111.5 76t-145.5 28t-145.5 -28t-111.5 -76t-71.5 -115.5t-25.5 -147.5zM252 1319q0 59 40 99t99 40t99 -40t40 -99t-39.5 -99t-99.5 -40q-59 0 -99 40t-40 99zM666 1319q0 59 39.5 99t99.5 40q59 0 99 -40t40 -99t-40 -99t-99 -40t-99 40t-40 99z " />
<glyph unicode="&#xf7;" d="M94 551v184h1123v-184h-1123zM475 266q0 68 46 115t114 47t115 -47t47 -115t-47.5 -114t-114.5 -46q-68 0 -114 46.5t-46 113.5zM475 1018q0 68 46 115t114 47t115 -47.5t47 -114.5q0 -68 -47.5 -114t-114.5 -46q-68 0 -114 46t-46 114z" />
<glyph unicode="&#xf8;" horiz-adv-x="1196" d="M61 512q0 115 41 213t113 170t170 113t213 41q164 0 293 -82l76 90l108 -94l-74 -89q63 -72 98.5 -162.5t35.5 -199.5q0 -115 -41 -213t-113 -170t-170 -113t-213 -41q-164 0 -293 82l-76 -90l-110 92l76 91q-63 72 -98.5 162.5t-35.5 199.5zM244 512q0 -131 67 -227 l467 551q-39 20 -84 31.5t-96 11.5q-80 0 -145.5 -28t-111.5 -76t-71.5 -115.5t-25.5 -147.5zM418 188q39 -20 84 -31.5t96 -11.5q80 0 145.5 28t111.5 76t71.5 115.5t25.5 147.5q0 131 -67 227z" />
<glyph unicode="&#xf9;" horiz-adv-x="1167" d="M143 418v606h181v-606q0 -61 10 -112.5t36.5 -88.5t71.5 -57.5t115 -20.5q88 0 144.5 34t89 90t45 130t12.5 154v477h176v-1024h-170v147q-59 -86 -135 -129t-193 -43q-109 0 -181.5 34t-117.5 92.5t-64.5 139.5t-19.5 177zM305 1442l84 129l432 -279l-80 -123z" />
<glyph unicode="&#xfa;" horiz-adv-x="1167" d="M143 418v606h181v-606q0 -61 10 -112.5t36.5 -88.5t71.5 -57.5t115 -20.5q88 0 144.5 34t89 90t45 130t12.5 154v477h176v-1024h-170v147q-59 -86 -135 -129t-193 -43q-109 0 -181.5 34t-117.5 92.5t-64.5 139.5t-19.5 177zM346 1292l432 279l84 -129l-436 -273z" />
<glyph unicode="&#xfb;" horiz-adv-x="1167" d="M143 418v606h181v-606q0 -61 10 -112.5t36.5 -88.5t71.5 -57.5t115 -20.5q88 0 144.5 34t89 90t45 130t12.5 154v477h176v-1024h-170v147q-59 -86 -135 -129t-193 -43q-109 0 -181.5 34t-117.5 92.5t-64.5 139.5t-19.5 177zM223 1264l361 309l360 -309l-96 -107l-264 229 l-265 -229z" />
<glyph unicode="&#xfc;" horiz-adv-x="1167" d="M143 418v606h181v-606q0 -61 10 -112.5t36.5 -88.5t71.5 -57.5t115 -20.5q88 0 144.5 34t89 90t45 130t12.5 154v477h176v-1024h-170v147q-59 -86 -135 -129t-193 -43q-109 0 -181.5 34t-117.5 92.5t-64.5 139.5t-19.5 177zM238 1319q0 59 39.5 99t99.5 40q59 0 99 -40 t40 -99t-40 -99t-99 -40t-99 40t-40 99zM651 1319q0 59 40 99t100 40q59 0 99 -40t40 -99t-40 -99t-99 -40t-99.5 40t-40.5 99z" />
<glyph unicode="&#xfd;" horiz-adv-x="1075" d="M20 1024h213l328 -684l318 684h186l-662 -1434h-190l254 545zM301 1292l432 279l84 -129l-436 -273z" />
<glyph unicode="&#xfe;" horiz-adv-x="1234" d="M143 -410v1844h176v-557q57 76 146.5 124t214.5 48q104 0 195.5 -38t157 -107.5t103.5 -169t38 -222.5t-38 -222.5t-103.5 -169t-157 -107.5t-195.5 -38q-123 0 -210 48.5t-151 126.5v-560h-176zM307 512q0 -170 92 -271.5t250 -101.5q80 0 143.5 28t107.5 77t67.5 117.5 t23.5 150.5t-23.5 150.5t-67.5 117.5t-107.5 77t-143.5 28q-158 0 -250 -101.5t-92 -271.5z" />
<glyph unicode="&#xff;" horiz-adv-x="1075" d="M20 1024h213l328 -684l318 684h186l-662 -1434h-190l254 545zM193 1319q0 59 39.5 99t99.5 40q59 0 99 -40t40 -99t-40 -99t-99 -40t-99 40t-40 99zM606 1319q0 59 40 99t99 40t99.5 -40t40.5 -99t-40 -99t-100 -40q-59 0 -99 40t-40 99z" />
<glyph unicode="&#x152;" horiz-adv-x="1812" d="M102 717q0 154 54.5 285t150.5 227t227.5 150.5t284.5 54.5v-185q-115 0 -213 -40t-168.5 -110.5t-110.5 -169t-40 -212.5q0 -115 40 -213t110.5 -169t169 -111t212.5 -40v1250h881v-185h-696v-440h696v-184h-696v-441h696v-184h-881q-154 0 -285 54.5t-227 150.5 t-150.5 227t-54.5 285z" />
<glyph unicode="&#x153;" horiz-adv-x="2000" d="M61 512q0 115 41 213t113 170t170 113t213 41q154 0 266.5 -65.5t175.5 -178.5q59 111 163 177.5t255 66.5q121 0 213 -41t153.5 -114t93.5 -171t32 -211v-53h-820v-2q4 -78 33 -137.5t74 -99.5t104.5 -60.5t124.5 -20.5q113 0 193 47t133 111l92 -137q-31 -35 -71.5 -68 t-92 -59.5t-112.5 -42t-133 -15.5q-156 0 -266.5 61.5t-170.5 176.5q-66 -111 -177 -174.5t-263 -63.5q-115 0 -213 41t-170 113t-113 170t-41 213zM244 512q0 -80 25.5 -147.5t71.5 -115.5t111.5 -76t145.5 -28t145.5 28t111.5 76t71.5 115.5t25.5 147.5t-25.5 147.5 t-71.5 115.5t-111.5 76t-145.5 28t-145.5 -28t-111.5 -76t-71.5 -115.5t-25.5 -147.5zM1139 600h618q-12 129 -85 207t-212 78q-145 0 -224 -78t-97 -207z" />
<glyph unicode="&#x178;" horiz-adv-x="1355" d="M10 1434h226l442 -639l442 639h226l-576 -830v-604h-184v604zM332 1640q0 59 40 99.5t99 40.5t99 -40t40 -100q0 -59 -40 -99t-99 -40t-99 40t-40 99zM745 1640q0 59 40 99.5t100 40.5q59 0 99 -40t40 -100q0 -59 -40 -99t-99 -40t-99.5 40t-40.5 99z" />
<glyph unicode="&#x2c6;" horiz-adv-x="925" d="M102 1264l361 309l360 -309l-96 -107l-264 229l-264 -229z" />
<glyph unicode="&#x2dc;" horiz-adv-x="872" d="M102 1292q20 25 46 50.5t53.5 45t57.5 33t60 13.5q37 0 71 -15.5t63.5 -33t55.5 -33t48 -15.5q29 0 57.5 24.5t57.5 55.5l98 -94q-20 -25 -46 -50.5t-53.5 -45t-57 -32.5t-60.5 -13q-37 0 -70.5 15t-63.5 32.5t-55.5 33t-48.5 15.5q-29 0 -57.5 -24.5t-56.5 -55.5z" />
<glyph unicode="&#x2000;" horiz-adv-x="940" />
<glyph unicode="&#x2001;" horiz-adv-x="1880" />
<glyph unicode="&#x2002;" horiz-adv-x="940" />
<glyph unicode="&#x2003;" horiz-adv-x="1880" />
<glyph unicode="&#x2004;" horiz-adv-x="626" />
<glyph unicode="&#x2005;" horiz-adv-x="470" />
<glyph unicode="&#x2006;" horiz-adv-x="313" />
<glyph unicode="&#x2007;" horiz-adv-x="313" />
<glyph unicode="&#x2008;" horiz-adv-x="235" />
<glyph unicode="&#x2009;" horiz-adv-x="376" />
<glyph unicode="&#x200a;" horiz-adv-x="104" />
<glyph unicode="&#x2010;" horiz-adv-x="1286" d="M164 541v184h958v-184h-958z" />
<glyph unicode="&#x2011;" horiz-adv-x="1286" d="M164 541v184h958v-184h-958z" />
<glyph unicode="&#x2012;" horiz-adv-x="1286" d="M164 541v184h958v-184h-958z" />
<glyph unicode="&#x2013;" horiz-adv-x="1900" d="M143 541v184h1614v-184h-1614z" />
<glyph unicode="&#x2014;" horiz-adv-x="2822" d="M143 541v184h2536v-184h-2536z" />
<glyph unicode="&#x2018;" horiz-adv-x="497" d="M82 1004q0 41 18 71l213 383l103 -57l-146 -250q51 -14 83 -55t32 -92q0 -59 -43 -105.5t-109 -46.5t-108.5 46t-42.5 106z" />
<glyph unicode="&#x2019;" horiz-adv-x="497" d="M82 909l145 250q-51 14 -82.5 55t-31.5 93q0 59 43 105t108 46q66 0 109 -46t43 -105q0 -41 -19 -72l-213 -383z" />
<glyph unicode="&#x201a;" horiz-adv-x="497" d="M82 -246l145 250q-51 14 -82.5 55t-31.5 93q0 59 43 105t108 46q66 0 109 -46t43 -105q0 -41 -19 -72l-213 -383z" />
<glyph unicode="&#x201c;" horiz-adv-x="880" d="M82 1004q0 41 18 71l213 383l103 -57l-146 -250q51 -14 83 -55t32 -92q0 -59 -43 -105.5t-109 -46.5t-108.5 46t-42.5 106zM465 1004q0 41 18 71l213 383l103 -57l-146 -250q51 -14 83 -55t32 -92q0 -59 -43 -105.5t-109 -46.5t-108.5 46t-42.5 106z" />
<glyph unicode="&#x201d;" horiz-adv-x="880" d="M82 909l145 250q-51 14 -82.5 55t-31.5 93q0 59 43 105t108 46q66 0 109 -46t43 -105q0 -41 -19 -72l-213 -383zM465 909l145 250q-51 14 -82.5 55t-31.5 93q0 59 43 105t108 46q66 0 109 -46t43 -105q0 -41 -19 -72l-213 -383z" />
<glyph unicode="&#x201e;" horiz-adv-x="880" d="M82 -246l145 250q-51 14 -82.5 55t-31.5 93q0 59 43 105t108 46q66 0 109 -46t43 -105q0 -41 -19 -72l-213 -383zM465 -246l145 250q-51 14 -82.5 55t-31.5 93q0 59 43 105t108 46q66 0 109 -46t43 -105q0 -41 -19 -72l-213 -383z" />
<glyph unicode="&#x2022;" horiz-adv-x="876" d="M184 655q0 111 72 182.5t182 71.5q111 0 182.5 -71.5t71.5 -182.5t-71.5 -182.5t-182.5 -71.5t-182.5 71.5t-71.5 182.5z" />
<glyph unicode="&#x2026;" horiz-adv-x="1984" d="M205 160q0 68 46 115t114 47t114.5 -47.5t46.5 -114.5q0 -68 -47 -114t-114 -46q-68 0 -114 46t-46 114zM831 160q0 68 46 115t114 47t115 -47.5t47 -114.5q0 -68 -47 -114t-115 -46t-114 46t-46 114zM1458 160q0 68 46 115t114 47t115 -47.5t47 -114.5q0 -68 -47 -114 t-115 -46t-114 46t-46 114z" />
<glyph unicode="&#x202f;" horiz-adv-x="376" />
<glyph unicode="&#x2039;" horiz-adv-x="761" d="M82 532l379 431l117 -107l-293 -324l293 -325l-117 -105z" />
<glyph unicode="&#x203a;" horiz-adv-x="761" d="M184 207l293 325l-293 324l117 107l379 -431l-379 -430z" />
<glyph unicode="&#x205f;" horiz-adv-x="470" />
<glyph unicode="&#x20ac;" horiz-adv-x="1380" d="M61 496l66 143h125q-2 18 -2 37.5v40.5v32.5t2 32.5h-170l65 144h125q29 123 90.5 217t145.5 158.5t186.5 98.5t212.5 34q127 0 237.5 -40t215.5 -124l-78 -174q-76 74 -173 113.5t-208 39.5q-160 0 -272.5 -89t-161.5 -234h739l-65 -144h-705q0 -16 -1 -32.5t-1 -32.5 q0 -20 1 -40t3 -38h633l-65 -143h-535q49 -141 159.5 -226.5t266.5 -85.5q57 0 113.5 14.5t128.5 49.5l30 -189q-84 -33 -142 -46t-124 -13q-111 0 -211 33t-182 96.5t-142.5 155.5t-91.5 211h-215z" />
<glyph unicode="&#x2122;" horiz-adv-x="1988" d="M102 1290v144h734v-144h-295v-653h-144v653h-295zM924 637v797h137l346 -605l340 605h139v-797h-143v498l-283 -498h-110l-283 498v-498h-143z" />
<glyph unicode="&#x25fc;" horiz-adv-x="1024" d="M0 0v1024h1024v-1024h-1024z" />
</font>
</defs>
</svg>
