<?xml version="1.0" encoding="UTF-8" standalone="no"?>
<svg width="920px" height="9px" viewBox="0 0 920 9" version="1.1" xmlns="http://www.w3.org/2000/svg" xmlns:xlink="http://www.w3.org/1999/xlink" xmlns:sketch="http://www.bohemiancoding.com/sketch/ns">
    <!-- Generator: Sketch 3.2.2 (9983) - http://www.bohemiancoding.com/sketch -->
    <title>~~~~</title>
    <desc>Created with Sketch.</desc>
    <defs></defs>
    <g id="Page-1" stroke="none" stroke-width="1" fill="none" fill-rule="evenodd" sketch:type="MSPage">
        <g id="Main" sketch:type="MSArtboardGroup" transform="translate(-141.000000, -3124.000000)" stroke="#0F8F57" stroke-width="2">
            <g id="About" sketch:type="MSLayerGroup" transform="translate(0.000000, 3047.000000)">
                <path d="M141,78 C146.822876,78 146.822876,84.6666667 152.645753,84.6666667 C158.467596,84.6666667 158.467596,78 164.289438,78 C170.111281,78 170.111281,84.6666667 175.933124,84.6666667 C181.754966,84.6666667 181.754966,78 187.576809,78 C193.398652,78 193.398652,84.6666667 199.221528,84.6666667 C205.043371,84.6666667 205.043371,78 210.866247,78 C216.68809,78 216.68809,84.6666667 222.509933,84.6666667 C228.331775,84.6666667 228.331775,78 234.153618,78 C239.976494,78 239.976494,84.6666667 245.798337,84.6666667 C251.621213,84.6666667 251.621213,78 257.443056,78 C263.264899,78 263.264899,84.6666667 269.086742,84.6666667 C274.909618,84.6666667 274.909618,78 280.731461,78 C286.550202,78 286.550202,84.6666667 292.369978,84.6666667 C298.188719,84.6666667 298.188719,78 304.008494,78 C309.829303,78 309.829303,84.6666667 315.650112,84.6666667 C321.471955,84.6666667 321.471955,78 327.294831,78 C333.11564,78 333.11564,84.6666667 338.937483,84.6666667 C344.758292,84.6666667 344.758292,78 350.579101,78 C356.398876,78 356.398876,84.6666667 362.218652,84.6666667 C368.038427,84.6666667 368.038427,78 373.858202,78 C379.679011,78 379.679011,84.6666667 385.49982,84.6666667 C391.321663,84.6666667 391.321663,78 397.144539,78 C402.966382,78 402.966382,84.6666667 408.788225,84.6666667 C414.609034,84.6666667 414.609034,78 420.429843,78 C426.250652,78 426.250652,84.6666667 432.070427,84.6666667 C437.891236,84.6666667 437.891236,78 443.712045,78 C449.533888,78 449.533888,84.6666667 455.356764,84.6666667 C461.178607,84.6666667 461.178607,78 467.001483,78 C472.823326,78 472.823326,84.6666667 478.644135,84.6666667 C484.464944,84.6666667 484.464944,78 490.285753,78 C496.106562,78 496.106562,84.6666667 501.928404,84.6666667 C507.752315,84.6666667 507.752315,78 513.575191,78 C519.397034,78 519.397034,84.6666667 525.218876,84.6666667 C531.040719,84.6666667 531.040719,78 536.861528,78 C542.683371,78 542.683371,84.6666667 548.505213,84.6666667 C554.329124,84.6666667 554.329124,78 560.152,78 C565.974876,78 565.974876,84.6666667 571.796719,84.6666667 C577.617528,84.6666667 577.617528,78 583.439371,78 C589.262247,78 589.262247,84.6666667 595.085124,84.6666667 C600.908,84.6666667 600.908,78 606.730876,78 C612.552719,78 612.552719,84.6666667 618.374562,84.6666667 C624.197438,84.6666667 624.197438,78 630.019281,78 C635.843191,78 635.843191,84.6666667 641.666067,84.6666667 C647.48791,84.6666667 647.48791,78 653.310787,78 C659.133663,78 659.133663,84.6666667 664.956539,84.6666667 C670.779416,84.6666667 670.779416,78 676.602292,78 C682.425169,78 682.425169,84.6666667 688.248045,84.6666667 C694.071955,84.6666667 694.071955,78 699.894831,78 C705.717708,78 705.717708,84.6666667 711.540584,84.6666667 C717.364494,84.6666667 717.364494,78 723.188404,78 C729.011281,78 729.011281,84.6666667 734.834157,84.6666667 C740.658067,84.6666667 740.658067,78 746.483011,78 C752.305888,78 752.305888,84.6666667 758.128764,84.6666667 C763.952674,84.6666667 763.952674,78 769.776584,78 C775.599461,78 775.599461,84.6666667 781.423371,84.6666667 C787.247281,84.6666667 787.247281,78 793.070157,78 C798.894067,78 798.894067,84.6666667 804.717978,84.6666667 C810.541888,84.6666667 810.541888,78 816.366831,78 C822.190742,78 822.190742,84.6666667 828.014652,84.6666667 C833.838562,84.6666667 833.838562,78 839.661438,78 C845.484315,78 845.484315,84.6666667 851.306157,84.6666667 C857.128,84.6666667 857.128,78 862.949843,78 C868.773753,78 868.773753,84.6666667 874.597663,84.6666667 C880.419506,84.6666667 880.419506,78 886.241348,78 C892.065258,78 892.065258,84.6666667 897.889169,84.6666667 C903.714112,84.6666667 903.714112,78 909.538022,78 C915.361933,78 915.361933,84.6666667 921.185843,84.6666667 C927.009753,84.6666667 927.009753,78 932.833663,78 C938.658607,78 938.658607,84.6666667 944.482517,84.6666667 C950.308494,84.6666667 950.308494,78 956.134472,78 C961.958382,78 961.958382,84.6666667 967.783326,84.6666667 C973.60827,84.6666667 973.60827,78 979.433213,78 C985.258157,78 985.258157,84.6666667 991.084135,84.6666667 C996.907011,84.6666667 996.907011,78 1002.72989,78 C1008.55483,78 1008.55483,84.6666667 1014.37978,84.6666667 C1020.20679,84.6666667 1020.20679,78 1026.0338,78 C1031.85874,78 1031.85874,84.6666667 1037.68369,84.6666667 C1043.51276,84.6666667 1043.51276,78 1049.34184,78 C1055.17092,78 1055.17092,84.6666667 1061,84.6666667" id="~~~~" sketch:type="MSShapeGroup"></path>
            </g>
        </g>
    </g>
</svg>