<?xml version="1.0" encoding="UTF-8" standalone="no"?>
<svg width="600px" height="463px" viewBox="0 0 600 463" version="1.1" xmlns="http://www.w3.org/2000/svg" xmlns:xlink="http://www.w3.org/1999/xlink" xmlns:sketch="http://www.bohemiancoding.com/sketch/ns">
    <!-- Generator: Sketch 3.2.2 (9983) - http://www.bohemiancoding.com/sketch -->
    <title>Screen</title>
    <desc>Created with Sketch.</desc>
    <defs></defs>
    <g id="Page-1" stroke="none" stroke-width="1" fill="none" fill-rule="evenodd" sketch:type="MSPage">
        <g id="Main" sketch:type="MSArtboardGroup" transform="translate(-300.000000, -1570.000000)">
            <g id="Highlight" sketch:type="MSLayerGroup" transform="translate(0.000000, 1403.000000)">
                <g id="Screen" transform="translate(300.000000, 167.000000)" sketch:type="MSShapeGroup">
                    <path d="M591.040594,2.73834261 L9.58712871,2.73834261 C6.10594059,2.73834261 3.28415842,5.56492291 3.28415842,9.05080728 L3.28415842,396.485638 C3.28415842,399.971522 6.10594059,402.797111 9.58712871,402.797111 L591.040594,402.797111 C594.521782,402.797111 597.343564,399.971522 597.343564,396.485638 L597.343564,9.05080728 C597.343564,5.56492291 594.521782,2.73834261 591.040594,2.73834261" id="Fill-1" fill="#FFFFFF"></path>
                    <path d="M591.040594,405.275698 L9.58712871,405.275698 C4.74752475,405.275698 0.808910891,401.332762 0.808910891,396.485638 L0.808910891,9.04981585 C0.808910891,4.20368308 4.74752475,0.259755889 9.58712871,0.259755889 L591.040594,0.259755889 C595.881188,0.259755889 599.818812,4.20368308 599.818812,9.04981585 L599.818812,396.485638 C599.818812,401.332762 595.881188,405.275698 591.040594,405.275698 L591.040594,405.275698 Z M9.58712871,5.21692934 C7.47722772,5.21692934 5.75940594,6.93706852 5.75940594,9.04981585 L5.75940594,396.485638 C5.75940594,398.599377 7.47722772,400.318525 9.58712871,400.318525 L591.040594,400.318525 C593.151485,400.318525 594.869307,398.599377 594.869307,396.485638 L594.869307,9.04981585 C594.869307,6.93706852 593.151485,5.21692934 591.040594,5.21692934 L9.58712871,5.21692934 L9.58712871,5.21692934 Z" id="Fill-2" fill="#6C4B00"></path>
                    <path d="M3.28415842,342.099497 L597.343564,342.099497" id="Fill-3" fill="#FFFFFF"></path>
                    <path d="M3.28415842,339.62091 L597.343564,339.62091 L597.343564,344.578084 L3.28415842,344.578084 L3.28415842,339.62091 Z" id="Fill-4" fill="#6C4B00"></path>
                    <path d="M3.28415842,32.530955 L597.343564,32.530955" id="Fill-5" fill="#FFFFFF"></path>
                    <path d="M3.28415842,30.0523683 L597.343564,30.0523683 L597.343564,35.0095418 L3.28415842,35.0095418 L3.28415842,30.0523683 Z" id="Fill-6" fill="#6C4B00"></path>
                    <path d="M175.137624,451.050238 L421.853465,451.050238 L421.853465,459.852195 L175.137624,459.852195 L175.137624,451.050238 Z" id="Fill-7" fill="#FFFFFF"></path>
                    <path d="M172.662376,448.571651 L424.329703,448.571651 L424.329703,462.32979 L172.662376,462.32979 L172.662376,448.571651 Z M177.612871,457.373608 L419.379208,457.373608 L419.379208,453.529816 L177.612871,453.529816 L177.612871,457.373608 Z" id="Fill-8" fill="#6C4B00"></path>
                    <path d="M244.545545,402.797111 L352.445545,402.797111 L352.445545,451.050238 L244.545545,451.050238 L244.545545,402.797111 Z" id="Fill-9" fill="#FFFFFF"></path>
                    <path d="M242.070297,400.318525 L354.921782,400.318525 L354.921782,453.528824 L242.070297,453.528824 L242.070297,400.318525 Z M247.020792,448.571651 L349.971287,448.571651 L349.971287,405.275698 L247.020792,405.275698 L247.020792,448.571651 Z" id="Fill-10" fill="#6C4B00"></path>
                    <path d="M101.949505,202.243754 C101.949505,201.704413 102.044554,201.226542 102.235644,200.810139 C102.426733,200.395719 102.693069,200.040786 103.034653,199.749304 C103.377228,199.456831 103.782178,199.234749 104.247525,199.08306 C104.712871,198.93137 105.214851,198.856021 105.753465,198.856021 C106.752475,198.856021 107.60198,199.108837 108.30396,199.614469 C109.00495,200.120101 109.462376,200.861694 109.675248,201.839248 L107.537624,202.698822 C107.413861,202.159482 107.20099,201.776788 106.89802,201.551732 C106.59505,201.327668 106.207921,201.215636 105.736634,201.215636 C105.254455,201.215636 104.89604,201.316762 104.659406,201.519015 C104.423762,201.721268 104.305941,201.968135 104.305941,202.260608 C104.305941,202.473767 104.359406,202.650242 104.466337,202.791026 C104.572277,202.931809 104.720792,203.055739 104.911881,203.161822 C105.10297,203.268897 105.329703,203.367049 105.594059,203.45727 C105.857426,203.54749 106.145545,203.642668 106.460396,203.742803 C106.864356,203.87863 107.251485,204.032302 107.621782,204.206794 C107.992079,204.381287 108.320792,204.600394 108.605941,204.864116 C108.892079,205.127837 109.121782,205.452036 109.29703,205.833739 C109.470297,206.215441 109.557426,206.681415 109.557426,207.231662 C109.557426,207.782899 109.459406,208.271677 109.262376,208.698985 C109.066337,209.126293 108.8,209.482218 108.463366,209.768743 C108.126733,210.055268 107.725743,210.274375 107.259406,210.426064 C106.794059,210.577754 106.292079,210.654094 105.753465,210.654094 C105.293069,210.654094 104.852475,210.597582 104.432673,210.48555 C104.010891,210.372527 103.624752,210.196051 103.271287,209.954141 C102.916832,209.712231 102.614851,209.403895 102.362376,209.02715 C102.109901,208.651396 101.926733,208.199302 101.814851,207.670867 L103.918812,206.76073 C104.154455,207.782899 104.771287,208.29448 105.770297,208.29448 C106.230693,208.29448 106.584158,208.199302 106.830693,208.007955 C107.078218,207.816608 107.20099,207.558835 107.20099,207.231662 C107.20099,207.019495 107.147525,206.836079 107.041584,206.68439 C106.934653,206.5327 106.786139,206.403814 106.59505,206.296739 C106.40396,206.190655 106.183168,206.09746 105.929703,206.019137 C105.677228,205.939822 105.405941,205.85555 105.113861,205.766321 C104.743564,205.654289 104.370297,205.510531 103.99505,205.336039 C103.618812,205.162537 103.279208,204.939465 102.976238,204.669794 C102.673267,204.401116 102.426733,204.069976 102.235644,203.676377 C102.044554,203.282777 101.949505,202.805897 101.949505,202.243754" id="Fill-11" fill="#FFBB2F"></path>
                    <path d="M119.437624,202.226899 L119.437624,210.654094 L117.283168,210.654094 L117.283168,209.373161 C116.992079,209.799478 116.632673,210.15342 116.205941,210.433996 C115.780198,210.715563 115.247525,210.856347 114.607921,210.856347 C113.630693,210.856347 112.90099,210.549994 112.418812,209.937287 C111.935644,209.325572 111.69604,208.502681 111.69604,207.468615 L111.69604,202.226899 L113.968317,202.226899 L113.968317,206.91242 C113.968317,207.519178 114.079208,207.971272 114.30396,208.268702 C114.528713,208.567124 114.888119,208.715839 115.381188,208.715839 C116.009901,208.715839 116.469307,208.487809 116.761386,208.032741 C117.052475,207.577672 117.19901,206.984794 117.19901,206.255099 L117.19901,202.226899 L119.437624,202.226899" id="Fill-12" fill="#FFBB2F"></path>
                    <path d="M129.654455,203.592105 C129.912871,203.131088 130.271287,202.754343 130.730693,202.461869 C131.191089,202.170388 131.775248,202.023655 132.482178,202.023655 C133.469307,202.023655 134.246535,202.332983 134.812871,202.951638 C135.379208,203.569302 135.663366,204.428876 135.663366,205.53036 L135.663366,210.654094 L133.424752,210.654094 L133.424752,205.985428 C133.424752,204.771912 132.919802,204.165154 131.909901,204.165154 C131.573267,204.165154 131.287129,204.226623 131.051485,204.350552 C130.815842,204.47349 130.624752,204.645009 130.479208,204.864116 C130.332673,205.083223 130.226733,205.341987 130.159406,205.639418 C130.091089,205.937839 130.057426,206.266004 130.057426,206.625895 L130.057426,210.654094 L127.836634,210.654094 L127.836634,205.985428 C127.836634,204.771912 127.325743,204.165154 126.30396,204.165154 C125.968317,204.165154 125.684158,204.226623 125.454455,204.350552 C125.224752,204.47349 125.036634,204.645009 124.891089,204.864116 C124.744554,205.083223 124.640594,205.341987 124.579208,205.639418 C124.517822,205.937839 124.487129,206.266004 124.487129,206.625895 L124.487129,210.654094 L122.265347,210.654094 L122.265347,202.226899 L124.418812,202.226899 L124.418812,203.45727 C124.678218,203.052764 125.013861,202.712702 125.428713,202.437084 C125.844554,202.162456 126.383168,202.023655 127.045545,202.023655 C128.30198,202.023655 129.171287,202.547133 129.654455,203.592105" id="Fill-13" fill="#FFBB2F"></path>
                    <path d="M145.879208,203.592105 C146.137624,203.131088 146.49703,202.754343 146.957426,202.461869 C147.416832,202.170388 148.00099,202.023655 148.707921,202.023655 C149.69505,202.023655 150.472277,202.332983 151.039604,202.951638 C151.60495,203.569302 151.889109,204.428876 151.889109,205.53036 L151.889109,210.654094 L149.650495,210.654094 L149.650495,205.985428 C149.650495,204.771912 149.145545,204.165154 148.135644,204.165154 C147.79802,204.165154 147.511881,204.226623 147.277228,204.350552 C147.041584,204.47349 146.850495,204.645009 146.70396,204.864116 C146.558416,205.083223 146.451485,205.341987 146.384158,205.639418 C146.317822,205.937839 146.284158,206.266004 146.284158,206.625895 L146.284158,210.654094 L144.062376,210.654094 L144.062376,205.985428 C144.062376,204.771912 143.551485,204.165154 142.529703,204.165154 C142.194059,204.165154 141.909901,204.226623 141.680198,204.350552 C141.450495,204.47349 141.262376,204.645009 141.116832,204.864116 C140.970297,205.083223 140.866337,205.341987 140.80495,205.639418 C140.742574,205.937839 140.712871,206.266004 140.712871,206.625895 L140.712871,210.654094 L138.490099,210.654094 L138.490099,202.226899 L140.645545,202.226899 L140.645545,203.45727 C140.90396,203.052764 141.239604,202.712702 141.654455,202.437084 C142.070297,202.162456 142.608911,202.023655 143.271287,202.023655 C144.526733,202.023655 145.39703,202.547133 145.879208,203.592105" id="Fill-14" fill="#FFBB2F"></path>
                    <path d="M154.447525,203.945056 C154.726733,203.304589 155.193069,202.827709 155.843564,202.513424 C156.49505,202.198148 157.280198,202.041501 158.2,202.041501 C159.434653,202.041501 160.357426,202.31712 160.969307,202.867366 C161.580198,203.417612 161.887129,204.283135 161.887129,205.462942 L161.887129,210.670949 L159.664356,210.670949 L159.664356,209.523859 C159.439604,209.861938 159.117822,210.165317 158.69703,210.433996 C158.276238,210.703666 157.734653,210.839493 157.072277,210.839493 C156.657426,210.839493 156.275248,210.774058 155.927723,210.645171 C155.580198,210.516285 155.280198,210.335844 155.027723,210.105831 C154.775248,209.875818 154.579208,209.600199 154.438614,209.279966 C154.29901,208.959732 154.227723,208.602816 154.227723,208.210208 C154.227723,207.828505 154.29505,207.482495 154.430693,207.173167 C154.564356,206.863839 154.752475,206.597143 154.994059,206.373079 C155.234653,206.148024 155.518812,205.9656 155.843564,205.824816 C156.169307,205.684032 156.527723,205.597777 156.920792,205.564069 L159.226733,205.361816 C159.518812,205.328107 159.664356,205.215084 159.664356,205.023737 L159.664356,204.889893 C159.664356,204.643026 159.546535,204.439782 159.311881,204.283135 C159.075248,204.125497 158.70495,204.047173 158.2,204.047173 C157.975248,204.047173 157.757426,204.067002 157.544554,204.105668 C157.330693,204.145325 157.128713,204.206794 156.937624,204.291066 C156.747525,204.375338 156.579208,204.485388 156.432673,204.620223 C156.287129,204.754066 156.175248,204.923602 156.09604,205.125854 L154.447525,203.945056 L154.447525,203.945056 Z M159.664356,206.91242 L157.577228,207.165236 C157.229703,207.221747 156.968317,207.330805 156.79505,207.4934 C156.620792,207.656987 156.534653,207.856266 156.534653,208.092227 C156.534653,208.361897 156.634653,208.57803 156.836634,208.740625 C157.039604,208.903221 157.335644,208.984518 157.729703,208.984518 C158.019802,208.984518 158.287129,208.937921 158.528713,208.841752 C158.769307,208.746574 158.975248,208.61967 159.142574,208.463024 C159.311881,208.305385 159.439604,208.122961 159.529703,207.91476 C159.619802,207.706559 159.664356,207.485469 159.664356,207.249507 L159.664356,206.91242 L159.664356,206.91242 Z" id="Fill-15" fill="#FFBB2F"></path>
                    <path d="M432.264356,210.474645 L432.264356,209.412818 C432.264356,209.293846 432.325743,209.230394 432.446535,209.224445 L435.388119,209.224445 L435.388119,200.144887 L432.734653,201.59139 C432.664356,201.62609 432.59802,201.643936 432.533663,201.643936 C432.453465,201.643936 432.411881,201.588415 432.411881,201.478366 L432.411881,200.248987 C432.411881,200.144887 432.475248,200.054666 432.60297,199.979317 L435.762376,198.254221 C435.854455,198.195726 435.941584,198.164 436.022772,198.158051 L436.667327,198.158051 C436.783168,198.158051 436.843564,198.21952 436.849505,198.340475 L436.849505,209.224445 L439.791089,209.224445 C439.907921,209.224445 439.965347,209.286906 439.965347,209.412818 L439.965347,210.474645 C439.965347,210.594608 439.907921,210.654094 439.791089,210.654094 L432.446535,210.654094 C432.325743,210.654094 432.264356,210.594608 432.264356,210.474645" id="Fill-16" fill="#6C4B00"></path>
                    <path d="M442.983168,209.11043 C442.157426,207.965323 441.743564,206.395882 441.743564,204.401116 C441.743564,202.40734 442.157426,200.838891 442.983168,199.696758 C443.810891,198.555617 444.906931,197.983559 446.273267,197.983559 C447.639604,197.983559 448.734653,198.555617 449.558416,199.696758 C450.382178,200.838891 450.794059,202.40734 450.794059,204.401116 C450.794059,206.395882 450.382178,207.965323 449.558416,209.11043 C448.734653,210.255537 447.639604,210.827595 446.273267,210.827595 C444.906931,210.827595 443.810891,210.255537 442.983168,209.11043 L442.983168,209.11043 Z M443.240594,204.401116 C443.240594,206.495026 443.631683,207.936572 444.415842,208.727737 L446.964356,199.447908 C446.774257,199.424113 446.541584,199.413208 446.269307,199.413208 C444.249505,199.407259 443.240594,201.069895 443.240594,204.401116 L443.240594,204.401116 Z M445.565347,209.371178 C445.757426,209.390015 445.990099,209.398938 446.263366,209.398938 C448.286139,209.398938 449.29703,207.727379 449.29703,204.384261 C449.29703,202.30324 448.90297,200.871608 448.114851,200.090358 L445.565347,209.371178 L445.565347,209.371178 Z" id="Fill-17" fill="#6C4B00"></path>
                    <path d="M454.492079,209.11043 C453.664356,207.965323 453.251485,206.395882 453.251485,204.401116 C453.251485,202.40734 453.664356,200.838891 454.492079,199.696758 C455.317822,198.555617 456.414851,197.983559 457.781188,197.983559 C459.146535,197.983559 460.242574,198.555617 461.065347,199.696758 C461.889109,200.838891 462.30198,202.40734 462.30198,204.401116 C462.30198,206.395882 461.889109,207.965323 461.065347,209.11043 C460.242574,210.255537 459.146535,210.827595 457.781188,210.827595 C456.414851,210.827595 455.317822,210.255537 454.492079,209.11043 L454.492079,209.11043 Z M454.748515,204.401116 C454.748515,206.495026 455.139604,207.936572 455.923762,208.727737 L458.472277,199.447908 C458.281188,199.424113 458.049505,199.413208 457.776238,199.413208 C455.757426,199.407259 454.748515,201.069895 454.748515,204.401116 L454.748515,204.401116 Z M457.073267,209.371178 C457.264356,209.390015 457.49703,209.398938 457.771287,209.398938 C459.794059,209.398938 460.80495,207.727379 460.80495,204.384261 C460.80495,202.30324 460.410891,200.871608 459.622772,200.090358 L457.073267,209.371178 L457.073267,209.371178 Z" id="Fill-18" fill="#6C4B00"></path>
                    <path d="M465.99901,209.11043 C465.172277,207.965323 464.759406,206.395882 464.759406,204.401116 C464.759406,202.40734 465.172277,200.838891 465.99901,199.696758 C466.825743,198.555617 467.922772,197.983559 469.288119,197.983559 C470.654455,197.983559 471.750495,198.555617 472.574257,199.696758 C473.39802,200.838891 473.808911,202.40734 473.808911,204.401116 C473.808911,206.395882 473.39802,207.965323 472.574257,209.11043 C471.750495,210.255537 470.654455,210.827595 469.288119,210.827595 C467.922772,210.827595 466.825743,210.255537 465.99901,209.11043 L465.99901,209.11043 Z M466.255446,204.401116 C466.255446,206.495026 466.647525,207.936572 467.430693,208.727737 L469.980198,199.447908 C469.789109,199.424113 469.557426,199.413208 469.284158,199.413208 C467.265347,199.407259 466.255446,201.069895 466.255446,204.401116 L466.255446,204.401116 Z M468.580198,209.371178 C468.772277,209.390015 469.00495,209.398938 469.278218,209.398938 C471.30099,209.398938 472.312871,207.727379 472.312871,204.384261 C472.312871,202.30324 471.918812,200.871608 471.130693,200.090358 L468.580198,209.371178 L468.580198,209.371178 Z" id="Fill-19" fill="#6C4B00"></path>
                    <path d="M481.961386,210.479602 L481.961386,198.341467 C481.961386,198.224478 482.021782,198.164 482.143564,198.158051 L483.179208,198.158051 C483.29604,198.158051 483.353465,198.21952 483.353465,198.341467 L483.353465,205.617606 L487.225743,201.853128 C487.329703,201.748036 487.422772,201.69549 487.50396,201.69549 L488.984158,201.69549 C489.076238,201.69549 489.125743,201.736139 489.131683,201.817437 C489.131683,201.864034 489.10495,201.913606 489.053465,201.966152 L485.955446,204.997959 L489.305941,210.383433 C489.328713,210.418133 489.340594,210.461756 489.340594,210.514302 C489.340594,210.607497 489.288119,210.654094 489.184158,210.654094 L487.913861,210.654094 C487.780198,210.654094 487.687129,210.601548 487.634653,210.496456 L484.850495,206.035 L483.353465,207.455726 L483.353465,210.479602 C483.353465,210.5956 483.29604,210.654094 483.179208,210.654094 L482.143564,210.654094 C482.021782,210.654094 481.961386,210.5956 481.961386,210.479602" id="Fill-20" fill="#6C4B00"></path>
                    <path d="M491.736634,210.479602 L491.736634,201.869983 C491.736634,201.753985 491.79802,201.69549 491.919802,201.69549 L492.955446,201.69549 C493.071287,201.69549 493.129703,201.753985 493.129703,201.869983 L493.129703,202.854478 C493.785149,201.960203 494.658416,201.513066 495.749505,201.513066 C496.938614,201.513066 497.782178,202.038527 498.281188,203.090439 C498.30495,203.137036 498.315842,203.177685 498.315842,203.212385 C498.315842,203.293683 498.281188,203.351186 498.210891,203.386878 L497.314851,203.978764 C497.280198,204.002559 497.239604,204.013465 497.193069,204.013465 C497.123762,204.013465 497.077228,203.984713 497.054455,203.926218 C496.80495,203.51973 496.549505,203.237171 496.288119,203.076559 C496.026733,202.916938 495.688119,202.837623 495.270297,202.837623 C494.614851,202.837623 494.094059,203.155874 493.707921,203.791383 C493.321782,204.427884 493.129703,205.199221 493.129703,206.105392 L493.129703,210.479602 C493.129703,210.5956 493.071287,210.654094 492.955446,210.654094 L491.919802,210.654094 C491.79802,210.654094 491.736634,210.5956 491.736634,210.479602" id="Fill-21" fill="#6C4B00"></path>
                    <path d="M104.693069,258.242959 L102.336634,258.242959 L102.336634,246.444887 L104.608911,246.444887 L109.574257,255.158606 L114.522772,246.444887 L116.79505,246.444887 L116.79505,258.242959 L114.438614,258.242959 L114.438614,251.383223 L110.533663,258.242959 L108.59802,258.242959 L104.693069,251.383223 L104.693069,258.242959" id="Fill-22" fill="#FFBB2F"></path>
                    <path d="M119.336634,254.029362 C119.336634,253.376998 119.451485,252.779163 119.682178,252.233874 C119.911881,251.689576 120.228713,251.22261 120.632673,250.834959 C121.036634,250.447308 121.513861,250.146904 122.063366,249.933745 C122.612871,249.719595 123.213861,249.61252 123.864356,249.61252 C124.514851,249.61252 125.115842,249.719595 125.665347,249.933745 C126.214851,250.146904 126.692079,250.447308 127.09604,250.834959 C127.5,251.22261 127.816832,251.689576 128.047525,252.233874 C128.277228,252.779163 128.392079,253.376998 128.392079,254.029362 C128.392079,254.692632 128.277228,255.29245 128.047525,255.83179 C127.816832,256.371131 127.5,256.835122 127.09604,257.222773 C126.692079,257.610424 126.214851,257.91182 125.665347,258.123987 C125.115842,258.338137 124.514851,258.445212 123.864356,258.445212 C123.213861,258.445212 122.612871,258.338137 122.063366,258.123987 C121.513861,257.91182 121.036634,257.610424 120.632673,257.222773 C120.228713,256.835122 119.911881,256.371131 119.682178,255.83179 C119.451485,255.29245 119.336634,254.692632 119.336634,254.029362 L119.336634,254.029362 Z M126.10297,254.029362 C126.10297,253.692274 126.046535,253.385921 125.934653,253.110302 C125.821782,252.834683 125.665347,252.599713 125.463366,252.402418 C125.261386,252.206113 125.022772,252.054424 124.748515,251.947349 C124.473267,251.841266 124.179208,251.786737 123.864356,251.786737 C123.549505,251.786737 123.255446,251.841266 122.980198,251.947349 C122.705941,252.054424 122.467327,252.206113 122.265347,252.402418 C122.063366,252.599713 121.905941,252.834683 121.794059,253.110302 C121.682178,253.385921 121.625743,253.692274 121.625743,254.029362 C121.625743,254.365458 121.682178,254.672803 121.794059,254.94743 C121.905941,255.223049 122.063366,255.459011 122.265347,255.655315 C122.467327,255.851619 122.705941,256.003308 122.980198,256.110383 C123.255446,256.217458 123.549505,256.270996 123.864356,256.270996 C124.179208,256.270996 124.473267,256.217458 124.748515,256.110383 C125.022772,256.003308 125.261386,255.851619 125.463366,255.655315 C125.665347,255.459011 125.821782,255.223049 125.934653,254.94743 C126.046535,254.672803 126.10297,254.365458 126.10297,254.029362 L126.10297,254.029362 Z" id="Fill-23" fill="#FFBB2F"></path>
                    <path d="M138.052475,251.18097 C138.311881,250.719953 138.670297,250.343208 139.130693,250.050734 C139.590099,249.759253 140.174257,249.61252 140.881188,249.61252 C141.868317,249.61252 142.645545,249.921848 143.212871,250.540503 C143.779208,251.158167 144.062376,252.017741 144.062376,253.119225 L144.062376,258.242959 L141.823762,258.242959 L141.823762,253.574293 C141.823762,252.360777 141.318812,251.754019 140.308911,251.754019 C139.972277,251.754019 139.686139,251.815488 139.450495,251.939418 C139.214851,252.062355 139.023762,252.233874 138.877228,252.452981 C138.732673,252.672088 138.625743,252.930852 138.558416,253.228283 C138.491089,253.526704 138.457426,253.854869 138.457426,254.21476 L138.457426,258.242959 L136.235644,258.242959 L136.235644,253.574293 C136.235644,252.360777 135.724752,251.754019 134.70396,251.754019 C134.367327,251.754019 134.084158,251.815488 133.853465,251.939418 C133.623762,252.062355 133.435644,252.233874 133.290099,252.452981 C133.143564,252.672088 133.039604,252.930852 132.978218,253.228283 C132.916832,253.526704 132.886139,253.854869 132.886139,254.21476 L132.886139,258.242959 L130.664356,258.242959 L130.664356,249.815764 L132.818812,249.815764 L132.818812,251.046135 C133.077228,250.64163 133.413861,250.301567 133.827723,250.025949 C134.243564,249.751321 134.782178,249.61252 135.444554,249.61252 C136.70099,249.61252 137.570297,250.135998 138.052475,251.18097" id="Fill-24" fill="#FFBB2F"></path>
                    <path d="M146.688119,252.29336 C146.688119,251.438743 147.00198,250.778448 147.630693,250.312473 C148.259406,249.846499 149.128713,249.61252 150.239604,249.61252 C151.013861,249.61252 151.672277,249.725544 152.216832,249.9506 C152.761386,250.174664 153.217822,250.479034 153.589109,250.860737 L152.343564,252.478758 C152.107921,252.219994 151.782178,252.011792 151.367327,251.855146 C150.951485,251.697507 150.519802,251.618193 150.071287,251.618193 C149.352475,251.618193 148.994059,251.815488 148.994059,252.209088 C148.994059,252.310214 149.024752,252.39746 149.086139,252.469835 C149.147525,252.543201 149.254455,252.610619 149.405941,252.672088 C149.557426,252.733557 149.759406,252.793043 150.011881,252.849555 C150.264356,252.905075 150.576238,252.973484 150.946535,253.051807 C151.316832,253.130131 151.663366,253.228283 151.990099,253.346263 C152.315842,253.464244 152.59901,253.623865 152.839604,253.826118 C153.081188,254.029362 153.274257,254.282178 153.420792,254.585557 C153.566337,254.888936 153.639604,255.259732 153.639604,255.697946 C153.639604,256.663604 153.313861,257.363557 152.663366,257.795822 C152.012871,258.228088 151.125743,258.445212 150.00396,258.445212 C149.19604,258.445212 148.463366,258.330206 147.806931,258.099201 C147.150495,257.869188 146.637624,257.518221 146.266337,257.046298 L147.563366,255.359867 C147.843564,255.697946 148.208911,255.964642 148.657426,256.160946 C149.105941,256.358242 149.627723,256.456394 150.222772,256.456394 C150.536634,256.456394 150.80297,256.407814 151.021782,256.312636 C151.240594,256.217458 151.350495,256.051889 151.350495,255.814936 C151.350495,255.703895 151.319802,255.607726 151.257426,255.529403 C151.19604,255.451079 151.092079,255.38267 150.946535,255.32715 C150.8,255.270638 150.606931,255.214126 150.366337,255.158606 C150.124752,255.102094 149.829703,255.034677 149.481188,254.956353 C149.167327,254.888936 148.845545,254.798715 148.514851,254.686683 C148.183168,254.57366 147.883168,254.417013 147.613861,254.21476 C147.344554,254.011516 147.122772,253.756717 146.948515,253.44739 C146.774257,253.139054 146.688119,252.754377 146.688119,252.29336" id="Fill-25" fill="#FFBB2F"></path>
                    <path d="M442.877228,258.06351 L442.877228,257.296139 C442.877228,257.12363 442.942574,256.980863 443.072277,256.866848 L447.983168,252.080201 C448.424752,251.653884 448.725743,251.24343 448.886139,250.847848 C449.045545,250.452266 449.125743,249.937711 449.125743,249.303193 C449.125743,248.594317 448.909901,248.033165 448.480198,247.620728 C448.049505,247.208291 447.460396,247.002073 446.710891,247.002073 C445.925743,247.002073 445.325743,247.227128 444.909901,247.67724 C444.49505,248.127351 444.287129,248.69346 444.287129,249.375567 C444.287129,249.553034 444.210891,249.642263 444.058416,249.642263 L443.106931,249.642263 C442.965347,249.642263 442.89505,249.552043 442.89505,249.371602 C442.917822,248.280032 443.268317,247.373861 443.947525,246.653088 C444.626733,245.933306 445.547525,245.572424 446.710891,245.572424 C447.877228,245.572424 448.815842,245.935289 449.524752,246.659036 C450.232673,247.382784 450.587129,248.253263 450.587129,249.268493 C450.587129,250.04776 450.459406,250.726893 450.20396,251.305891 C449.948515,251.886872 449.541584,252.452981 448.983168,253.006201 L445.00198,256.81331 L450.726733,256.81331 C450.842574,256.81331 450.90396,256.875771 450.908911,257.001683 L450.908911,258.06351 C450.908911,258.183473 450.848515,258.242959 450.726733,258.242959 L443.050495,258.242959 C442.934653,258.242959 442.877228,258.183473 442.877228,258.06351" id="Fill-26" fill="#6C4B00"></path>
                    <path d="M453.09703,254.739229 C453.09703,254.576634 453.169307,254.495336 453.313861,254.495336 L454.323762,254.495336 C454.439604,254.495336 454.517822,254.584565 454.558416,254.761041 C454.663366,255.429268 454.926733,255.967617 455.350495,256.375096 C455.774257,256.783567 456.336634,256.987803 457.038614,256.987803 C457.892079,256.987803 458.561386,256.739944 459.048515,256.244227 C459.536634,255.74851 459.780198,255.080283 459.780198,254.238555 C459.780198,253.362126 459.547525,252.661182 459.084158,252.136713 C458.619802,251.612244 457.967327,251.349514 457.125743,251.349514 C456.29604,251.349514 455.487129,251.700482 454.69802,252.401426 C454.593069,252.502552 454.49505,252.555099 454.40198,252.561047 L453.369307,252.561047 C453.252475,252.561047 453.192079,252.51445 453.186139,252.422246 L453.947525,245.930332 C453.959406,245.813343 454.020792,245.752865 454.130693,245.746916 L460.336634,245.746916 C460.453465,245.746916 460.510891,245.809377 460.510891,245.935289 L460.510891,246.997116 C460.510891,247.116088 460.453465,247.176565 460.336634,247.176565 L455.219802,247.176565 L454.728713,250.819096 C455.568317,250.22027 456.457426,249.920857 457.39604,249.920857 C458.59703,249.920857 459.537624,250.306525 460.218812,251.076869 C460.90099,251.847214 461.241584,252.890203 461.241584,254.202863 C461.241584,255.493711 460.835644,256.518854 460.023762,257.278293 C459.211881,258.037732 458.216832,258.41646 457.038614,258.41646 C455.89604,258.41646 454.953465,258.061527 454.210891,257.350668 C453.468317,256.639809 453.09703,255.76933 453.09703,254.739229" id="Fill-27" fill="#6C4B00"></path>
                    <path d="M465.008911,256.699296 C464.182178,255.554188 463.769307,253.984747 463.769307,251.989981 C463.769307,249.996206 464.182178,248.427756 465.008911,247.285623 C465.835644,246.144482 466.931683,245.572424 468.29802,245.572424 C469.664356,245.572424 470.759406,246.144482 471.583168,247.285623 C472.406931,248.427756 472.818812,249.996206 472.818812,251.989981 C472.818812,253.984747 472.406931,255.554188 471.583168,256.699296 C470.759406,257.844403 469.664356,258.41646 468.29802,258.41646 C466.931683,258.41646 465.835644,257.844403 465.008911,256.699296 L465.008911,256.699296 Z M465.266337,251.989981 C465.266337,254.083891 465.657426,255.525437 466.440594,256.316602 L468.990099,247.036773 C468.79901,247.012979 468.566337,247.002073 468.294059,247.002073 C466.275248,246.996124 465.266337,248.65876 465.266337,251.989981 L465.266337,251.989981 Z M467.591089,256.960043 C467.782178,256.97888 468.014851,256.987803 468.288119,256.987803 C470.310891,256.987803 471.322772,255.316244 471.322772,251.973126 C471.322772,249.892105 470.928713,248.460473 470.140594,247.679223 L467.591089,256.960043 L467.591089,256.960043 Z" id="Fill-28" fill="#6C4B00"></path>
                    <path d="M480.971287,258.068467 L480.971287,245.930332 C480.971287,245.813343 481.032673,245.752865 481.154455,245.746916 L482.190099,245.746916 C482.305941,245.746916 482.363366,245.808385 482.363366,245.930332 L482.363366,253.206471 L486.236634,249.441994 C486.340594,249.336901 486.432673,249.284355 486.513861,249.284355 L487.994059,249.284355 C488.087129,249.284355 488.135644,249.325004 488.141584,249.407293 C488.141584,249.452899 488.115842,249.502471 488.064356,249.555017 L484.966337,252.586824 L488.315842,257.972298 C488.338614,258.006998 488.350495,258.050621 488.350495,258.103167 C488.350495,258.196362 488.29901,258.242959 488.194059,258.242959 L486.922772,258.242959 C486.790099,258.242959 486.69703,258.190413 486.645545,258.085321 L483.860396,253.623865 L482.363366,255.044591 L482.363366,258.068467 C482.363366,258.184465 482.305941,258.242959 482.190099,258.242959 L481.154455,258.242959 C481.032673,258.242959 480.971287,258.184465 480.971287,258.068467" id="Fill-29" fill="#6C4B00"></path>
                    <path d="M490.746535,258.068467 L490.746535,249.458848 C490.746535,249.34285 490.807921,249.284355 490.929703,249.284355 L491.965347,249.284355 C492.082178,249.284355 492.139604,249.34285 492.139604,249.458848 L492.139604,250.443343 C492.79505,249.549069 493.668317,249.101931 494.759406,249.101931 C495.948515,249.101931 496.792079,249.627392 497.291089,250.679304 C497.314851,250.725901 497.325743,250.76655 497.325743,250.801251 C497.325743,250.882548 497.291089,250.940051 497.220792,250.975743 L496.324752,251.56763 C496.291089,251.591424 496.249505,251.60233 496.20297,251.60233 C496.133663,251.60233 496.087129,251.573578 496.064356,251.515084 C495.814851,251.108595 495.559406,250.826036 495.29802,250.665424 C495.036634,250.505803 494.69802,250.426488 494.280198,250.426488 C493.624752,250.426488 493.10396,250.744739 492.718812,251.380248 C492.331683,252.016749 492.139604,252.788086 492.139604,253.694257 L492.139604,258.068467 C492.139604,258.184465 492.082178,258.242959 491.965347,258.242959 L490.929703,258.242959 C490.807921,258.242959 490.746535,258.184465 490.746535,258.068467" id="Fill-30" fill="#6C4B00"></path>
                    <path d="M107.790099,296.393366 L107.790099,305.831824 L105.433663,305.831824 L105.433663,296.393366 L101.175248,296.393366 L101.175248,294.033752 L112.048515,294.033752 L112.048515,296.393366 L107.790099,296.393366" id="Fill-31" fill="#FFBB2F"></path>
                    <path d="M111.79604,301.618227 C111.79604,300.965863 111.910891,300.368028 112.141584,299.822739 C112.371287,299.278441 112.688119,298.811475 113.093069,298.423824 C113.49604,298.036173 113.973267,297.735769 114.522772,297.52261 C115.073267,297.30846 115.673267,297.201385 116.323762,297.201385 C116.975248,297.201385 117.575248,297.30846 118.125743,297.52261 C118.675248,297.735769 119.151485,298.036173 119.555446,298.423824 C119.959406,298.811475 120.276238,299.278441 120.506931,299.822739 C120.736634,300.368028 120.851485,300.965863 120.851485,301.618227 C120.851485,302.281497 120.736634,302.881315 120.506931,303.421647 C120.276238,303.959996 119.959406,304.423987 119.555446,304.811638 C119.151485,305.199289 118.675248,305.500685 118.125743,305.712852 C117.575248,305.927002 116.975248,306.034077 116.323762,306.034077 C115.673267,306.034077 115.073267,305.927002 114.522772,305.712852 C113.973267,305.500685 113.49604,305.199289 113.093069,304.811638 C112.688119,304.423987 112.371287,303.959996 112.141584,303.421647 C111.910891,302.881315 111.79604,302.281497 111.79604,301.618227 L111.79604,301.618227 Z M118.563366,301.618227 C118.563366,301.281139 118.506931,300.974786 118.39505,300.699167 C118.282178,300.423548 118.125743,300.188578 117.922772,299.991283 C117.720792,299.794979 117.483168,299.643289 117.207921,299.536214 C116.932673,299.430131 116.637624,299.375602 116.323762,299.375602 C116.009901,299.375602 115.714851,299.430131 115.440594,299.536214 C115.165347,299.643289 114.926733,299.794979 114.724752,299.991283 C114.522772,300.188578 114.365347,300.423548 114.253465,300.699167 C114.141584,300.974786 114.085149,301.281139 114.085149,301.618227 C114.085149,301.954323 114.141584,302.261668 114.253465,302.536296 C114.365347,302.811914 114.522772,303.047876 114.724752,303.24418 C114.926733,303.440484 115.165347,303.592173 115.440594,303.699248 C115.714851,303.806323 116.009901,303.859861 116.323762,303.859861 C116.637624,303.859861 116.932673,303.806323 117.207921,303.699248 C117.483168,303.592173 117.720792,303.440484 117.922772,303.24418 C118.125743,303.047876 118.282178,302.811914 118.39505,302.536296 C118.506931,302.261668 118.563366,301.954323 118.563366,301.618227 L118.563366,301.618227 Z" id="Fill-32" fill="#FFBB2F"></path>
                    <path d="M127.239604,305.848679 C126.930693,305.893293 126.635644,305.916096 126.355446,305.916096 C125.570297,305.916096 124.961386,305.712852 124.529703,305.309338 C124.09703,304.904833 123.881188,304.219752 123.881188,303.253103 L123.881188,299.275467 L122.349505,299.275467 L122.349505,297.40463 L123.881188,297.40463 L123.881188,295.146141 L126.10297,295.146141 L126.10297,297.40463 L128.241584,297.40463 L128.241584,299.275467 L126.10297,299.275467 L126.10297,302.932869 C126.10297,303.20254 126.170297,303.395869 126.30495,303.51385 C126.439604,303.631831 126.653465,303.690325 126.944554,303.690325 C127.112871,303.690325 127.284158,303.682394 127.458416,303.66554 C127.631683,303.648685 127.871287,303.612002 128.173267,303.556482 L128.173267,305.663281 C127.859406,305.741604 127.547525,305.803073 127.239604,305.848679" id="Fill-33" fill="#FFBB2F"></path>
                    <path d="M130.159406,299.123777 C130.440594,298.48331 130.905941,298.005439 131.556436,297.691154 C132.207921,297.375878 132.993069,297.219231 133.913861,297.219231 C135.147525,297.219231 136.069307,297.49485 136.682178,298.045096 C137.294059,298.595343 137.59901,299.460865 137.59901,300.640672 L137.59901,305.848679 L135.377228,305.848679 L135.377228,304.70258 C135.152475,305.039668 134.830693,305.343047 134.409901,305.611726 C133.989109,305.881396 133.447525,306.017223 132.785149,306.017223 C132.370297,306.017223 131.988119,305.951788 131.641584,305.822901 C131.293069,305.694015 130.993069,305.513574 130.740594,305.283561 C130.487129,305.053548 130.292079,304.777929 130.151485,304.457696 C130.010891,304.137463 129.940594,303.780546 129.940594,303.387938 C129.940594,303.006236 130.007921,302.660225 130.143564,302.350897 C130.277228,302.04157 130.465347,301.774874 130.706931,301.550809 C130.947525,301.325754 131.230693,301.14333 131.556436,301.002546 C131.882178,300.861762 132.240594,300.775507 132.633663,300.741799 L134.939604,300.539546 C135.231683,300.505837 135.377228,300.392814 135.377228,300.201467 L135.377228,300.067623 C135.377228,299.820756 135.259406,299.617512 135.023762,299.460865 C134.788119,299.303227 134.417822,299.224904 133.913861,299.224904 C133.688119,299.224904 133.469307,299.244732 133.256436,299.283398 C133.043564,299.323056 132.841584,299.384525 132.651485,299.468797 C132.459406,299.553069 132.291089,299.663118 132.145545,299.797953 C132,299.931797 131.888119,300.101332 131.808911,300.303585 L130.159406,299.123777 L130.159406,299.123777 Z M135.377228,302.09015 L133.291089,302.342966 C132.942574,302.399478 132.681188,302.508535 132.507921,302.671131 C132.333663,302.834717 132.246535,303.033996 132.246535,303.269957 C132.246535,303.539627 132.348515,303.75576 132.549505,303.918355 C132.751485,304.080951 133.048515,304.16324 133.441584,304.16324 C133.733663,304.16324 134,304.115651 134.241584,304.019482 C134.483168,303.924304 134.687129,303.7974 134.855446,303.640754 C135.023762,303.483116 135.152475,303.300692 135.242574,303.09249 C135.332673,302.884289 135.377228,302.663199 135.377228,302.427238 L135.377228,302.09015 L135.377228,302.09015 Z" id="Fill-34" fill="#FFBB2F"></path>
                    <path d="M140.325743,294.033752 L142.564356,294.033752 L142.564356,305.831824 L140.325743,305.831824 L140.325743,294.033752 Z" id="Fill-35" fill="#FFBB2F"></path>
                    <path d="M149.457426,305.848679 C149.148515,305.893293 148.853465,305.916096 148.573267,305.916096 C147.787129,305.916096 147.178218,305.712852 146.747525,305.309338 C146.314851,304.904833 146.09901,304.219752 146.09901,303.253103 L146.09901,299.275467 L144.567327,299.275467 L144.567327,297.40463 L146.09901,297.40463 L146.09901,295.146141 L148.320792,295.146141 L148.320792,297.40463 L150.458416,297.40463 L150.458416,299.275467 L148.320792,299.275467 L148.320792,302.932869 C148.320792,303.20254 148.388119,303.395869 148.522772,303.51385 C148.657426,303.631831 148.870297,303.690325 149.162376,303.690325 C149.330693,303.690325 149.50198,303.682394 149.675248,303.66554 C149.849505,303.648685 150.088119,303.612002 150.391089,303.556482 L150.391089,305.663281 C150.077228,305.741604 149.765347,305.803073 149.457426,305.848679" id="Fill-36" fill="#FFBB2F"></path>
                    <path d="M427.987129,305.652375 L427.987129,304.590548 C427.987129,304.471576 428.048515,304.408124 428.169307,304.402176 L431.110891,304.402176 L431.110891,295.322617 L428.457426,296.76912 C428.387129,296.80382 428.320792,296.821666 428.256436,296.821666 C428.176238,296.821666 428.135644,296.766146 428.135644,296.656096 L428.135644,295.426717 C428.135644,295.322617 428.19802,295.232396 428.325743,295.157047 L431.485149,293.431951 C431.578218,293.373456 431.665347,293.34173 431.746535,293.335782 L432.390099,293.335782 C432.505941,293.335782 432.567327,293.397251 432.573267,293.518206 L432.573267,304.402176 L435.514851,304.402176 C435.630693,304.402176 435.689109,304.464636 435.689109,304.590548 L435.689109,305.652375 C435.689109,305.772338 435.630693,305.831824 435.514851,305.831824 L428.169307,305.831824 C428.048515,305.831824 427.987129,305.772338 427.987129,305.652375" id="Fill-37" fill="#6C4B00"></path>
                    <path d="M443.057426,305.652375 L443.057426,304.885004 C443.057426,304.712495 443.122772,304.569728 443.252475,304.455713 L448.163366,299.669066 C448.60495,299.242749 448.905941,298.832296 449.065347,298.436713 C449.224752,298.041131 449.30495,297.526576 449.30495,296.892058 C449.30495,296.183182 449.090099,295.62203 448.660396,295.209593 C448.229703,294.797156 447.640594,294.590938 446.890099,294.590938 C446.105941,294.590938 445.505941,294.815994 445.090099,295.266105 C444.675248,295.716216 444.467327,296.282325 444.467327,296.964433 C444.467327,297.141899 444.391089,297.231128 444.237624,297.231128 L443.287129,297.231128 C443.145545,297.231128 443.074257,297.140908 443.074257,296.960467 C443.09802,295.868897 443.448515,294.962726 444.127723,294.241953 C444.806931,293.522171 445.727723,293.161289 446.890099,293.161289 C448.057426,293.161289 448.99604,293.524154 449.70396,294.247901 C450.412871,294.971649 450.767327,295.842128 450.767327,296.857358 C450.767327,297.636625 450.639604,298.315758 450.384158,298.894756 C450.127723,299.475737 449.721782,300.041846 449.163366,300.595066 L445.181188,304.402176 L450.905941,304.402176 C451.022772,304.402176 451.083168,304.464636 451.089109,304.590548 L451.089109,305.652375 C451.089109,305.772338 451.028713,305.831824 450.906931,305.831824 L443.230693,305.831824 C443.114851,305.831824 443.057426,305.772338 443.057426,305.652375" id="Fill-38" fill="#6C4B00"></path>
                    <path d="M453.276238,302.328094 C453.276238,302.165499 453.349505,302.084201 453.494059,302.084201 L454.50396,302.084201 C454.619802,302.084201 454.69802,302.17343 454.738614,302.349906 C454.842574,303.018133 455.106931,303.556482 455.530693,303.963961 C455.954455,304.372433 456.516832,304.576668 457.218812,304.576668 C458.072277,304.576668 458.741584,304.328809 459.228713,303.833092 C459.715842,303.337375 459.959406,302.669148 459.959406,301.82742 C459.959406,300.950991 459.727723,300.250047 459.263366,299.725578 C458.8,299.201109 458.146535,298.938379 457.305941,298.938379 C456.476238,298.938379 455.666337,299.289347 454.878218,299.990291 C454.773267,300.091418 454.675248,300.143964 454.582178,300.149912 L453.549505,300.149912 C453.432673,300.149912 453.372277,300.103315 453.366337,300.011111 L454.128713,293.519197 C454.139604,293.402208 454.20099,293.34173 454.310891,293.335782 L460.516832,293.335782 C460.632673,293.335782 460.691089,293.398242 460.691089,293.524154 L460.691089,294.585981 C460.691089,294.704953 460.632673,294.76543 460.516832,294.76543 L455.4,294.76543 L454.908911,298.407961 C455.747525,297.809135 456.637624,297.509722 457.575248,297.509722 C458.776238,297.509722 459.717822,297.89539 460.39901,298.665734 C461.081188,299.436079 461.421782,300.479069 461.421782,301.791728 C461.421782,303.082576 461.015842,304.107719 460.20297,304.867158 C459.391089,305.626597 458.39703,306.005325 457.218812,306.005325 C456.076238,306.005325 455.132673,305.650392 454.390099,304.939533 C453.647525,304.228675 453.276238,303.358195 453.276238,302.328094" id="Fill-39" fill="#6C4B00"></path>
                    <path d="M465.189109,304.288161 C464.362376,303.143054 463.948515,301.573612 463.948515,299.578846 C463.948515,297.585071 464.362376,296.016621 465.189109,294.874488 C466.015842,293.733347 467.111881,293.161289 468.478218,293.161289 C469.844554,293.161289 470.940594,293.733347 471.763366,294.874488 C472.587129,296.016621 472.99901,297.585071 472.99901,299.578846 C472.99901,301.573612 472.587129,303.143054 471.763366,304.288161 C470.940594,305.433268 469.844554,306.005325 468.478218,306.005325 C467.111881,306.005325 466.015842,305.433268 465.189109,304.288161 L465.189109,304.288161 Z M465.445545,299.578846 C465.445545,301.672756 465.837624,303.114302 466.620792,303.905467 L469.170297,294.625638 C468.979208,294.601844 468.746535,294.590938 468.474257,294.590938 C466.455446,294.584989 465.445545,296.247625 465.445545,299.578846 L465.445545,299.578846 Z M467.771287,304.548908 C467.962376,304.567745 468.19505,304.576668 468.468317,304.576668 C470.491089,304.576668 471.50198,302.905109 471.50198,299.561991 C471.50198,297.48097 471.108911,296.049338 470.320792,295.268088 L467.771287,304.548908 L467.771287,304.548908 Z" id="Fill-40" fill="#6C4B00"></path>
                    <path d="M481.151485,305.657332 L481.151485,293.519197 C481.151485,293.402208 481.211881,293.34173 481.334653,293.335782 L482.369307,293.335782 C482.486139,293.335782 482.543564,293.397251 482.543564,293.519197 L482.543564,300.795336 L486.415842,297.030859 C486.520792,296.925767 486.613861,296.873221 486.69505,296.873221 L488.174257,296.873221 C488.266337,296.873221 488.315842,296.913869 488.321782,296.996158 C488.321782,297.041764 488.29604,297.091336 488.243564,297.143882 L485.145545,300.17569 L488.49604,305.561163 C488.518812,305.595863 488.530693,305.639486 488.530693,305.692032 C488.530693,305.785227 488.478218,305.831824 488.374257,305.831824 L487.10396,305.831824 C486.970297,305.831824 486.877228,305.779278 486.824752,305.674186 L484.040594,301.21273 L482.543564,302.633456 L482.543564,305.657332 C482.543564,305.77333 482.486139,305.831824 482.369307,305.831824 L481.334653,305.831824 C481.211881,305.831824 481.151485,305.77333 481.151485,305.657332" id="Fill-41" fill="#6C4B00"></path>
                    <path d="M490.926733,305.657332 L490.926733,297.047713 C490.926733,296.931715 490.988119,296.873221 491.109901,296.873221 L492.145545,296.873221 C492.261386,296.873221 492.318812,296.931715 492.318812,297.047713 L492.318812,298.032208 C492.975248,297.137934 493.848515,296.690797 494.938614,296.690797 C496.128713,296.690797 496.972277,297.216257 497.471287,298.268169 C497.494059,298.314767 497.505941,298.355415 497.505941,298.390116 C497.505941,298.471413 497.471287,298.528916 497.40099,298.564608 L496.50495,299.156495 C496.470297,299.180289 496.429703,299.191195 496.383168,299.191195 C496.313861,299.191195 496.267327,299.162443 496.244554,299.103949 C495.99505,298.69746 495.739604,298.414901 495.478218,298.254289 C495.216832,298.094668 494.878218,298.015353 494.460396,298.015353 C493.80396,298.015353 493.284158,298.333604 492.89802,298.969113 C492.512871,299.605615 492.318812,300.376951 492.318812,301.283122 L492.318812,305.657332 C492.318812,305.77333 492.261386,305.831824 492.145545,305.831824 L491.109901,305.831824 C490.988119,305.831824 490.926733,305.77333 490.926733,305.657332" id="Fill-42" fill="#6C4B00"></path>
                    <path d="M101.091089,229.517131 L497.318812,229.517131 L497.318812,230.508565 L101.091089,230.508565 L101.091089,229.517131 Z" id="Fill-43" fill="#6C4B00"></path>
                    <path d="M101.091089,275.122135 L497.318812,275.122135 L497.318812,276.11357 L101.091089,276.11357 L101.091089,275.122135 Z" id="Fill-44" fill="#6C4B00"></path>
                    <path d="M140.450495,117.383884 L236.017822,117.383884 L236.017822,153.075533 L140.450495,153.075533 L140.450495,117.383884 Z" id="Fill-45" fill="#FFBB2F"></path>
                    <path d="M110.853465,138.019606 L104.659406,138.019606 L103.80099,139.873589 L101.208911,139.873589 L106.662376,128.075516 L108.850495,128.075516 L114.30396,139.873589 L111.711881,139.873589 L110.853465,138.019606 L110.853465,138.019606 Z M105.753465,135.659991 L109.759406,135.659991 L107.756436,131.311559 L105.753465,135.659991 L105.753465,135.659991 Z" id="Fill-46" fill="#FFBB2F"></path>
                    <path d="M119.294059,131.665501 C119.681188,131.384925 120.172277,131.244141 120.767327,131.244141 C120.924752,131.244141 121.067327,131.256039 121.19703,131.27785 C121.325743,131.300653 121.457426,131.328413 121.592079,131.362122 L121.592079,133.755445 C121.434653,133.698934 121.272277,133.662251 121.10396,133.645396 C120.935644,133.629533 120.761386,133.62061 120.582178,133.62061 C119.841584,133.62061 119.30297,133.825837 118.966337,134.236291 C118.629703,134.646745 118.461386,135.255486 118.461386,136.064497 L118.461386,139.873589 L116.239604,139.873589 L116.239604,131.446394 L118.377228,131.446394 L118.377228,132.828454 C118.60198,132.333728 118.907921,131.946077 119.294059,131.665501" id="Fill-47" fill="#FFBB2F"></path>
                    <path d="M127.794059,139.890443 C127.485149,139.935058 127.191089,139.957861 126.910891,139.957861 C126.124752,139.957861 125.516832,139.755608 125.084158,139.351103 C124.652475,138.946597 124.436634,138.261516 124.436634,137.294867 L124.436634,133.317231 L122.90495,133.317231 L122.90495,131.446394 L124.436634,131.446394 L124.436634,129.187906 L126.658416,129.187906 L126.658416,131.446394 L128.79604,131.446394 L128.79604,133.317231 L126.658416,133.317231 L126.658416,136.974634 C126.658416,137.244304 126.725743,137.437634 126.860396,137.556606 C126.99505,137.674587 127.207921,137.733081 127.5,137.733081 C127.668317,137.733081 127.838614,137.72515 128.012871,137.707304 C128.187129,137.69045 128.425743,137.654758 128.728713,137.598246 L128.728713,139.705045 C128.413861,139.783368 128.10297,139.845829 127.794059,139.890443" id="Fill-48" fill="#FFBB2F"></path>
                    <path d="M109.653465,75.5364176 L109.653465,77.8960321 L104.40099,77.8960321 L104.40099,80.2556467 L109.653465,80.2556467 L109.653465,82.6152612 L104.40099,82.6152612 L104.40099,87.3344904 L102.044554,87.3344904 L102.044554,75.5364176 L109.653465,75.5364176" id="Fill-49" fill="#6C4B00"></path>
                    <path d="M111.689109,81.435454 C111.689109,80.5927345 111.838614,79.8124754 112.135644,79.0926938 C112.432673,78.3739036 112.845545,77.7502912 113.372277,77.2218565 C113.9,76.6934218 114.521782,76.280985 115.240594,75.9825632 C115.958416,75.6851328 116.738614,75.5364176 117.580198,75.5364176 C118.421782,75.5364176 119.20198,75.6851328 119.919802,75.9825632 C120.637624,76.280985 121.261386,76.6934218 121.788119,77.2218565 C122.315842,77.7502912 122.727723,78.3739036 123.024752,79.0926938 C123.322772,79.8124754 123.471287,80.5927345 123.471287,81.435454 C123.471287,82.2781734 123.322772,83.059424 123.024752,83.7782141 C122.727723,84.4970043 122.315842,85.1206167 121.788119,85.6490514 C121.261386,86.1774861 120.637624,86.5899229 119.919802,86.8873533 C119.20198,87.1857752 118.421782,87.3344904 117.580198,87.3344904 C116.738614,87.3344904 115.958416,87.1857752 115.240594,86.8873533 C114.521782,86.5899229 113.9,86.1774861 113.372277,85.6490514 C112.845545,85.1206167 112.432673,84.4970043 112.135644,83.7782141 C111.838614,83.059424 111.689109,82.2781734 111.689109,81.435454 L111.689109,81.435454 Z M121.114851,81.435454 C121.114851,80.9189165 121.027723,80.4440193 120.854455,80.0107623 C120.680198,79.5784968 120.436634,79.2047259 120.121782,78.8904411 C119.806931,78.5761563 119.434653,78.3312719 119.00198,78.1577709 C118.570297,77.9832784 118.09604,77.8960321 117.580198,77.8960321 C117.063366,77.8960321 116.590099,77.9832784 116.158416,78.1577709 C115.725743,78.3312719 115.352475,78.5761563 115.038614,78.8904411 C114.724752,79.2047259 114.480198,79.5784968 114.306931,80.0107623 C114.132673,80.4440193 114.045545,80.9189165 114.045545,81.435454 C114.045545,81.9519914 114.132673,82.4268887 114.306931,82.8591542 C114.480198,83.2924111 114.724752,83.666182 115.038614,83.9804668 C115.352475,84.2947516 115.725743,84.539636 116.158416,84.713137 C116.590099,84.8876296 117.063366,84.9748758 117.580198,84.9748758 C118.09604,84.9748758 118.570297,84.8876296 119.00198,84.713137 C119.434653,84.539636 119.806931,84.2947516 120.121782,83.9804668 C120.436634,83.666182 120.680198,83.2924111 120.854455,82.8591542 C121.027723,82.4268887 121.114851,81.9519914 121.114851,81.435454 L121.114851,81.435454 Z M114.516832,73.6824347 C114.516832,73.3116381 114.643564,72.9993362 114.89604,72.7465203 C115.148515,72.4946959 115.459406,72.3677923 115.829703,72.3677923 C116.2,72.3677923 116.511881,72.4946959 116.764356,72.7465203 C117.016832,72.9993362 117.142574,73.3116381 117.142574,73.6824347 C117.142574,74.0532313 117.016832,74.3645418 116.764356,74.6173576 C116.511881,74.8711649 116.2,74.9970771 115.829703,74.9970771 C115.459406,74.9970771 115.148515,74.8711649 114.89604,74.6173576 C114.643564,74.3645418 114.516832,74.0532313 114.516832,73.6824347 L114.516832,73.6824347 Z M117.984158,73.6824347 C117.984158,73.3116381 118.110891,72.9993362 118.362376,72.7465203 C118.615842,72.4946959 118.926733,72.3677923 119.29703,72.3677923 C119.667327,72.3677923 119.979208,72.4946959 120.230693,72.7465203 C120.483168,72.9993362 120.609901,73.3116381 120.609901,73.6824347 C120.609901,74.0532313 120.483168,74.3645418 120.230693,74.6173576 C119.979208,74.8711649 119.667327,74.9970771 119.29703,74.9970771 C118.926733,74.9970771 118.615842,74.8711649 118.362376,74.6173576 C118.110891,74.3645418 117.984158,74.0532313 117.984158,73.6824347 L117.984158,73.6824347 Z" id="Fill-50" fill="#6C4B00"></path>
                    <path d="M131.079208,83.7782141 L128.369307,83.7782141 L128.369307,87.3344904 L126.013861,87.3344904 L126.013861,75.5364176 L131.163366,75.5364176 C131.769307,75.5364176 132.327723,75.6405182 132.838614,75.8477281 C133.348515,76.0559293 133.787129,76.342454 134.151485,76.7082934 C134.515842,77.0731413 134.80198,77.5083812 135.008911,78.0140128 C135.216832,78.5196445 135.320792,79.0649336 135.320792,79.6488887 C135.320792,80.4132848 135.152475,81.0983662 134.815842,81.7051242 C134.479208,82.3118822 134.024752,82.7947109 133.452475,83.1546017 L136.078218,87.3424218 L133.30099,87.3424218 L131.079208,83.7782141 L131.079208,83.7782141 Z M129.59802,81.4185996 L129.244554,80.8455503 L131.264356,79.665743 L132.190099,81.1489293 C132.705941,80.8346445 132.965347,80.33397 132.965347,79.6488887 C132.965347,79.143257 132.806931,78.7248715 132.493069,78.3927409 C132.178218,78.0616017 131.735644,77.8960321 131.163366,77.8960321 L128.369307,77.8960321 L128.369307,81.4185996 L129.59802,81.4185996 L129.59802,81.4185996 Z" id="Fill-51" fill="#6C4B00"></path>
                    <path d="M146.026733,75.5364176 L146.026733,77.8960321 L140.774257,77.8960321 L140.774257,80.2556467 L146.026733,80.2556467 L146.026733,82.6152612 L140.774257,82.6152612 L140.774257,84.9748758 L146.026733,84.9748758 L146.026733,87.3344904 L138.417822,87.3344904 L138.417822,75.5364176 L146.026733,75.5364176" id="Fill-52" fill="#6C4B00"></path>
                    <path d="M154.492079,77.8960321 L154.492079,87.3344904 L152.135644,87.3344904 L152.135644,77.8960321 L147.877228,77.8960321 L147.877228,75.5364176 L158.750495,75.5364176 L158.750495,77.8960321 L154.492079,77.8960321" id="Fill-53" fill="#6C4B00"></path>
                    <path d="M167.486139,85.4805075 L161.292079,85.4805075 L160.433663,87.3344904 L157.841584,87.3344904 L163.29505,75.5364176 L165.482178,75.5364176 L170.936634,87.3344904 L168.344554,87.3344904 L167.486139,85.4805075 L167.486139,85.4805075 Z M162.386139,83.1208929 L166.392079,83.1208929 L164.389109,78.7724604 L162.386139,83.1208929 L162.386139,83.1208929 Z" id="Fill-54" fill="#6C4B00"></path>
                    <path d="M171.609901,81.4523084 C171.609901,80.5986831 171.755446,79.8124754 172.047525,79.0926938 C172.338614,78.3739036 172.745545,77.7502912 173.267327,77.2218565 C173.789109,76.6934218 174.414851,76.280985 175.144554,75.9825632 C175.874257,75.6851328 176.676238,75.5364176 177.551485,75.5364176 C178.336634,75.5364176 179.091089,75.6712527 179.814851,75.9409229 C180.539604,76.2105931 181.187129,76.6150985 181.759406,77.154439 L180.631683,79.3286552 C180.193069,78.8567323 179.714851,78.4998158 179.192079,78.2588972 C178.670297,78.0169872 178.105941,77.8960321 177.50099,77.8960321 C176.973267,77.8960321 176.493069,77.9832784 176.061386,78.1577709 C175.629703,78.3312719 175.259406,78.573182 174.950495,78.8815182 C174.642574,79.1908458 174.40099,79.5646167 174.227723,80.0028308 C174.052475,80.441045 173.966337,80.9189165 173.966337,81.435454 C173.966337,81.9638887 174.050495,82.443743 174.218812,82.8760086 C174.387129,83.3092655 174.628713,83.6800621 174.942574,83.9883983 C175.256436,84.2977259 175.632673,84.539636 176.070297,84.713137 C176.507921,84.8876296 176.990099,84.9748758 177.517822,84.9748758 C177.674257,84.9748758 177.831683,84.9580214 177.989109,84.9243126 L177.989109,83.0029122 L175.784158,83.0029122 L175.784158,80.6432976 L180.345545,80.6432976 L180.345545,86.8625675 C179.874257,87.0083084 179.410891,87.1243062 178.956436,87.2075867 C178.50297,87.2918587 178.022772,87.3344904 177.517822,87.3344904 C176.653465,87.3344904 175.859406,87.1887495 175.135644,86.8962762 C174.412871,86.603803 173.789109,86.1963233 173.267327,85.6748287 C172.745545,85.1513512 172.338614,84.5307131 172.047525,83.8119229 C171.755446,83.0921413 171.609901,82.3059336 171.609901,81.4523084" id="Fill-55" fill="#6C4B00"></path>
                    <path d="M197.850495,85.4805075 L191.656436,85.4805075 L190.79802,87.3344904 L188.205941,87.3344904 L193.659406,75.5364176 L195.846535,75.5364176 L201.30099,87.3344904 L198.708911,87.3344904 L197.850495,85.4805075 L197.850495,85.4805075 Z M192.750495,83.1208929 L196.756436,83.1208929 L194.753465,78.7724604 L192.750495,83.1208929 L192.750495,83.1208929 Z" id="Fill-56" fill="#6C4B00"></path>
                    <path d="M208.521782,75.5364176 C209.071287,75.5364176 209.565347,75.6206895 210.00297,75.7892334 C210.440594,75.9577773 210.810891,76.1877901 211.113861,76.4802634 C211.416832,76.7717452 211.646535,77.1237045 211.80396,77.533167 C211.960396,77.943621 212.039604,78.3848094 212.039604,78.8567323 C212.039604,79.4743961 211.907921,80.0028308 211.644554,80.441045 C211.380198,80.8792591 211.023762,81.2103983 210.575248,81.435454 C211.034653,81.6605096 211.394059,81.9946231 211.652475,82.4377944 C211.909901,82.8819572 212.039604,83.4074176 212.039604,84.0141756 C212.039604,84.4860985 211.960396,84.9272869 211.80396,85.3367495 C211.646535,85.7472034 211.416832,86.0981713 211.113861,86.3906445 C210.810891,86.6831178 210.440594,86.9131306 210.00297,87.0816745 C209.565347,87.2502184 209.071287,87.3344904 208.521782,87.3344904 L203.505941,87.3344904 L203.505941,75.5364176 L208.521782,75.5364176 L208.521782,75.5364176 Z M209.683168,79.0421306 C209.683168,78.7050428 209.576238,78.429424 209.363366,78.2162655 C209.150495,78.0031071 208.852475,77.8960321 208.470297,77.8960321 L205.862376,77.8960321 L205.862376,80.2556467 L208.470297,80.2556467 C208.829703,80.2556467 209.121782,80.1436146 209.346535,79.9185589 C209.570297,79.6935032 209.683168,79.4020214 209.683168,79.0421306 L209.683168,79.0421306 Z M209.683168,83.8287773 C209.683168,83.4579807 209.570297,83.1625332 209.346535,82.9434261 C209.121782,82.7253105 208.829703,82.6152612 208.470297,82.6152612 L205.862376,82.6152612 L205.862376,84.9748758 L208.470297,84.9748758 C208.852475,84.9748758 209.150495,84.8707752 209.363366,84.6625739 C209.576238,84.455364 209.683168,84.1767709 209.683168,83.8287773 L209.683168,83.8287773 Z" id="Fill-57" fill="#6C4B00"></path>
                    <path d="M156.819802,136.970668 C156.819802,136.858636 156.877228,136.802124 156.994059,136.802124 L158.133663,136.802124 C158.249505,136.802124 158.309901,136.860619 158.316832,136.976617 C158.316832,137.641869 158.569307,138.214919 159.074257,138.695764 C159.580198,139.17661 160.271287,139.416537 161.149505,139.416537 C162.052475,139.416537 162.725743,139.210319 163.168317,138.798874 C163.610891,138.386437 163.833663,137.800499 163.833663,137.040069 C163.833663,136.471976 163.594059,136.032771 163.116832,135.72146 C162.638614,135.411141 161.917822,135.131557 160.957426,134.881715 C159.649505,134.53967 158.682178,134.124259 158.055446,133.636473 C157.428713,133.149679 157.114851,132.418 157.114851,131.44342 C157.114851,130.38655 157.487129,129.547797 158.229703,128.930133 C158.973267,128.310486 159.894059,128.001158 160.991089,128.001158 C162.192079,128.001158 163.156436,128.325358 163.886139,128.972764 C164.616832,129.621163 164.982178,130.433148 164.982178,131.408719 C164.982178,131.524717 164.921782,131.586186 164.8,131.592135 L163.667327,131.592135 C163.551485,131.592135 163.491089,131.530666 163.485149,131.408719 C163.485149,130.862439 163.245545,130.396465 162.765347,130.009805 C162.286139,129.624137 161.69505,129.430807 160.991089,129.430807 C160.30099,129.430807 159.730693,129.606291 159.283168,129.958251 C158.836634,130.309218 158.611881,130.769244 158.611881,131.339319 C158.611881,131.577263 158.642574,131.790422 158.70396,131.978794 C158.764356,132.167167 158.881188,132.336702 159.052475,132.488392 C159.223762,132.63909 159.372277,132.761036 159.49703,132.854231 C159.621782,132.946435 159.839604,133.04657 160.150495,133.153645 C160.462376,133.261711 160.686139,133.335077 160.826733,133.375726 L161.628713,133.601773 C162.877228,133.944809 163.806931,134.351298 164.415842,134.820246 C165.024752,135.290186 165.329703,135.990139 165.329703,136.919113 C165.329703,138.204013 164.932673,139.180576 164.138614,139.84682 C163.345545,140.513064 162.348515,140.846186 161.149505,140.846186 C159.865347,140.846186 158.822772,140.492244 158.020792,139.785351 C157.219802,139.078458 156.819802,138.140561 156.819802,136.970668" id="Fill-58" fill="#6C4B00"></path>
                    <path d="M168.074257,140.497201 L168.074257,128.359066 C168.074257,128.243069 168.135644,128.1816 168.257426,128.175651 L169.293069,128.175651 C169.408911,128.175651 169.467327,128.23712 169.467327,128.359066 L169.467327,135.635206 L173.339604,131.870728 C173.443564,131.765636 173.536634,131.714081 173.617822,131.714081 L175.09703,131.714081 C175.190099,131.714081 175.239604,131.75473 175.245545,131.836028 C175.245545,131.881634 175.218812,131.931206 175.166337,131.983752 L172.069307,135.01655 L175.418812,140.401032 C175.442574,140.435732 175.454455,140.479355 175.454455,140.531901 C175.454455,140.625096 175.40198,140.671694 175.29703,140.671694 L174.026733,140.671694 C173.893069,140.671694 173.8,140.619148 173.748515,140.515047 L170.963366,136.053591 L169.467327,137.473325 L169.467327,140.497201 C169.467327,140.613199 169.408911,140.671694 169.293069,140.671694 L168.257426,140.671694 C168.135644,140.671694 168.074257,140.613199 168.074257,140.497201" id="Fill-59" fill="#6C4B00"></path>
                    <path d="M177.850495,140.497201 L177.850495,131.887582 C177.850495,131.771585 177.911881,131.714081 178.032673,131.714081 L179.068317,131.714081 C179.184158,131.714081 179.242574,131.771585 179.242574,131.887582 L179.242574,132.873069 C179.89802,131.977803 180.771287,131.530666 181.862376,131.530666 C183.051485,131.530666 183.89505,132.056126 184.394059,133.108039 C184.417822,133.154636 184.429703,133.195285 184.429703,133.229985 C184.429703,133.311283 184.394059,133.368786 184.324752,133.404478 L183.428713,133.996364 C183.394059,134.020158 183.353465,134.032056 183.306931,134.032056 C183.237624,134.032056 183.191089,134.002313 183.168317,133.944809 C182.917822,133.53733 182.662376,133.254771 182.40198,133.09515 C182.140594,132.934537 181.80198,132.855223 181.383168,132.855223 C180.727723,132.855223 180.207921,133.173473 179.821782,133.808983 C179.435644,134.445484 179.242574,135.21682 179.242574,136.122991 L179.242574,140.497201 C179.242574,140.613199 179.184158,140.671694 179.068317,140.671694 L178.032673,140.671694 C177.911881,140.671694 177.850495,140.613199 177.850495,140.497201" id="Fill-60" fill="#6C4B00"></path>
                    <path d="M186.886139,137.944257 L186.886139,131.887582 C186.886139,131.771585 186.947525,131.714081 187.069307,131.714081 L188.09604,131.714081 C188.212871,131.714081 188.273267,131.771585 188.279208,131.887582 L188.279208,137.615101 C188.279208,138.218884 188.423762,138.686842 188.713861,139.020955 C189.00495,139.354077 189.427723,139.52163 189.984158,139.52163 C190.640594,139.52163 191.208911,139.232131 191.690099,138.655116 C192.171287,138.078101 192.412871,137.333533 192.412871,136.422405 L192.412871,131.887582 C192.412871,131.771585 192.470297,131.714081 192.586139,131.714081 L193.621782,131.714081 C193.737624,131.714081 193.79901,131.771585 193.80396,131.887582 L193.80396,140.497201 C193.80396,140.613199 193.744554,140.671694 193.621782,140.671694 L192.586139,140.671694 C192.470297,140.671694 192.412871,140.613199 192.412871,140.495218 L192.412871,139.416537 C192.116832,139.826 191.715842,140.166062 191.211881,140.437715 C190.706931,140.709368 190.167327,140.846186 189.593069,140.846186 C187.789109,140.851143 186.886139,139.884495 186.886139,137.944257" id="Fill-61" fill="#6C4B00"></path>
                    <path d="M196.062376,131.870728 C196.062376,131.765636 196.117822,131.714081 196.227723,131.714081 L197.437624,131.714081 C197.570297,131.714081 197.654455,131.771585 197.689109,131.887582 L200.039604,138.780036 L202.389109,131.887582 C202.423762,131.771585 202.507921,131.714081 202.640594,131.714081 L203.850495,131.714081 C203.955446,131.714081 204.009901,131.765636 204.015842,131.870728 C204.015842,131.917325 204.009901,131.960949 203.99901,132.001597 L200.874257,140.497201 C200.828713,140.613199 200.758416,140.671694 200.665347,140.671694 L199.412871,140.671694 C199.319802,140.671694 199.250495,140.613199 199.20396,140.497201 L196.080198,132.001597 C196.068317,131.960949 196.062376,131.917325 196.062376,131.870728" id="Fill-62" fill="#6C4B00"></path>
                    <path d="M205.524752,138.009692 C205.524752,137.05494 205.870297,136.319296 206.560396,135.801767 C207.250495,135.284238 208.123762,135.024482 209.180198,135.024482 C209.962376,135.024482 210.740594,135.150394 211.511881,135.402218 L211.511881,134.958056 C211.511881,133.556167 210.793069,132.855223 209.353465,132.855223 C208.379208,132.855223 207.714851,133.308308 207.361386,134.21448 C207.326733,134.31858 207.242574,134.371126 207.108911,134.371126 L205.968317,134.371126 C205.887129,134.371126 205.846535,134.334443 205.846535,134.260086 C205.846535,134.185728 205.852475,134.125251 205.864356,134.078653 C206.055446,133.365812 206.454455,132.763019 207.060396,132.270276 C207.667327,131.777533 208.431683,131.530666 209.353465,131.530666 C210.386139,131.530666 211.236634,131.816199 211.90297,132.387266 C212.570297,132.958332 212.90396,133.695959 212.90396,134.600148 L212.90396,138.947589 C212.90396,139.606893 213,140.122439 213.193069,140.495218 C213.214851,140.53091 213.225743,140.559662 213.225743,140.583456 C213.225743,140.641951 213.171287,140.671694 213.062376,140.671694 L211.693069,140.671694 C211.577228,140.671694 211.517822,140.613199 211.511881,140.495218 L211.511881,139.55633 C210.89703,140.415904 209.989109,140.846186 208.788119,140.846186 C207.883168,140.846186 207.112871,140.602293 206.478218,140.117482 C205.842574,139.630687 205.524752,138.928752 205.524752,138.009692 L205.524752,138.009692 Z M206.987129,138.009692 C206.987129,138.472692 207.156436,138.840514 207.49604,139.113158 C207.835644,139.384812 208.312871,139.52163 208.927723,139.52163 C209.640594,139.52163 210.250495,139.269805 210.754455,138.765165 C211.259406,138.261516 211.511881,137.5804 211.511881,136.722809 C210.787129,136.473959 210.014851,136.349039 209.19703,136.349039 C208.553465,136.349039 208.023762,136.492797 207.608911,136.779321 C207.194059,137.065846 206.987129,137.4763 206.987129,138.009692 L206.987129,138.009692 Z" id="Fill-63" fill="#6C4B00"></path>
                    <path d="M216.118812,140.497201 L216.118812,131.887582 C216.118812,131.771585 216.179208,131.714081 216.30099,131.714081 L217.336634,131.714081 C217.453465,131.714081 217.510891,131.771585 217.510891,131.887582 L217.510891,132.873069 C218.166337,131.977803 219.039604,131.530666 220.129703,131.530666 C221.319802,131.530666 222.163366,132.056126 222.662376,133.108039 C222.686139,133.154636 222.69802,133.195285 222.69802,133.229985 C222.69802,133.311283 222.662376,133.368786 222.593069,133.404478 L221.69604,133.996364 C221.661386,134.020158 221.620792,134.032056 221.575248,134.032056 C221.50495,134.032056 221.458416,134.002313 221.435644,133.944809 C221.186139,133.53733 220.930693,133.254771 220.670297,133.09515 C220.408911,132.934537 220.069307,132.855223 219.651485,132.855223 C218.99604,132.855223 218.475248,133.173473 218.089109,133.808983 C217.70396,134.445484 217.510891,135.21682 217.510891,136.122991 L217.510891,140.497201 C217.510891,140.613199 217.453465,140.671694 217.336634,140.671694 L216.30099,140.671694 C216.179208,140.671694 216.118812,140.613199 216.118812,140.497201" id="Fill-64" fill="#6C4B00"></path>
                    <path d="M303.124752,117.383884 L382.853465,117.383884 L382.853465,153.075533 L303.124752,153.075533 L303.124752,117.383884 Z" id="Fill-65" fill="#FFBB2F"></path>
                    <path d="M274.526733,131.463248 C274.526733,130.923908 274.621782,130.446036 274.812871,130.030625 C275.00396,129.615214 275.270297,129.261272 275.611881,128.968799 C275.954455,128.677317 276.358416,128.455236 276.823762,128.303546 C277.290099,128.150865 277.792079,128.075516 278.330693,128.075516 C279.329703,128.075516 280.179208,128.328332 280.881188,128.833964 C281.582178,129.339595 282.038614,130.081188 282.252475,131.058743 L280.114851,131.918317 C279.992079,131.378976 279.778218,130.997274 279.475248,130.772218 C279.172277,130.547163 278.785149,130.435131 278.313861,130.435131 C277.830693,130.435131 277.471287,130.536257 277.236634,130.73851 C277.00099,130.940762 276.883168,131.18763 276.883168,131.480103 C276.883168,131.693261 276.935644,131.870728 277.042574,132.01052 C277.149505,132.152296 277.29802,132.275233 277.489109,132.381317 C277.680198,132.488392 277.907921,132.586544 278.171287,132.676764 C278.433663,132.766985 278.723762,132.862163 279.037624,132.963289 C279.441584,133.098124 279.829703,133.252788 280.19901,133.427281 C280.569307,133.600782 280.89802,133.82088 281.183168,134.084602 C281.469307,134.348323 281.7,134.671531 281.874257,135.053233 C282.047525,135.435927 282.133663,135.901901 282.133663,136.452148 C282.133663,137.003385 282.036634,137.492163 281.839604,137.91848 C281.643564,138.345788 281.377228,138.701713 281.040594,138.988238 C280.70396,139.275754 280.30198,139.494861 279.837624,139.645559 C279.371287,139.797248 278.869307,139.873589 278.330693,139.873589 C277.871287,139.873589 277.429703,139.817077 277.009901,139.705045 C276.588119,139.593013 276.20099,139.416537 275.848515,139.174627 C275.49505,138.932717 275.191089,138.62339 274.938614,138.246645 C274.686139,137.870891 274.50495,137.418797 274.392079,136.890362 L276.49604,135.980225 C276.732673,137.003385 277.348515,137.513974 278.347525,137.513974 C278.807921,137.513974 279.161386,137.418797 279.407921,137.22745 C279.654455,137.036103 279.778218,136.77833 279.778218,136.452148 C279.778218,136.238989 279.724752,136.055574 279.617822,135.904876 C279.511881,135.752195 279.363366,135.623308 279.172277,135.517225 C278.981188,135.41015 278.759406,135.316955 278.507921,135.238632 C278.255446,135.160308 277.983168,135.076036 277.691089,134.985816 C277.320792,134.873784 276.947525,134.730026 276.571287,134.556525 C276.19604,134.382032 275.856436,134.159951 275.553465,133.890281 C275.250495,133.62061 275.00396,133.289471 274.812871,132.895872 C274.621782,132.502272 274.526733,132.025392 274.526733,131.463248" id="Fill-66" fill="#FFBB2F"></path>
                    <path d="M288.572277,139.890443 C288.264356,139.935058 287.970297,139.957861 287.689109,139.957861 C286.90297,139.957861 286.29505,139.755608 285.862376,139.351103 C285.430693,138.946597 285.214851,138.261516 285.214851,137.294867 L285.214851,133.317231 L283.684158,133.317231 L283.684158,131.446394 L285.214851,131.446394 L285.214851,129.187906 L287.436634,129.187906 L287.436634,131.446394 L289.574257,131.446394 L289.574257,133.317231 L287.436634,133.317231 L287.436634,136.974634 C287.436634,137.244304 287.50396,137.437634 287.639604,137.556606 C287.773267,137.674587 287.987129,137.733081 288.279208,137.733081 C288.446535,137.733081 288.617822,137.72515 288.791089,137.707304 C288.965347,137.69045 289.20396,137.654758 289.506931,137.598246 L289.506931,139.705045 C289.193069,139.783368 288.882178,139.845829 288.572277,139.890443" id="Fill-67" fill="#FFBB2F"></path>
                    <path d="M319.415842,140.492244 L319.415842,139.430418 C319.415842,139.311445 319.477228,139.247994 319.59802,139.242045 L322.539604,139.242045 L322.539604,130.162486 L319.886139,131.608989 C319.815842,131.64369 319.749505,131.661535 319.686139,131.661535 C319.60396,131.661535 319.563366,131.606015 319.563366,131.495966 L319.563366,130.267578 C319.563366,130.162486 319.627723,130.072266 319.755446,129.996916 L322.913861,128.27182 C323.006931,128.213325 323.094059,128.1816 323.175248,128.175651 L323.818812,128.175651 C323.934653,128.175651 323.99604,128.23712 324.00198,128.358075 L324.00198,139.242045 L326.942574,139.242045 C327.059406,139.242045 327.116832,139.304505 327.116832,139.430418 L327.116832,140.492244 C327.116832,140.612208 327.059406,140.671694 326.942574,140.671694 L319.59802,140.671694 C319.477228,140.671694 319.415842,140.612208 319.415842,140.492244" id="Fill-68" fill="#6C4B00"></path>
                    <path d="M335.761386,139.12803 C334.934653,137.982923 334.520792,136.413482 334.520792,134.419707 C334.520792,132.42494 334.934653,130.85649 335.761386,129.714358 C336.587129,128.573216 337.684158,128.001158 339.050495,128.001158 C340.416832,128.001158 341.511881,128.573216 342.335644,129.714358 C343.159406,130.85649 343.571287,132.42494 343.571287,134.419707 C343.571287,136.413482 343.159406,137.982923 342.335644,139.12803 C341.511881,140.273137 340.416832,140.846186 339.050495,140.846186 C337.684158,140.846186 336.587129,140.273137 335.761386,139.12803 L335.761386,139.12803 Z M336.017822,134.419707 C336.017822,136.512625 336.408911,137.954171 337.193069,138.745336 L339.742574,129.465507 C339.550495,129.441713 339.318812,129.430807 339.045545,129.430807 C337.026733,129.424859 336.017822,131.087495 336.017822,134.419707 L336.017822,134.419707 Z M338.342574,139.388777 C338.533663,139.407615 338.766337,139.416537 339.040594,139.416537 C341.063366,139.416537 342.074257,137.744979 342.074257,134.401861 C342.074257,132.320839 341.680198,130.889208 340.892079,130.107957 L338.342574,139.388777 L338.342574,139.388777 Z" id="Fill-69" fill="#6C4B00"></path>
                    <path d="M347.268317,139.12803 C346.441584,137.982923 346.028713,136.413482 346.028713,134.419707 C346.028713,132.42494 346.441584,130.85649 347.268317,129.714358 C348.09505,128.573216 349.192079,128.001158 350.557426,128.001158 C351.923762,128.001158 353.019802,128.573216 353.843564,129.714358 C354.667327,130.85649 355.078218,132.42494 355.078218,134.419707 C355.078218,136.413482 354.667327,137.982923 353.843564,139.12803 C353.019802,140.273137 351.923762,140.846186 350.557426,140.846186 C349.192079,140.846186 348.09505,140.273137 347.268317,139.12803 L347.268317,139.12803 Z M347.524752,134.419707 C347.524752,136.512625 347.916832,137.954171 348.7,138.745336 L351.249505,129.465507 C351.058416,129.441713 350.826733,129.430807 350.553465,129.430807 C348.534653,129.424859 347.524752,131.087495 347.524752,134.419707 L347.524752,134.419707 Z M349.849505,139.388777 C350.041584,139.407615 350.274257,139.416537 350.547525,139.416537 C352.570297,139.416537 353.582178,137.744979 353.582178,134.401861 C353.582178,132.320839 353.188119,130.889208 352.4,130.107957 L349.849505,139.388777 L349.849505,139.388777 Z" id="Fill-70" fill="#6C4B00"></path>
                    <path d="M358.776238,139.12803 C357.949505,137.982923 357.535644,136.413482 357.535644,134.419707 C357.535644,132.42494 357.949505,130.85649 358.776238,129.714358 C359.60297,128.573216 360.69901,128.001158 362.065347,128.001158 C363.431683,128.001158 364.526733,128.573216 365.350495,129.714358 C366.174257,130.85649 366.586139,132.42494 366.586139,134.419707 C366.586139,136.413482 366.174257,137.982923 365.350495,139.12803 C364.526733,140.273137 363.431683,140.846186 362.065347,140.846186 C360.69901,140.846186 359.60297,140.273137 358.776238,139.12803 L358.776238,139.12803 Z M359.032673,134.419707 C359.032673,136.512625 359.424752,137.954171 360.207921,138.745336 L362.757426,129.465507 C362.565347,129.441713 362.333663,129.430807 362.061386,129.430807 C360.042574,129.424859 359.032673,131.087495 359.032673,134.419707 L359.032673,134.419707 Z M361.357426,139.388777 C361.549505,139.407615 361.782178,139.416537 362.055446,139.416537 C364.078218,139.416537 365.089109,137.744979 365.089109,134.401861 C365.089109,132.320839 364.69505,130.889208 363.906931,130.107957 L361.357426,139.388777 L361.357426,139.388777 Z" id="Fill-71" fill="#6C4B00"></path>
                    <path d="M447.535644,117.383884 L497.318812,117.383884 L497.318812,153.075533 L447.535644,153.075533 L447.535644,117.383884 Z" id="Fill-72" fill="#FFBB2F"></path>
                    <path d="M423.161386,134.918398 L421.680198,136.401585 L421.680198,139.873589 L419.323762,139.873589 L419.323762,128.075516 L421.680198,128.075516 L421.680198,133.047561 L426.629703,128.075516 L429.945545,128.075516 L424.827723,133.232959 L429.962376,139.873589 L426.966337,139.873589 L423.161386,134.918398" id="Fill-73" fill="#FFBB2F"></path>
                    <path d="M434.817822,131.665501 C435.20495,131.384925 435.69604,131.244141 436.291089,131.244141 C436.447525,131.244141 436.591089,131.256039 436.719802,131.27785 C436.848515,131.300653 436.980198,131.328413 437.115842,131.362122 L437.115842,133.755445 C436.958416,133.698934 436.79505,133.662251 436.626733,133.645396 C436.459406,133.629533 436.285149,133.62061 436.105941,133.62061 C435.364356,133.62061 434.826733,133.825837 434.489109,134.236291 C434.153465,134.646745 433.985149,135.255486 433.985149,136.064497 L433.985149,139.873589 L431.762376,139.873589 L431.762376,131.446394 L433.9,131.446394 L433.9,132.828454 C434.124752,132.333728 434.430693,131.946077 434.817822,131.665501" id="Fill-74" fill="#FFBB2F"></path>
                    <path d="M463.826733,140.492244 L463.826733,139.430418 C463.826733,139.311445 463.887129,139.247994 464.008911,139.242045 L466.950495,139.242045 L466.950495,130.162486 L464.29604,131.608989 C464.226733,131.64369 464.160396,131.661535 464.09604,131.661535 C464.014851,131.661535 463.974257,131.606015 463.974257,131.495966 L463.974257,130.267578 C463.974257,130.162486 464.038614,130.072266 464.166337,129.996916 L467.324752,128.27182 C467.417822,128.213325 467.50495,128.1816 467.586139,128.175651 L468.229703,128.175651 C468.345545,128.175651 468.406931,128.23712 468.412871,128.358075 L468.412871,139.242045 L471.353465,139.242045 C471.469307,139.242045 471.527723,139.304505 471.527723,139.430418 L471.527723,140.492244 C471.527723,140.612208 471.469307,140.671694 471.353465,140.671694 L464.008911,140.671694 C463.887129,140.671694 463.826733,140.612208 463.826733,140.492244" id="Fill-75" fill="#6C4B00"></path>
                    <path d="M474.546535,139.12803 C473.719802,137.982923 473.306931,136.413482 473.306931,134.419707 C473.306931,132.42494 473.719802,130.85649 474.546535,129.714358 C475.373267,128.573216 476.469307,128.001158 477.835644,128.001158 C479.20198,128.001158 480.29703,128.573216 481.120792,129.714358 C481.944554,130.85649 482.356436,132.42494 482.356436,134.419707 C482.356436,136.413482 481.944554,137.982923 481.120792,139.12803 C480.29703,140.273137 479.20198,140.846186 477.835644,140.846186 C476.469307,140.846186 475.373267,140.273137 474.546535,139.12803 L474.546535,139.12803 Z M474.80297,134.419707 C474.80297,136.512625 475.19505,137.954171 475.978218,138.745336 L478.527723,129.465507 C478.336634,129.441713 478.10396,129.430807 477.831683,129.430807 C475.812871,129.424859 474.80297,131.087495 474.80297,134.419707 L474.80297,134.419707 Z M477.127723,139.388777 C477.319802,139.407615 477.552475,139.416537 477.825743,139.416537 C479.848515,139.416537 480.860396,137.744979 480.860396,134.401861 C480.860396,132.320839 480.466337,130.889208 479.678218,130.107957 L477.127723,139.388777 L477.127723,139.388777 Z" id="Fill-76" fill="#6C4B00"></path>
                    <path d="M427.889109,87.3344904 L427.889109,75.5324518 L435.122772,75.5324518 L435.122772,77.0552955 L429.40198,77.0552955 L429.40198,80.676015 L435.122772,80.676015 L435.122772,82.1909272 L429.40198,82.1909272 L429.40198,87.3344904 L427.889109,87.3344904" id="Fill-77" fill="#6C4B00"></path>
                    <path d="M436.719802,84.9233212 C436.719802,84.5178244 436.787129,84.1618994 436.921782,83.855546 C437.056436,83.5491927 437.240594,83.2864625 437.477228,83.0673555 C437.711881,82.8482484 437.985149,82.6747473 438.29505,82.5458608 C438.60396,82.4169743 438.931683,82.3356767 439.277228,82.3029593 L441.717822,82.0640236 C441.909901,82.0432034 442.061386,81.9757859 442.174257,81.8627623 C442.285149,81.7497388 442.342574,81.6079636 442.342574,81.4374368 L442.342574,81.2560043 C442.342574,80.8931392 442.179208,80.5937259 441.853465,80.356773 C441.526733,80.1198201 441.079208,80.0018394 440.508911,80.0018394 C439.90099,80.0018394 439.408911,80.1247773 439.033663,80.3716445 C438.659406,80.6185118 438.427723,81.0061627 438.339604,81.5326146 L437.024752,80.8247302 C437.183168,80.2050835 437.528713,79.6954861 438.060396,79.2979208 C438.592079,78.9003555 439.364356,78.7010771 440.378218,78.7010771 C441.555446,78.7010771 442.418812,78.9796702 442.966337,79.5368565 C443.514851,80.0940428 443.788119,80.8663704 443.788119,81.852848 L443.788119,87.3344904 L442.342574,87.3344904 L442.342574,86.140803 C442.073267,86.558197 441.70099,86.8883448 441.224752,87.1332291 C440.747525,87.3771221 440.215842,87.4990685 439.629703,87.4990685 C439.158416,87.4990685 438.741584,87.431651 438.376238,87.2978073 C438.011881,87.1629722 437.709901,86.9805482 437.468317,86.7505353 C437.227723,86.519531 437.042574,86.2478779 436.913861,85.935576 C436.785149,85.6222827 436.719802,85.2851949 436.719802,84.9233212 L436.719802,84.9233212 Z M438.2,84.9243126 C438.2,85.2861863 438.332673,85.579651 438.59802,85.8037152 C438.864356,86.0287709 439.282178,86.140803 439.851485,86.140803 C440.19703,86.140803 440.521782,86.0753683 440.825743,85.9435075 C441.129703,85.8116467 441.394059,85.6401285 441.618812,85.4289529 C441.843564,85.2177773 442.019802,84.9818158 442.148515,84.7210685 C442.277228,84.4603212 442.342574,84.1956081 442.342574,83.9269293 L442.342574,83.310257 L439.531683,83.6423876 C439.038614,83.6969165 438.692079,83.8466231 438.49505,84.0905161 C438.29901,84.334409 438.2,84.6130021 438.2,84.9243126 L438.2,84.9243126 Z" id="Fill-78" fill="#6C4B00"></path>
                    <path d="M446.225743,87.3344904 L446.225743,75.5324518 L447.671287,75.5324518 L447.671287,82.8651028 L451.509901,78.9072955 L453.548515,78.9072955 L449.981188,82.6350899 L453.548515,87.3344904 L451.666337,87.3344904 L448.953465,83.5898415 L447.671287,84.8073233 L447.671287,87.3344904 L446.225743,87.3344904" id="Fill-79" fill="#6C4B00"></path>
                    <path d="M454.135644,80.174349 L454.135644,78.9072955 L455.79604,78.9072955 L455.79604,76.5119893 L457.250495,76.5119893 L457.250495,78.9072955 L459.551485,78.9072955 L459.551485,80.174349 L457.250495,80.174349 L457.250495,85.0631135 C457.250495,85.3873126 457.319802,85.6371542 457.459406,85.8166039 C457.59901,85.9940707 457.847525,86.0832998 458.20396,86.0832998 C458.472277,86.0832998 458.722772,86.072394 458.955446,86.049591 C459.188119,86.026788 459.413861,86.0049764 459.633663,85.9841563 L459.633663,87.1996552 C459.258416,87.2482355 458.890099,87.2978073 458.530693,87.3453961 C458.171287,87.392985 457.883168,87.4167794 457.667327,87.4167794 C457.045545,87.4167794 456.578218,87.2343555 456.265347,86.8695075 C455.952475,86.5046595 455.79604,85.8721242 455.79604,84.9719015 L455.79604,80.174349 L454.135644,80.174349" id="Fill-80" fill="#6C4B00"></path>
                    <path d="M461.569307,83.894212 L461.569307,78.9072955 L463.056436,78.9072955 L463.056436,83.894212 C463.056436,84.2283255 463.084158,84.5376531 463.138614,84.820212 C463.193069,85.1027709 463.291089,85.3456724 463.430693,85.5489165 C463.570297,85.7511692 463.758416,85.9088073 463.993069,86.0218308 C464.228713,86.133863 464.532673,86.1903747 464.905941,86.1903747 C465.333663,86.1903747 465.717822,86.1051113 466.060396,85.935576 C466.40297,85.7650493 466.672277,85.518182 466.870297,85.1949743 C467.072277,84.8707752 467.205941,84.4920471 467.268317,84.0587901 C467.331683,83.6255332 467.362376,83.2160707 467.362376,82.8323854 L467.362376,78.9072955 L468.808911,78.9072955 L468.808911,87.3344904 L467.412871,87.3344904 L467.412871,86.12494 C467.089109,86.596863 466.707921,86.9508051 466.269307,87.1867666 C465.831683,87.4217366 465.292079,87.5397173 464.650495,87.5397173 C464.081188,87.5397173 463.59901,87.4465225 463.20396,87.2601328 C462.809901,87.073743 462.492079,86.8199358 462.251485,86.4987109 C462.009901,86.1784775 461.835644,85.7957837 461.728713,85.3506296 C461.621782,84.9064668 461.569307,84.4206638 461.569307,83.894212" id="Fill-81" fill="#6C4B00"></path>
                    <path d="M471.327723,87.3344904 L471.327723,78.9072955 L472.725743,78.9072955 L472.725743,80.174349 C472.983168,79.7024261 473.322772,79.3365867 473.745545,79.0758394 C474.166337,78.8150921 474.676238,78.6852141 475.273267,78.6852141 C475.383168,78.6852141 475.488119,78.6901713 475.590099,78.7010771 C475.691089,78.7129743 475.780198,78.725863 475.857426,78.7427173 C475.944554,78.7536231 476.029703,78.7645289 476.110891,78.7754347 L476.09505,80.2893555 C476.029703,80.2784497 475.950495,80.2675439 475.857426,80.2566381 C475.780198,80.2457323 475.691089,80.2348266 475.590099,80.2239208 C475.488119,80.213015 475.377228,80.2070664 475.256436,80.2070664 C474.862376,80.2070664 474.49703,80.2695268 474.159406,80.3924647 C473.822772,80.516394 473.541584,80.7394668 473.316832,81.063666 C473.10297,81.3650621 472.960396,81.71603 472.886139,82.1165696 C472.811881,82.5171092 472.775248,82.9483833 472.775248,83.408409 L472.775248,87.3344904 L471.327723,87.3344904" id="Fill-82" fill="#6C4B00"></path>
                    <path d="M477.027723,84.9233212 C477.027723,84.5178244 477.09505,84.1618994 477.229703,83.855546 C477.363366,83.5491927 477.548515,83.2864625 477.784158,83.0673555 C478.019802,82.8482484 478.292079,82.6747473 478.60198,82.5458608 C478.911881,82.4169743 479.239604,82.3356767 479.584158,82.3029593 L482.025743,82.0640236 C482.216832,82.0432034 482.369307,81.9757859 482.480198,81.8627623 C482.593069,81.7497388 482.649505,81.6079636 482.649505,81.4374368 L482.649505,81.2560043 C482.649505,80.8931392 482.486139,80.5937259 482.160396,80.356773 C481.834653,80.1198201 481.386139,80.0018394 480.816832,80.0018394 C480.208911,80.0018394 479.716832,80.1247773 479.341584,80.3716445 C478.965347,80.6185118 478.734653,81.0061627 478.646535,81.5326146 L477.331683,80.8247302 C477.490099,80.2050835 477.835644,79.6954861 478.367327,79.2979208 C478.89901,78.9003555 479.671287,78.7010771 480.685149,78.7010771 C481.863366,78.7010771 482.725743,78.9796702 483.274257,79.5368565 C483.821782,80.0940428 484.09604,80.8663704 484.09604,81.852848 L484.09604,87.3344904 L482.649505,87.3344904 L482.649505,86.140803 C482.381188,86.558197 482.008911,86.8883448 481.531683,87.1332291 C481.055446,87.3771221 480.523762,87.4990685 479.937624,87.4990685 C479.466337,87.4990685 479.048515,87.431651 478.684158,87.2978073 C478.319802,87.1629722 478.016832,86.9805482 477.776238,86.7505353 C477.534653,86.519531 477.349505,86.2478779 477.220792,85.935576 C477.092079,85.6222827 477.027723,85.2851949 477.027723,84.9233212 L477.027723,84.9233212 Z M478.506931,84.9243126 C478.506931,85.2861863 478.639604,85.579651 478.905941,85.8037152 C479.171287,86.0287709 479.589109,86.140803 480.159406,86.140803 C480.50396,86.140803 480.828713,86.0753683 481.132673,85.9435075 C481.436634,85.8116467 481.70099,85.6401285 481.926733,85.4289529 C482.150495,85.2177773 482.326733,84.9818158 482.456436,84.7210685 C482.584158,84.4603212 482.649505,84.1956081 482.649505,83.9269293 L482.649505,83.310257 L479.839604,83.6423876 C479.345545,83.6969165 479,83.8466231 478.80297,84.0905161 C478.60495,84.334409 478.506931,84.6130021 478.506931,84.9243126 L478.506931,84.9243126 Z" id="Fill-83" fill="#6C4B00"></path>
                    <path d="M491.073267,79.499182 L495.026733,75.5324518 L496.423762,75.5324518 L496.423762,87.3344904 L494.910891,87.3344904 L494.910891,77.7800343 L492.116832,80.577863 L491.073267,79.499182" id="Fill-84" fill="#6C4B00"></path>
                </g>
            </g>
        </g>
    </g>
</svg>