<?xml version="1.0" encoding="UTF-8" standalone="no"?>
<svg width="1178px" height="694px" viewBox="0 0 1178 694" version="1.1" xmlns="http://www.w3.org/2000/svg" xmlns:xlink="http://www.w3.org/1999/xlink" xmlns:sketch="http://www.bohemiancoding.com/sketch/ns">
    <!-- Generator: Sketch 3.2.2 (9983) - http://www.bohemiancoding.com/sketch -->
    <title>bg</title>
    <desc>Created with Sketch.</desc>
    <defs></defs>
    <g id="Page-1" stroke="none" stroke-width="1" fill="none" fill-rule="evenodd" sketch:type="MSPage">
        <g id="Main" sketch:type="MSArtboardGroup" transform="translate(0.000000, -22.000000)" opacity="0.75">
            <g id="Main-message" sketch:type="MSLayerGroup" transform="translate(-37.000000, 13.000000)">
                <g id="bg">
                    <path d="M185,130 C188.844,130 188.844,135.66 192.687,135.66 C196.531,135.66 196.531,130 200.375,130 C204.219,130 204.219,135.66 208.063,135.66 C211.908,135.66 211.908,130 215.753,130 C219.595,130 219.595,135.66 223.437,135.66 C227.281,135.66 227.281,130 231.125,130 C234.969,130 234.969,135.66 238.813,135.66 C242.657,135.66 242.657,130 246.501,130 C250.346,130 250.346,135.66 254.191,135.66 C258.037,135.66 258.037,130 261.883,130 C265.728,130 265.728,135.66 269.573,135.66 C273.421,135.66 273.421,130 277.268,130 C281.116,130 281.116,135.66 284.964,135.66" id="Imported-Layers" stroke="#377BC9" stroke-width="3" stroke-linecap="round" sketch:type="MSShapeGroup" transform="translate(236.500000, 134.000000) rotate(-19.000000) translate(-236.500000, -134.000000) "></path>
                    <path d="M1173,639.664062 L1216.32812,639.664062 M1194.66406,618 L1194.66406,661.328125" id="Imported-Layers" stroke="#377BC9" stroke-width="3" stroke-linecap="round" sketch:type="MSShapeGroup" transform="translate(1196.500000, 641.500000) rotate(-26.000000) translate(-1196.500000, -641.500000) "></path>
                    <path d="M503,458 C506.844,458 506.844,463.66 510.687,463.66 C514.531,463.66 514.531,458 518.375,458 C522.219,458 522.219,463.66 526.063,463.66 C529.908,463.66 529.908,458 533.753,458 C537.595,458 537.595,463.66 541.437,463.66 C545.281,463.66 545.281,458 549.125,458 C552.969,458 552.969,463.66 556.813,463.66 C560.657,463.66 560.657,458 564.501,458 C568.346,458 568.346,463.66 572.191,463.66 C576.037,463.66 576.037,458 579.883,458 C583.728,458 583.728,463.66 587.573,463.66 C591.421,463.66 591.421,458 595.268,458 C599.116,458 599.116,463.66 602.964,463.66" id="Imported-Layers" stroke="#377BC9" stroke-width="3" stroke-linecap="round" sketch:type="MSShapeGroup" transform="translate(554.500000, 462.000000) rotate(-19.000000) translate(-554.500000, -462.000000) "></path>
                    <path d="M675,146 C678.844,146 678.844,151.66 682.687,151.66 C686.531,151.66 686.531,146 690.375,146 C694.219,146 694.219,151.66 698.063,151.66 C701.908,151.66 701.908,146 705.753,146 C709.595,146 709.595,151.66 713.437,151.66 C717.281,151.66 717.281,146 721.125,146 C724.969,146 724.969,151.66 728.813,151.66 C732.657,151.66 732.657,146 736.501,146 C740.346,146 740.346,151.66 744.191,151.66 C748.037,151.66 748.037,146 751.883,146 C755.728,146 755.728,151.66 759.573,151.66 C763.421,151.66 763.421,146 767.268,146 C771.116,146 771.116,151.66 774.964,151.66" id="Imported-Layers" stroke="#377BC9" stroke-width="3" stroke-linecap="round" sketch:type="MSShapeGroup" transform="translate(726.500000, 150.000000) rotate(70.000000) translate(-726.500000, -150.000000) "></path>
                    <path d="M383,214 L466,271" id="Imported-Layers" stroke="#377BC9" stroke-width="3" stroke-linecap="round" sketch:type="MSShapeGroup"></path>
                    <path d="M1045,417 L1086.10961,375.89039" id="Imported-Layers" stroke="#377BC9" stroke-width="3" stroke-linecap="round" sketch:type="MSShapeGroup"></path>
                    <path d="M544,657 L594,701" id="Imported-Layers" stroke="#377BC9" stroke-width="3" stroke-linecap="round" sketch:type="MSShapeGroup"></path>
                    <path d="M275,403.75 L304.5,403.75 M289.75,389 L289.75,418.5" id="Imported-Layers" stroke="#377BC9" stroke-width="3" stroke-linecap="round" sketch:type="MSShapeGroup" transform="translate(291.000000, 405.000000) rotate(-26.000000) translate(-291.000000, -405.000000) "></path>
                    <path d="M935,112.799 C935,102.417 943.417,94 953.799,94 C964.181,94 972.598,102.417 972.598,112.799 C972.598,123.181 964.181,131.598 953.799,131.598 C949.916,131.598 946.309,130.421 943.313,128.404" id="Imported-Layers" stroke="#377BC9" stroke-width="3" stroke-linecap="round" sketch:type="MSShapeGroup" transform="translate(955.000000, 114.000000) rotate(-34.000000) translate(-955.000000, -114.000000) "></path>
                    <path d="M19,232.1176 C19,207.2008 39.2008,187 64.1176,187 C89.0344,187 109.2352,207.2008 109.2352,232.1176 C109.2352,257.0344 89.0344,277.2352 64.1176,277.2352 C54.7984,277.2352 46.1416,274.4104 38.9512,269.5696" id="Imported-Layers" stroke="#377BC9" stroke-width="3" stroke-linecap="round" sketch:type="MSShapeGroup" transform="translate(67.000000, 235.000000) rotate(-34.000000) translate(-67.000000, -235.000000) "></path>
                    <path d="M231,652.799 C231,630.267 249.267,612 271.799,612 C294.332,612 312.598,630.267 312.598,652.799 C312.598,675.332 294.332,693.598 271.799,693.598 C263.373,693.598 255.544,691.044 249.043,686.667" id="Page-1" stroke="#377BC9" stroke-width="3" stroke-linecap="round" sketch:type="MSShapeGroup" transform="translate(273.000000, 654.500000) rotate(-105.000000) translate(-273.000000, -654.500000) "></path>
                    <text id="$" sketch:type="MSTextLayer" transform="translate(921.772189, 690.683968) rotate(-31.000000) translate(-921.772189, -690.683968) " font-family="Relative" font-size="26" font-weight="normal" fill="#377BCA">
                        <tspan x="913.772189" y="701.183968">$</tspan>
                    </text>
                    <text id="€" sketch:type="MSTextLayer" transform="translate(1172.772189, 228.683968) rotate(-31.000000) translate(-1172.772189, -228.683968) " font-family="Relative" font-size="26" font-weight="normal" fill="#377BCA">
                        <tspan x="1164.77219" y="239.183968">€</tspan>
                    </text>
                    <text id="59" sketch:type="MSTextLayer" transform="translate(589.772189, 21.683968) rotate(-31.000000) translate(-589.772189, -21.683968) " font-family="Relative" font-size="26" font-weight="normal" fill="#377BCA">
                        <tspan x="573.772189" y="32.1839685">59</tspan>
                    </text>
                    <text id="-22" sketch:type="MSTextLayer" transform="translate(125.272189, 533.683968) rotate(27.000000) translate(-125.272189, -533.683968) " font-family="Relative" font-size="26" font-weight="normal" fill="#377BCA">
                        <tspan x="101.772189" y="544.183968">-22</tspan>
                    </text>
                </g>
            </g>
        </g>
    </g>
</svg>