<?xml version="1.0" encoding="utf-8"?>
<!-- Generator: Adobe Illustrator 18.1.1, SVG Export Plug-In . SVG Version: 6.00 Build 0)  -->
<svg version="1.1" id="Layer_1" xmlns="http://www.w3.org/2000/svg" xmlns:xlink="http://www.w3.org/1999/xlink" x="0px" y="0px"
	 viewBox="0 0 6 333" enable-background="new 0 0 6 333" xml:space="preserve">
<g>
	<path fill="#FFBB2F" d="M0,333C0,329.6,0,3.4,0,0c0.5,0-0.4,0,0.2,0c0,2.6,1.2,3.8,2.6,5.3C4.3,6.8,6,8.5,6,11.9S4.3,17,2.8,18.5
		c-1.4,1.4-2.6,2.7-2.6,5.3c0,2.6,1.2,3.8,2.6,5.3C4.3,30.6,6,32.3,6,35.7c0,3.4-1.7,5.1-3.2,6.6c-1.4,1.4-2.6,2.7-2.6,5.3
		c0,2.6,1.2,3.8,2.6,5.3C4.3,54.4,6,56.1,6,59.5c0,3.4-1.7,5.1-3.2,6.6c-1.4,1.4-2.6,2.7-2.6,5.3c0,2.6,1.2,3.8,2.6,5.3
		C4.3,78.2,6,79.9,6,83.3c0,3.4-1.7,5.1-3.2,6.6c-1.4,1.4-2.6,2.7-2.6,5.3c0,2.6,1.2,3.8,2.6,5.3c1.5,1.5,3.2,3.3,3.2,6.6
		c0,3.4-1.7,5.1-3.2,6.6c-1.4,1.4-2.6,2.7-2.6,5.3s1.2,3.8,2.6,5.3c1.5,1.5,3.2,3.3,3.2,6.6c0,3.4-1.7,5.1-3.2,6.6
		c-1.4,1.4-2.6,2.7-2.6,5.3s1.2,3.8,2.6,5.3c1.5,1.5,3.2,3.3,3.2,6.6c0,3.4-1.7,5.1-3.2,6.6c-1.4,1.4-2.6,2.7-2.6,5.3
		s1.2,3.8,2.6,5.3c1.5,1.5,3.2,3.3,3.2,6.6c0,3.4-1.7,5.1-3.2,6.6c-1.4,1.4-2.6,2.7-2.6,5.3c0,2.6,1.2,3.8,2.6,5.3
		c1.5,1.5,3.2,3.3,3.2,6.6c0,3.4-1.7,5.1-3.2,6.6c-1.4,1.4-2.6,2.7-2.6,5.3s1.2,3.8,2.6,5.3c1.5,1.5,3.2,3.3,3.2,6.6
		c0,3.4-1.7,5.1-3.2,6.6c-1.4,1.4-2.6,2.7-2.6,5.3c0,2.6,1.2,3.8,2.6,5.3c1.5,1.5,3.2,3.3,3.2,6.6s-1.7,5.1-3.2,6.6
		c-1.4,1.4-2.6,2.7-2.6,5.3s1.2,3.8,2.6,5.3c1.5,1.5,3.2,3.3,3.2,6.6s-1.7,5.1-3.2,6.6c-1.4,1.4-2.6,2.7-2.6,5.3
		c0,2.6,1.2,3.8,2.6,5.3c1.5,1.5,3.2,3.3,3.2,6.6c0,3.4-1.7,5.1-3.2,6.6c-1.4,1.4-2.6,2.7-2.6,5.3c0,2.6,1.2,3.8,2.6,5.3
		c1.5,1.5,3.2,3.3,3.2,6.6s-1.7,5.1-3.2,6.6c-1.4,1.4-2.6,2.7-2.6,5.3C-0.4,333,0.6,333,0,333z"/>
</g>
</svg>
