<?xml version="1.0" encoding="UTF-8" standalone="no"?>
<svg width="256px" height="162px" viewBox="0 0 256 162" version="1.1" xmlns="http://www.w3.org/2000/svg" xmlns:xlink="http://www.w3.org/1999/xlink" xmlns:sketch="http://www.bohemiancoding.com/sketch/ns">
    <!-- Generator: Sketch 3.2.2 (9983) - http://www.bohemiancoding.com/sketch -->
    <title>graf</title>
    <desc>Created with Sketch.</desc>
    <defs></defs>
    <g id="Page-1" stroke="none" stroke-width="1" fill="none" fill-rule="evenodd" sketch:type="MSPage">
        <g id="Main" sketch:type="MSArtboardGroup" transform="translate(-809.000000, -2457.000000)" fill-opacity="0.649999976" fill="#009B58">
            <g id="Integrated" sketch:type="MSLayerGroup" transform="translate(100.000000, 2368.000000)">
                <path d="M947.413913,89 C937.851858,89 930.202213,96.6784953 930.202213,106.276614 C930.202213,110.850194 931.942103,114.985511 934.795036,118.064527 L881.351747,183.444476 C878.704727,181.782834 875.56898,180.822006 872.192411,180.822006 C867.114909,180.822006 862.576727,182.986915 859.436933,186.454934 L806.749502,155.003574 C806.798577,154.549567 806.836016,154.091498 806.8517,153.627335 C806.8517,144.029216 799.202055,136.350721 789.64,136.350721 C780.077945,136.350721 772.4283,144.029216 772.4283,153.627335 C772.4283,156.917103 773.327336,159.980884 774.893692,162.587611 L734.721423,217.930163 C732.216063,216.508727 729.316079,215.695172 726.2117,215.695172 C716.649644,215.695172 709,223.373668 709,232.971787 C709,242.569906 716.649644,250.248401 726.2117,250.248401 C735.773755,250.248401 743.423399,242.569906 743.423399,232.971787 C743.423399,230.16548 742.765186,227.525235 741.600538,225.191216 L782.221059,169.240276 C784.463336,170.307241 786.977296,170.90395 789.64,170.90395 C795.12781,170.90395 800.05404,168.197179 803.217613,163.989241 L855.243289,195.083085 C855.073802,196.062194 854.980711,197.068219 854.980711,198.098621 C854.980711,207.69674 862.630356,215.375235 872.192411,215.375235 C881.754466,215.375235 889.404111,207.69674 889.404111,198.098621 C889.404111,195.463455 888.824316,192.974545 887.789692,190.748188 L943.070008,123.005781 C944.455747,123.36279 945.911304,123.553229 947.413913,123.553229 C956.657233,123.553229 964.306877,115.874734 964.625613,106.276614 C964.625613,96.6784953 956.975968,89 947.413913,89 L947.413913,89 Z M726.2117,240.970219 C722.068142,240.970219 718.562055,237.450909 718.562055,233.291724 C718.562055,229.132539 722.068142,225.613229 726.2117,225.613229 C730.673992,225.613229 733.861344,229.132539 733.861344,233.291724 C733.861344,237.450909 730.355257,240.970219 726.2117,240.970219 L726.2117,240.970219 Z M789.64,161.625768 C785.496443,161.625768 781.990356,158.106458 781.990356,153.947273 C781.990356,149.788088 785.496443,146.268777 789.64,146.268777 C793.783557,146.268777 797.289644,149.788088 797.289644,153.947273 C797.289644,158.106458 793.783557,161.625768 789.64,161.625768 L789.64,161.625768 Z M872.192411,205.777116 C868.048854,205.777116 864.542767,202.257806 864.542767,198.098621 C864.542767,193.939436 868.048854,190.420125 872.192411,190.420125 C876.654704,190.420125 879.842055,193.939436 879.842055,198.098621 C879.842055,202.257806 876.335968,205.777116 872.192411,205.777116 L872.192411,205.777116 Z M947.413913,113.95511 C943.270356,113.95511 939.764269,110.435799 939.764269,106.276614 C939.764269,102.117429 943.270356,98.5981191 947.413913,98.5981191 C951.55747,98.5981191 955.063557,102.117429 955.063557,106.276614 C955.063557,110.435799 951.55747,113.95511 947.413913,113.95511 L947.413913,113.95511 Z" id="graf" sketch:type="MSShapeGroup"></path>
            </g>
        </g>
    </g>
</svg>