<?xml version="1.0" encoding="utf-8"?>
<!-- Generator: Adobe Illustrator 18.1.1, SVG Export Plug-In . SVG Version: 6.00 Build 0)  -->
<svg version="1.1" id="Layer_1" xmlns="http://www.w3.org/2000/svg" xmlns:xlink="http://www.w3.org/1999/xlink" x="0px" y="0px"
	 viewBox="0 0 6 333" enable-background="new 0 0 6 333" xml:space="preserve">
<g>
	<path fill="#FB7557" d="M0,333V0c0.8,0-0.4,0,0.3,0L6,11.9L0.3,23.8L6,35.7L0.3,47.6L6,59.5L0.3,71.4L6,83.3L0.3,95.2L6,107.1
		L0.3,119L6,130.8l-5.7,11.9L6,154.6l-5.7,11.9L6,178.4l-5.7,11.9L6,202.2l-5.7,11.9L6,226l-5.7,11.9L6,249.8l-5.7,11.9L6,273.5
		l-5.7,11.9L6,297.3l-5.7,11.9L6,321.1L0.3,333C0,333,0.1,333,0,333z"/>
</g>
</svg>
