<?xml version="1.0" encoding="UTF-8" standalone="no"?>
<svg width="213px" height="212px" viewBox="0 0 213 212" version="1.1" xmlns="http://www.w3.org/2000/svg" xmlns:xlink="http://www.w3.org/1999/xlink" xmlns:sketch="http://www.bohemiancoding.com/sketch/ns">
    <!-- Generator: Sketch 3.2.2 (9983) - http://www.bohemiancoding.com/sketch -->
    <title>Imported Layers</title>
    <desc>Created with Sketch.</desc>
    <defs></defs>
    <g id="Page-1" stroke="none" stroke-width="1" fill="none" fill-rule="evenodd" sketch:type="MSPage">
        <g id="Main" sketch:type="MSArtboardGroup" transform="translate(-161.000000, -2430.000000)" fill="#6C4B00" opacity="0.146513526">
            <g id="Integrated" sketch:type="MSLayerGroup" transform="translate(100.000000, 2368.000000)">
                <g id="Imported-Layers" transform="translate(63.000000, 63.000000)" sketch:type="MSShapeGroup">
                    <path d="M104.318688,7.83880851 C130.255231,7.83880851 154.639457,17.9438298 172.978761,36.2924681 C191.318957,54.642 201.418838,79.0386383 201.418838,104.987489 C201.418838,130.937234 191.318957,155.333872 172.978761,173.682511 C154.639457,192.032043 130.255231,202.137064 104.318688,202.137064 C78.3821453,202.137064 53.998812,192.032043 35.6586154,173.682511 C17.319312,155.333872 7.21943162,130.937234 7.21943162,104.987489 C7.21943162,79.0386383 17.319312,54.642 35.6586154,36.2924681 C53.998812,17.9438298 78.3821453,7.83880851 104.318688,7.83880851 M104.318688,0.68987234 C46.7463333,0.68987234 0.0741324786,47.3849362 0.0741324786,104.987489 C0.0741324786,162.590043 46.7463333,209.286 104.318688,209.286 C161.891936,209.286 208.564137,162.590043 208.564137,104.987489 C208.564137,47.3849362 161.891936,0.68987234 104.318688,0.68987234" id="Fill-1" stroke="#6C4B00" stroke-width="3"></path>
                    <path d="M139.856825,151.740908 C103.90305,140.353027 69.7479012,151.009042 69.3846221,151.120649 L68.6481921,147.007974 C70.1842311,146.532903 103.365041,136.05862 140.451102,147.809966 L139.856825,151.740908" id="Fill-39"></path>
                    <path d="M126.528034,133.902528 C128.113432,133.902528 129.398729,135.189467 129.398729,136.775671 C129.398729,138.361876 128.113432,139.647828 126.528034,139.647828 C124.94165,139.647828 123.656352,138.361876 123.656352,136.775671 C123.656352,135.189467 124.94165,133.902528 126.528034,133.902528" id="Fill-40"></path>
                    <path d="M82.8802444,133.752401 C84.4656419,133.752401 85.7519264,135.038353 85.7519264,136.625545 C85.7519264,138.211749 84.4656419,139.497701 82.8802444,139.497701 C81.2948469,139.497701 80.0095495,138.211749 80.0095495,136.625545 C80.0095495,135.038353 81.2948469,133.752401 82.8802444,133.752401" id="Fill-41"></path>
                    <path d="M69.0312147,142.969375 C67.5109705,143.420742 65.9127398,142.554552 65.459628,141.033534 C65.0075035,139.513504 65.8742401,137.915447 67.3934971,137.461117 L69.0312147,142.969375" id="Fill-42"></path>
                    <path d="M139.225035,143.370371 C140.74133,143.834578 142.345484,142.978264 142.809455,141.460209 C143.272438,139.942154 142.418535,138.339159 140.901252,137.874953 L139.225035,143.370371" id="Fill-43"></path>
                    <path d="M103.656257,132.137554 C105.242642,132.137554 106.528926,133.423506 106.528926,135.010698 C106.528926,136.59789 105.242642,137.884829 103.656257,137.884829 C102.069872,137.884829 100.783588,136.59789 100.783588,135.010698 C100.783588,133.423506 102.069872,132.137554 103.656257,132.137554" id="Fill-44"></path>
                    <path d="M153.618983,79.1310643 C153.491638,79.0056297 143.880536,67.2839144 122.222979,74.0070115 C113.616818,69.4943288 104.531878,69.3807463 103.950434,69.378771 L103.946485,69.378771 L103.825063,69.3807463 C96.4706351,69.7086541 90.312659,71.1022622 85.3728525,73.5309526 C64.5968401,67.4478682 55.251287,78.6688329 55.1259162,78.7893291 C43.3667287,90.2078286 51.4092154,106.296051 51.746828,106.95878 L64.8396843,133.706968 C74.6018238,131.586432 107.393688,124.720122 142.502445,133.003744 C142.555752,133.016584 142.609059,133.011646 142.662366,133.011646 L143.392873,133.422518 L156.800637,107.321257 C157.144173,106.66149 165.297223,90.6295654 153.618983,79.1310643 L153.618983,79.1310643 Z M101.572338,74.6806052 L101.40057,124.505797 C94.6453549,124.61049 88.4567765,125.079636 83.0648455,125.694956 C80.81212,121.010419 71.2592609,99.475174 78.9819039,86.0200907 C82.7667197,79.4273666 90.3610304,75.6188955 101.572338,74.6806052 L101.572338,74.6806052 Z M58.7932586,81.8274144 C59.1288969,81.4738271 66.4181716,74.0791117 79.9128067,77.0608996 C77.7331319,78.8841458 75.9246336,81.0125834 74.5149527,83.4689287 C66.1585455,98.0430467 74.3461463,119.041984 77.7005553,126.387316 C73.8022148,126.946339 70.4744595,127.550796 67.8525319,128.081177 L56.3243425,104.616017 C56.0617549,104.091562 49.8524458,91.4513102 58.7932586,81.8274144 L58.7932586,81.8274144 Z M105.684894,124.492957 L105.856662,74.6430736 C110.566458,75.0796255 122.718539,77.1083079 128.767927,86.4941742 C134.481676,95.354598 133.557683,108.603257 126.066038,125.860886 C118.951493,124.945312 112.101509,124.545304 105.684894,124.492957 L105.684894,124.492957 Z M152.239905,104.946888 L140.083874,128.321182 C137.137167,127.660428 134.216127,127.104367 131.327663,126.632259 C139.036485,108.284239 139.639647,93.8325923 133.071008,83.6743649 C131.489559,81.228884 129.599125,79.2110659 127.556667,77.5290571 C141.90027,73.8647864 149.5854,81.7770431 149.928936,82.1424825 C158.803608,91.827614 152.507428,104.425396 152.239905,104.946888 L152.239905,104.946888 Z" id="Fill-45"></path>
                    <path d="M101.176482,65.409309 L105.460806,65.4251118 L105.471665,62.2833207 L108.47168,62.2931975 L108.4855,58.0076799 L105.488447,57.9968154 L105.496345,55.1355238 L101.21202,55.1207087 L101.202148,57.9810127 L98.202134,57.9721236 L98.1873264,62.2586289 L101.188328,62.2685056 L101.176482,65.409309" id="Fill-46"></path>
                </g>
            </g>
        </g>
    </g>
</svg>