<?xml version="1.0" encoding="UTF-8" standalone="no"?>
<svg width="80px" height="205px" viewBox="0 0 80 205" version="1.1" xmlns="http://www.w3.org/2000/svg" xmlns:xlink="http://www.w3.org/1999/xlink" xmlns:sketch="http://www.bohemiancoding.com/sketch/ns">
    <!-- Generator: Sketch 3.2.2 (9983) - http://www.bohemiancoding.com/sketch -->
    <title>overview-sorting</title>
    <desc>Created with Sketch.</desc>
    <defs></defs>
    <g id="Page-1" stroke="none" stroke-width="1" fill="none" fill-rule="evenodd" sketch:type="MSPage">
        <g id="overview-sorting" sketch:type="MSLayerGroup" fill="#C85C43" opacity="0.34">
            <path d="M39.7,204.9 C17.9,204.9 0.1,187.3 0,165.6 L0,30 C0,13.6 13.4,0.3 29.8,0.3 C46.2,0.3 59.6,13.6 59.6,30 L59.6,131.7 C59.6,142.6 50.7,151.5 39.7,151.5 C28.8,151.5 19.8,142.6 19.8,131.7 L19.8,80.8 L31.3,80.8 L31.3,132.3 C31.6,136.6 35.2,140 39.7,140 C44.3,140 48.1,136.3 48.1,131.6 L48.1,30 C48.1,19.9 39.9,11.7 29.8,11.7 C19.7,11.7 11.5,19.9 11.5,30 L11.5,165.3 C11.5,180.8 24.2,193.5 39.8,193.5 C55.4,193.5 68.1,180.9 68.1,165.3 L68.1,52.6 L79.6,52.6 L79.6,165.6 C79.3,187.3 61.5,204.9 39.7,204.9" id="Shape" sketch:type="MSShapeGroup"></path>
        </g>
    </g>
</svg>